G04*
G04 #@! TF.GenerationSoftware,Altium Limited,Altium Designer,26.2.0 (7)*
G04*
G04 Layer_Color=16711935*
%FSLAX25Y25*%
%MOIN*%
G70*
G04*
G04 #@! TF.SameCoordinates,B4A42267-10C6-43D6-8E6F-C0A9A178EC5E*
G04*
G04*
G04 #@! TF.FilePolarity,Negative*
G04*
G01*
G75*
G04:AMPARAMS|DCode=97|XSize=24mil|YSize=24mil|CornerRadius=8mil|HoleSize=0mil|Usage=FLASHONLY|Rotation=270.000|XOffset=0mil|YOffset=0mil|HoleType=Round|Shape=RoundedRectangle|*
%AMROUNDEDRECTD97*
21,1,0.02400,0.00800,0,0,270.0*
21,1,0.00800,0.02400,0,0,270.0*
1,1,0.01600,-0.00400,-0.00400*
1,1,0.01600,-0.00400,0.00400*
1,1,0.01600,0.00400,0.00400*
1,1,0.01600,0.00400,-0.00400*
%
%ADD97ROUNDEDRECTD97*%
G04:AMPARAMS|DCode=98|XSize=24mil|YSize=24mil|CornerRadius=8mil|HoleSize=0mil|Usage=FLASHONLY|Rotation=180.000|XOffset=0mil|YOffset=0mil|HoleType=Round|Shape=RoundedRectangle|*
%AMROUNDEDRECTD98*
21,1,0.02400,0.00800,0,0,180.0*
21,1,0.00800,0.02400,0,0,180.0*
1,1,0.01600,-0.00400,0.00400*
1,1,0.01600,0.00400,0.00400*
1,1,0.01600,0.00400,-0.00400*
1,1,0.01600,-0.00400,-0.00400*
%
%ADD98ROUNDEDRECTD98*%
G04:AMPARAMS|DCode=102|XSize=59mil|YSize=47mil|CornerRadius=9.96mil|HoleSize=0mil|Usage=FLASHONLY|Rotation=0.000|XOffset=0mil|YOffset=0mil|HoleType=Round|Shape=RoundedRectangle|*
%AMROUNDEDRECTD102*
21,1,0.05900,0.02709,0,0,0.0*
21,1,0.03909,0.04700,0,0,0.0*
1,1,0.01991,0.01955,-0.01355*
1,1,0.01991,-0.01955,-0.01355*
1,1,0.01991,-0.01955,0.01355*
1,1,0.01991,0.01955,0.01355*
%
%ADD102ROUNDEDRECTD102*%
G04:AMPARAMS|DCode=133|XSize=59mil|YSize=47mil|CornerRadius=9.96mil|HoleSize=0mil|Usage=FLASHONLY|Rotation=270.000|XOffset=0mil|YOffset=0mil|HoleType=Round|Shape=RoundedRectangle|*
%AMROUNDEDRECTD133*
21,1,0.05900,0.02709,0,0,270.0*
21,1,0.03909,0.04700,0,0,270.0*
1,1,0.01991,-0.01355,-0.01955*
1,1,0.01991,-0.01355,0.01955*
1,1,0.01991,0.01355,0.01955*
1,1,0.01991,0.01355,-0.01955*
%
%ADD133ROUNDEDRECTD133*%
G04:AMPARAMS|DCode=143|XSize=102.43mil|YSize=51.24mil|CornerRadius=13.81mil|HoleSize=0mil|Usage=FLASHONLY|Rotation=270.000|XOffset=0mil|YOffset=0mil|HoleType=Round|Shape=RoundedRectangle|*
%AMROUNDEDRECTD143*
21,1,0.10243,0.02362,0,0,270.0*
21,1,0.07480,0.05124,0,0,270.0*
1,1,0.02762,-0.01181,-0.03740*
1,1,0.02762,-0.01181,0.03740*
1,1,0.02762,0.01181,0.03740*
1,1,0.02762,0.01181,-0.03740*
%
%ADD143ROUNDEDRECTD143*%
%ADD152C,0.11811*%
%ADD156C,0.09061*%
%ADD157C,0.24961*%
%ADD158C,0.06219*%
%ADD159C,0.02762*%
%ADD160C,0.12362*%
%ADD161C,0.06400*%
G04:AMPARAMS|DCode=162|XSize=64mil|YSize=64mil|CornerRadius=0mil|HoleSize=0mil|Usage=FLASHONLY|Rotation=0.000|XOffset=0mil|YOffset=0mil|HoleType=Round|Shape=Octagon|*
%AMOCTAGOND162*
4,1,8,0.03200,-0.01600,0.03200,0.01600,0.01600,0.03200,-0.01600,0.03200,-0.03200,0.01600,-0.03200,-0.01600,-0.01600,-0.03200,0.01600,-0.03200,0.03200,-0.01600,0.0*
%
%ADD162OCTAGOND162*%

%ADD163C,0.15400*%
%ADD164C,0.06850*%
%ADD165R,0.12362X0.12362*%
%ADD166C,0.12351*%
%ADD167C,0.08445*%
%ADD168R,0.08445X0.08445*%
%ADD169C,0.02400*%
%ADD170C,0.02200*%
%ADD171C,0.01968*%
%ADD172C,0.02368*%
%ADD173C,0.01181*%
%ADD174C,0.02600*%
G04:AMPARAMS|DCode=244|XSize=102.43mil|YSize=63.06mil|CornerRadius=13.81mil|HoleSize=0mil|Usage=FLASHONLY|Rotation=0.000|XOffset=0mil|YOffset=0mil|HoleType=Round|Shape=RoundedRectangle|*
%AMROUNDEDRECTD244*
21,1,0.10243,0.03543,0,0,0.0*
21,1,0.07480,0.06306,0,0,0.0*
1,1,0.02762,0.03740,-0.01772*
1,1,0.02762,-0.03740,-0.01772*
1,1,0.02762,-0.03740,0.01772*
1,1,0.02762,0.03740,0.01772*
%
%ADD244ROUNDEDRECTD244*%
G04:AMPARAMS|DCode=245|XSize=102.43mil|YSize=63.06mil|CornerRadius=13.81mil|HoleSize=0mil|Usage=FLASHONLY|Rotation=90.000|XOffset=0mil|YOffset=0mil|HoleType=Round|Shape=RoundedRectangle|*
%AMROUNDEDRECTD245*
21,1,0.10243,0.03543,0,0,90.0*
21,1,0.07480,0.06306,0,0,90.0*
1,1,0.02762,0.01772,0.03740*
1,1,0.02762,0.01772,-0.03740*
1,1,0.02762,-0.01772,-0.03740*
1,1,0.02762,-0.01772,0.03740*
%
%ADD245ROUNDEDRECTD245*%
D97*
X376593Y363251D02*
D03*
X387890Y351467D02*
D03*
X372579Y359200D02*
D03*
X409609Y398734D02*
D03*
X410029Y371059D02*
D03*
X409703Y406518D02*
D03*
X406109Y398734D02*
D03*
X413529Y371059D02*
D03*
X382542Y406671D02*
D03*
X351023Y406518D02*
D03*
X380093Y363251D02*
D03*
X403638Y343567D02*
D03*
X384390Y351467D02*
D03*
X389779Y327783D02*
D03*
X376079Y359200D02*
D03*
X360768Y343510D02*
D03*
X773500Y95750D02*
D03*
X748750D02*
D03*
X417875Y315951D02*
D03*
X402173Y316112D02*
D03*
X386395Y315950D02*
D03*
X370669Y315911D02*
D03*
X355007Y315950D02*
D03*
X406204Y406518D02*
D03*
X386042Y406671D02*
D03*
X400138Y343567D02*
D03*
X386279Y327783D02*
D03*
X421375Y315951D02*
D03*
X405673Y316112D02*
D03*
X389895Y315950D02*
D03*
X354523Y406518D02*
D03*
X364268Y343510D02*
D03*
X374169Y315911D02*
D03*
X358507Y315950D02*
D03*
X769478Y80097D02*
D03*
X765978D02*
D03*
X741032Y79555D02*
D03*
X745250Y95750D02*
D03*
X770000D02*
D03*
X744532Y79555D02*
D03*
D98*
X489851Y363735D02*
D03*
Y360235D02*
D03*
Y354188D02*
D03*
Y350688D02*
D03*
Y398868D02*
D03*
Y395368D02*
D03*
X541749Y371607D02*
D03*
Y368107D02*
D03*
Y398836D02*
D03*
Y395336D02*
D03*
Y384306D02*
D03*
Y380806D02*
D03*
Y353594D02*
D03*
Y350094D02*
D03*
X489851Y384267D02*
D03*
Y380767D02*
D03*
Y375931D02*
D03*
Y372431D02*
D03*
X344876Y334069D02*
D03*
X337002Y337443D02*
D03*
X388126Y367374D02*
D03*
X409703Y383188D02*
D03*
Y386688D02*
D03*
X419625Y337443D02*
D03*
X388126Y370874D02*
D03*
X356513Y381001D02*
D03*
X338896Y379251D02*
D03*
Y374877D02*
D03*
X390077Y339444D02*
D03*
X362518Y331939D02*
D03*
X344876Y337569D02*
D03*
X337002Y333943D02*
D03*
X419625D02*
D03*
X390077Y335944D02*
D03*
X356513Y377501D02*
D03*
X338896Y382751D02*
D03*
X362518Y335439D02*
D03*
X338896Y371377D02*
D03*
X738479Y48750D02*
D03*
X758000Y48750D02*
D03*
Y45250D02*
D03*
X738479Y45250D02*
D03*
D102*
X322963Y348276D02*
D03*
X441955Y418276D02*
D03*
Y411576D02*
D03*
X238002Y442512D02*
D03*
X322894Y374662D02*
D03*
X322963Y341576D02*
D03*
X322291Y312025D02*
D03*
X322894Y381362D02*
D03*
X322291Y318725D02*
D03*
X238002Y435812D02*
D03*
D133*
X381245Y301941D02*
D03*
Y292991D02*
D03*
X399635Y421390D02*
D03*
X435845Y288053D02*
D03*
Y297959D02*
D03*
X415983Y297340D02*
D03*
X387946Y292991D02*
D03*
Y301941D02*
D03*
X339114Y299862D02*
D03*
X253378Y418861D02*
D03*
X253861Y409861D02*
D03*
X257478Y391861D02*
D03*
X256952Y400861D02*
D03*
X171788Y424866D02*
D03*
X171551Y415866D02*
D03*
X442545Y288053D02*
D03*
Y297959D02*
D03*
X406335Y421390D02*
D03*
X409283Y297340D02*
D03*
X332414Y299862D02*
D03*
X246678Y418861D02*
D03*
X178488Y424866D02*
D03*
X247161Y409861D02*
D03*
X250252Y400861D02*
D03*
X250778Y391861D02*
D03*
X178251Y415866D02*
D03*
D143*
X656701Y22248D02*
D03*
X669299D02*
D03*
D152*
X602362Y15748D02*
D03*
X738189Y448819D02*
D03*
X62992D02*
D03*
D156*
X16881Y226296D02*
D03*
X6881Y216296D02*
D03*
Y236296D02*
D03*
X26881Y216296D02*
D03*
Y236296D02*
D03*
X16881Y269296D02*
D03*
X6881Y259296D02*
D03*
Y279296D02*
D03*
X26881Y259296D02*
D03*
Y279296D02*
D03*
X17510Y328684D02*
D03*
X7510Y318684D02*
D03*
Y338684D02*
D03*
X27510Y318684D02*
D03*
Y338684D02*
D03*
X18510Y370684D02*
D03*
X8510Y360684D02*
D03*
Y380684D02*
D03*
X28510Y360684D02*
D03*
Y380684D02*
D03*
D157*
X771654Y448819D02*
D03*
X576772Y17717D02*
D03*
X29528Y448819D02*
D03*
X220472Y17717D02*
D03*
D158*
X515537Y450051D02*
D03*
X495537D02*
D03*
X279002Y275248D02*
D03*
X259002D02*
D03*
D159*
X754713Y154798D02*
D03*
X758925D02*
D03*
X754713Y150585D02*
D03*
X758925D02*
D03*
X750500D02*
D03*
Y154798D02*
D03*
X758925Y146373D02*
D03*
X754713D02*
D03*
X750500D02*
D03*
D160*
X149535Y84695D02*
D03*
X116465D02*
D03*
X133000D02*
D03*
Y63041D02*
D03*
X116465D02*
D03*
X687701Y24232D02*
D03*
X640299D02*
D03*
D161*
X762000Y32000D02*
D03*
X774000Y58000D02*
D03*
X729000D02*
D03*
X738000D02*
D03*
X783000D02*
D03*
X742000Y39000D02*
D03*
X750000D02*
D03*
X758000D02*
D03*
X766000D02*
D03*
X746000Y32000D02*
D03*
X754000D02*
D03*
D162*
X770000D02*
D03*
D163*
X731000Y22000D02*
D03*
X781000D02*
D03*
D164*
X668921Y34862D02*
D03*
X659079D02*
D03*
Y42736D02*
D03*
X668921D02*
D03*
D165*
X149535Y63041D02*
D03*
D166*
X116465Y34301D02*
D03*
X149535D02*
D03*
D167*
X82528Y29500D02*
D03*
X62843D02*
D03*
X43157D02*
D03*
D168*
X23472D02*
D03*
D169*
X542086Y232805D02*
D03*
X479457Y233318D02*
D03*
X314025Y234130D02*
D03*
X562000Y35394D02*
D03*
X307748Y172000D02*
D03*
X199502Y147579D02*
D03*
X485107Y24000D02*
D03*
X410799Y67369D02*
D03*
X346394Y96973D02*
D03*
X307551Y25554D02*
D03*
X237000Y11000D02*
D03*
X586446Y297655D02*
D03*
X542488Y307000D02*
D03*
X553512Y308969D02*
D03*
X586446Y316955D02*
D03*
X537326Y299235D02*
D03*
X550187Y297458D02*
D03*
X562487Y299235D02*
D03*
X558471D02*
D03*
X566371Y312186D02*
D03*
X562471Y312189D02*
D03*
X558471Y312218D02*
D03*
X535984Y310719D02*
D03*
Y307219D02*
D03*
X503087Y335000D02*
D03*
X521317Y354052D02*
D03*
X532663Y377026D02*
D03*
X499832Y343742D02*
D03*
X497863Y349126D02*
D03*
X519877Y382992D02*
D03*
X320781Y222040D02*
D03*
Y226756D02*
D03*
X318254D02*
D03*
X571514Y65100D02*
D03*
X578207D02*
D03*
X575000Y61145D02*
D03*
X578010D02*
D03*
X575000Y65100D02*
D03*
X571613Y61145D02*
D03*
X567003D02*
D03*
Y65100D02*
D03*
X571736Y308079D02*
D03*
X569171Y308649D02*
D03*
X565900Y302826D02*
D03*
X548614Y225969D02*
D03*
Y221251D02*
D03*
X546337Y225967D02*
D03*
X515553Y453534D02*
D03*
X495582Y453450D02*
D03*
X279002Y271630D02*
D03*
X258946D02*
D03*
X565900Y230750D02*
D03*
X561418Y214340D02*
D03*
X554937Y217413D02*
D03*
X542754Y221081D02*
D03*
X541967Y199740D02*
D03*
X571613Y84750D02*
D03*
X519000Y91000D02*
D03*
Y85000D02*
D03*
Y73000D02*
D03*
Y79000D02*
D03*
Y67000D02*
D03*
X516000Y76000D02*
D03*
Y70000D02*
D03*
Y88000D02*
D03*
X513000Y85000D02*
D03*
X516000Y82000D02*
D03*
X513000Y91000D02*
D03*
X510000Y82000D02*
D03*
X513000Y79000D02*
D03*
Y73000D02*
D03*
X510000Y76000D02*
D03*
Y70000D02*
D03*
X542000Y57637D02*
D03*
X519000Y61000D02*
D03*
X516000Y64000D02*
D03*
X534000Y51067D02*
D03*
X520000Y32000D02*
D03*
X513000Y61000D02*
D03*
Y67000D02*
D03*
X510000Y47240D02*
D03*
Y64000D02*
D03*
X513000Y27850D02*
D03*
X513150Y20000D02*
D03*
X503050Y230750D02*
D03*
X490937Y217413D02*
D03*
X477967Y221081D02*
D03*
X403337Y228750D02*
D03*
X339901Y231330D02*
D03*
X507000Y91000D02*
D03*
X501000D02*
D03*
X504000Y88000D02*
D03*
X496677Y215282D02*
D03*
X510000Y88000D02*
D03*
X507000Y85000D02*
D03*
X504000Y82000D02*
D03*
X501000Y85000D02*
D03*
Y79000D02*
D03*
X477967Y199724D02*
D03*
X507000Y73000D02*
D03*
Y79000D02*
D03*
X504000Y70000D02*
D03*
Y76000D02*
D03*
X501000Y73000D02*
D03*
X507000Y67000D02*
D03*
X504000Y64000D02*
D03*
X507000Y61000D02*
D03*
X501000Y67000D02*
D03*
Y61000D02*
D03*
X500000Y47240D02*
D03*
X498749Y36000D02*
D03*
Y28000D02*
D03*
Y32000D02*
D03*
X407780Y213250D02*
D03*
X401937Y216413D02*
D03*
X384800Y216000D02*
D03*
X390250Y199000D02*
D03*
X418703Y33971D02*
D03*
X451958Y32157D02*
D03*
X449392D02*
D03*
X454471D02*
D03*
X418703Y21471D02*
D03*
X407447Y126663D02*
D03*
Y129229D02*
D03*
X413702Y109223D02*
D03*
X407447Y131741D02*
D03*
X406202Y96471D02*
D03*
X352702Y89623D02*
D03*
X336750Y218000D02*
D03*
X326937Y218413D02*
D03*
X314754Y222040D02*
D03*
X315344Y201199D02*
D03*
X315500Y147300D02*
D03*
X265501Y80000D02*
D03*
Y86000D02*
D03*
X259501D02*
D03*
X262501Y83000D02*
D03*
X253501Y86000D02*
D03*
X256501Y83000D02*
D03*
X259501Y80000D02*
D03*
X262501Y77000D02*
D03*
X253501Y80000D02*
D03*
X256501Y77000D02*
D03*
X250501Y83000D02*
D03*
X247501Y80000D02*
D03*
X250501Y77000D02*
D03*
X247501Y86000D02*
D03*
X207000Y184800D02*
D03*
Y180000D02*
D03*
Y174500D02*
D03*
Y129000D02*
D03*
X317468Y74973D02*
D03*
X314901D02*
D03*
X312389D02*
D03*
X289504Y55386D02*
D03*
X286938D02*
D03*
X265501Y68000D02*
D03*
Y74000D02*
D03*
Y62000D02*
D03*
X262501Y71000D02*
D03*
Y65000D02*
D03*
X284426Y55386D02*
D03*
X262501Y59000D02*
D03*
X265501Y56000D02*
D03*
X279850Y43070D02*
D03*
X280000Y26250D02*
D03*
X261346Y15999D02*
D03*
X259501Y68000D02*
D03*
Y74000D02*
D03*
X256501Y65000D02*
D03*
Y71000D02*
D03*
X253501Y68000D02*
D03*
X259501Y62000D02*
D03*
X256501Y59000D02*
D03*
X259501Y56000D02*
D03*
X253501Y62000D02*
D03*
Y56000D02*
D03*
Y74000D02*
D03*
X250501Y71000D02*
D03*
Y65000D02*
D03*
X247501Y74000D02*
D03*
Y68000D02*
D03*
X250501Y59000D02*
D03*
X247501Y56000D02*
D03*
Y62000D02*
D03*
X246501Y42240D02*
D03*
X256501D02*
D03*
X254850Y28000D02*
D03*
X245284Y26347D02*
D03*
X245282Y22347D02*
D03*
Y30347D02*
D03*
X179288Y27746D02*
D03*
Y24598D02*
D03*
X175461Y27723D02*
D03*
Y24574D02*
D03*
X104630Y116077D02*
D03*
Y119226D02*
D03*
Y112929D02*
D03*
X534500Y302827D02*
D03*
X531621Y302805D02*
D03*
X484781Y225800D02*
D03*
X482505Y225798D02*
D03*
X484781Y221081D02*
D03*
X241782Y30347D02*
D03*
Y26347D02*
D03*
Y22347D02*
D03*
X241752Y15998D02*
D03*
X194030Y96461D02*
D03*
X190882D02*
D03*
X187733D02*
D03*
X184546Y96563D02*
D03*
X181397D02*
D03*
X178249D02*
D03*
X174831Y96589D02*
D03*
X171683D02*
D03*
X168534D02*
D03*
X192529Y94100D02*
D03*
X189381D02*
D03*
X186232D02*
D03*
X183080D02*
D03*
X179932D02*
D03*
X176784D02*
D03*
X173335D02*
D03*
X170186D02*
D03*
X167037D02*
D03*
X443202Y77666D02*
D03*
Y73111D02*
D03*
Y68555D02*
D03*
Y64000D02*
D03*
X437887Y77666D02*
D03*
Y73111D02*
D03*
Y68555D02*
D03*
Y64000D02*
D03*
X433000D02*
D03*
Y68555D02*
D03*
Y73111D02*
D03*
Y77666D02*
D03*
X222244Y141417D02*
D03*
X215000D02*
D03*
Y147301D02*
D03*
X222354D02*
D03*
Y152000D02*
D03*
X215000D02*
D03*
X230000Y140000D02*
D03*
Y144075D02*
D03*
X229500Y148000D02*
D03*
Y152420D02*
D03*
X312389Y166873D02*
D03*
X318079Y167000D02*
D03*
X315157D02*
D03*
X545299Y202493D02*
D03*
X548132D02*
D03*
Y199909D02*
D03*
X389068Y221081D02*
D03*
X386650Y223500D02*
D03*
X393750Y202252D02*
D03*
X484300Y199740D02*
D03*
Y202324D02*
D03*
X481467D02*
D03*
X102282Y162393D02*
D03*
X105795Y178987D02*
D03*
X56047Y174709D02*
D03*
X28860Y174118D02*
D03*
X489900Y20000D02*
D03*
X491764Y27850D02*
D03*
Y31813D02*
D03*
Y35972D02*
D03*
X481306Y42285D02*
D03*
Y51731D02*
D03*
Y48583D02*
D03*
Y45434D02*
D03*
X484850Y45571D02*
D03*
Y48719D02*
D03*
Y51868D02*
D03*
Y42422D02*
D03*
X362851Y94506D02*
D03*
Y96973D02*
D03*
X358702Y94506D02*
D03*
Y96973D02*
D03*
X384703Y17625D02*
D03*
X377000D02*
D03*
X384380Y25233D02*
D03*
X380690D02*
D03*
X377000D02*
D03*
X380690Y28913D02*
D03*
X384380D02*
D03*
X377000D02*
D03*
X297050Y39570D02*
D03*
X300050D02*
D03*
X307000Y36969D02*
D03*
Y31768D02*
D03*
Y39570D02*
D03*
Y34369D02*
D03*
X304000D02*
D03*
Y39570D02*
D03*
Y31768D02*
D03*
Y36969D02*
D03*
X233543Y38250D02*
D03*
Y47696D02*
D03*
Y44547D02*
D03*
Y41399D02*
D03*
X230000Y41262D02*
D03*
Y44410D02*
D03*
Y47559D02*
D03*
Y38113D02*
D03*
D170*
X443161Y279743D02*
D03*
X441161D02*
D03*
X441584Y299578D02*
D03*
X443584D02*
D03*
X409781Y341631D02*
D03*
D03*
X400000Y351441D02*
D03*
X402114Y353668D02*
D03*
X409762Y349505D02*
D03*
D03*
X409747Y352675D02*
D03*
D03*
X436884Y299578D02*
D03*
X434884D02*
D03*
X417546Y349595D02*
D03*
D03*
X425510Y349505D02*
D03*
D03*
X411748Y390811D02*
D03*
X407811Y386874D02*
D03*
X396000Y359315D02*
D03*
X411748Y382937D02*
D03*
Y398685D02*
D03*
X403874D02*
D03*
X411748Y375063D02*
D03*
X399937Y379000D02*
D03*
X403874Y367189D02*
D03*
X407811Y371126D02*
D03*
X415668Y371109D02*
D03*
X474888Y367233D02*
D03*
X496837Y371845D02*
D03*
X489647Y366534D02*
D03*
X421632Y344929D02*
D03*
X413699Y353442D02*
D03*
Y357379D02*
D03*
X421632Y345067D02*
D03*
X416264Y353956D02*
D03*
X421637Y349451D02*
D03*
D03*
X490101Y350504D02*
D03*
X489851Y372431D02*
D03*
X419622Y379000D02*
D03*
X430418Y377064D02*
D03*
X427525Y371126D02*
D03*
X423559Y386876D02*
D03*
X427525D02*
D03*
X419622Y382937D02*
D03*
Y386874D02*
D03*
X413699Y361316D02*
D03*
X519165Y365648D02*
D03*
X409762Y361316D02*
D03*
X488051Y349004D02*
D03*
X433384Y365253D02*
D03*
X528670Y355749D02*
D03*
X514558Y375985D02*
D03*
X425475Y369357D02*
D03*
X427496Y394748D02*
D03*
X427392Y364751D02*
D03*
X427403Y345954D02*
D03*
X497863Y354281D02*
D03*
X521317Y375706D02*
D03*
X433384Y373290D02*
D03*
X405825Y353442D02*
D03*
X521377Y360473D02*
D03*
X427496Y402622D02*
D03*
X417654Y366239D02*
D03*
X483141Y348600D02*
D03*
X396000Y363252D02*
D03*
X427496Y339630D02*
D03*
X399937Y363252D02*
D03*
X534063Y398794D02*
D03*
X491722Y382411D02*
D03*
X537849Y384306D02*
D03*
X527037Y357323D02*
D03*
X399937Y359315D02*
D03*
X550888Y347334D02*
D03*
X479636Y362634D02*
D03*
X537849Y353594D02*
D03*
X532663Y360473D02*
D03*
X550888Y371810D02*
D03*
X504990Y398268D02*
D03*
X499832Y398512D02*
D03*
X501510Y395426D02*
D03*
X431433Y406559D02*
D03*
X513963Y366607D02*
D03*
X497399Y365253D02*
D03*
X502520Y360473D02*
D03*
X496230Y352686D02*
D03*
X513898Y354052D02*
D03*
X425373Y357928D02*
D03*
X537849Y350094D02*
D03*
X511245Y334844D02*
D03*
X511289Y398268D02*
D03*
X431386Y394748D02*
D03*
X532428Y396768D02*
D03*
X525772Y400686D02*
D03*
X423559Y394748D02*
D03*
X528572Y387302D02*
D03*
X525501Y384134D02*
D03*
X431433Y386874D02*
D03*
X496963Y382498D02*
D03*
X528601Y380965D02*
D03*
X537849Y395355D02*
D03*
X547388Y375710D02*
D03*
X519165Y373127D02*
D03*
X421573Y365253D02*
D03*
X479636Y366534D02*
D03*
X433384Y369190D02*
D03*
X501391Y365009D02*
D03*
X508140Y363623D02*
D03*
X425510Y361316D02*
D03*
X502214Y357366D02*
D03*
X537849Y380867D02*
D03*
X496963Y385670D02*
D03*
X509675Y377826D02*
D03*
X514554Y358243D02*
D03*
X399937Y367189D02*
D03*
X550888Y351234D02*
D03*
X547387Y367910D02*
D03*
X521785Y368386D02*
D03*
X396000Y355378D02*
D03*
X550888Y360027D02*
D03*
X488533Y387288D02*
D03*
X483141Y391855D02*
D03*
X517353Y375515D02*
D03*
X448803Y380767D02*
D03*
X417636Y361316D02*
D03*
X508140Y395119D02*
D03*
X537849Y371666D02*
D03*
X537849Y363184D02*
D03*
X479549Y352940D02*
D03*
X522945Y334846D02*
D03*
X532428Y393836D02*
D03*
X501351Y392426D02*
D03*
X500016Y384355D02*
D03*
X427525Y382926D02*
D03*
X501391Y380285D02*
D03*
X429447Y373127D02*
D03*
X514432Y379371D02*
D03*
X433384Y377064D02*
D03*
X532713Y379348D02*
D03*
X528660Y374655D02*
D03*
X534098Y368386D02*
D03*
X437974Y359079D02*
D03*
X417850Y357646D02*
D03*
X489866Y395514D02*
D03*
X439845Y365485D02*
D03*
X405825Y361316D02*
D03*
X479910Y373252D02*
D03*
X527037Y360473D02*
D03*
X547388Y355134D02*
D03*
X433384Y361316D02*
D03*
X532428Y355926D02*
D03*
X513963Y360473D02*
D03*
X409777Y357379D02*
D03*
X519045Y334845D02*
D03*
X527037Y349149D02*
D03*
X475963Y353442D02*
D03*
X421591Y357773D02*
D03*
X550887Y367910D02*
D03*
X537849Y368227D02*
D03*
X487301Y376658D02*
D03*
X437321Y363623D02*
D03*
X514558Y373426D02*
D03*
X405825Y357379D02*
D03*
X478790Y386821D02*
D03*
X504990Y391969D02*
D03*
X515017Y391926D02*
D03*
X431433Y390811D02*
D03*
X523888Y388819D02*
D03*
X427525Y390936D02*
D03*
X496963Y375930D02*
D03*
X537849Y359745D02*
D03*
X550889Y363927D02*
D03*
X526845Y334846D02*
D03*
X515145Y334844D02*
D03*
X521963Y399926D02*
D03*
X423559Y402622D02*
D03*
X511289Y395119D02*
D03*
X514558Y383210D02*
D03*
X423567Y379000D02*
D03*
X528549Y384024D02*
D03*
X433384Y381001D02*
D03*
X532735Y382476D02*
D03*
X519165Y369190D02*
D03*
X550888Y375710D02*
D03*
X425229Y365300D02*
D03*
X479451Y382325D02*
D03*
X532739Y363475D02*
D03*
X531863Y351024D02*
D03*
X530745Y334830D02*
D03*
X479841Y376997D02*
D03*
X525963Y390926D02*
D03*
X427496Y406559D02*
D03*
X491651Y349004D02*
D03*
X509640Y358765D02*
D03*
X429573Y365273D02*
D03*
X507345Y334844D02*
D03*
X550888Y355134D02*
D03*
X508140Y398268D02*
D03*
X431433Y402622D02*
D03*
X504990Y395119D02*
D03*
X423559Y382937D02*
D03*
X502541Y375543D02*
D03*
X504990Y351024D02*
D03*
X344819Y331756D02*
D03*
X352693Y343567D02*
D03*
X344819Y347504D02*
D03*
X336945Y339630D02*
D03*
Y323882D02*
D03*
Y355378D02*
D03*
X324582Y349237D02*
D03*
X314219Y351446D02*
D03*
Y353446D02*
D03*
X324582Y347237D02*
D03*
X686000Y279436D02*
D03*
X415685Y335693D02*
D03*
X700161Y246126D02*
D03*
X427496Y316008D02*
D03*
X716044Y284472D02*
D03*
X415685Y339630D02*
D03*
X713453Y278217D02*
D03*
X403874Y339630D02*
D03*
X372378D02*
D03*
X711726Y274046D02*
D03*
X411748Y335693D02*
D03*
X708938Y267317D02*
D03*
X415685Y331756D02*
D03*
X707435Y263688D02*
D03*
X419622Y327819D02*
D03*
X364504Y323882D02*
D03*
X356630Y402622D02*
D03*
X368441Y335693D02*
D03*
X415685Y327819D02*
D03*
X686000Y263402D02*
D03*
Y259465D02*
D03*
X427496Y319945D02*
D03*
X340882Y323882D02*
D03*
X348777Y402622D02*
D03*
X686000Y268842D02*
D03*
X423559Y327819D02*
D03*
X364504Y319945D02*
D03*
X340882Y339630D02*
D03*
X419622Y410496D02*
D03*
Y319945D02*
D03*
X686000Y255528D02*
D03*
X431433Y316008D02*
D03*
X686000Y251591D02*
D03*
Y272805D02*
D03*
X407811Y335693D02*
D03*
X396000Y351441D02*
D03*
Y375063D02*
D03*
X392063Y347504D02*
D03*
X739541Y138489D02*
D03*
X392063Y363252D02*
D03*
Y371126D02*
D03*
X388126Y359315D02*
D03*
X392063Y355378D02*
D03*
X388126Y351441D02*
D03*
X738479Y133284D02*
D03*
X384189Y371126D02*
D03*
X380252Y367189D02*
D03*
X388126D02*
D03*
X384189Y363252D02*
D03*
X376315Y371126D02*
D03*
X372378Y375063D02*
D03*
X368441Y371126D02*
D03*
X376315Y363252D02*
D03*
X372378Y367189D02*
D03*
X384189Y355378D02*
D03*
X380284Y303561D02*
D03*
X380252Y351441D02*
D03*
X382284Y294611D02*
D03*
Y303561D02*
D03*
X380413Y284161D02*
D03*
X380284Y294611D02*
D03*
X380252Y359315D02*
D03*
X376315Y355378D02*
D03*
X372378Y359315D02*
D03*
X378413Y284161D02*
D03*
X372378Y351441D02*
D03*
X368441Y347504D02*
D03*
X762648Y160428D02*
D03*
X441584Y289672D02*
D03*
X431433Y319945D02*
D03*
X423559D02*
D03*
X411748Y339630D02*
D03*
X396000Y343567D02*
D03*
X399937Y347504D02*
D03*
X396000D02*
D03*
X686000Y286000D02*
D03*
Y289937D02*
D03*
Y293874D02*
D03*
X719512Y292844D02*
D03*
X717675Y288409D02*
D03*
X705053Y257937D02*
D03*
X703422Y254000D02*
D03*
X747823Y140940D02*
D03*
X753728Y168333D02*
D03*
X772915D02*
D03*
X766448Y173615D02*
D03*
X772915Y164833D02*
D03*
X766448Y166915D02*
D03*
X792750Y149502D02*
D03*
X727930Y123661D02*
D03*
X735854Y138505D02*
D03*
X732180Y133284D02*
D03*
X740601Y122435D02*
D03*
X746923Y123661D02*
D03*
X791000Y132677D02*
D03*
X787948Y117431D02*
D03*
X794050Y123927D02*
D03*
X451485Y422216D02*
D03*
Y424216D02*
D03*
X440335Y419315D02*
D03*
Y417314D02*
D03*
X451485Y411618D02*
D03*
X440335Y412615D02*
D03*
Y410614D02*
D03*
X451485Y409618D02*
D03*
X431433Y410496D02*
D03*
X411748Y406559D02*
D03*
X427496Y331756D02*
D03*
X419622Y339630D02*
D03*
X403874Y343567D02*
D03*
X407811Y327819D02*
D03*
X400445Y430671D02*
D03*
X398445D02*
D03*
X400597Y419771D02*
D03*
X398596D02*
D03*
X396000Y406559D02*
D03*
X380252D02*
D03*
X392063Y375063D02*
D03*
X388126Y394748D02*
D03*
X392063Y386874D02*
D03*
X392020Y367189D02*
D03*
X388126Y371126D02*
D03*
X380252D02*
D03*
X376315Y382937D02*
D03*
X384189Y367189D02*
D03*
X376315D02*
D03*
X372378Y402622D02*
D03*
X364504Y406559D02*
D03*
X356630Y394748D02*
D03*
X372378D02*
D03*
X348756Y406559D02*
D03*
X344819Y386874D02*
D03*
X356630Y382937D02*
D03*
X372378Y371126D02*
D03*
X352693D02*
D03*
X336945Y379000D02*
D03*
X392063Y359315D02*
D03*
X388126Y363252D02*
D03*
X384189Y359315D02*
D03*
X388126Y355378D02*
D03*
X380252Y363252D02*
D03*
Y355378D02*
D03*
X392063Y351441D02*
D03*
Y339630D02*
D03*
X392006Y327762D02*
D03*
X376315Y351441D02*
D03*
X384189D02*
D03*
X376315Y359315D02*
D03*
X372378Y363252D02*
D03*
Y355378D02*
D03*
Y347504D02*
D03*
X360567Y343567D02*
D03*
Y363252D02*
D03*
X348756Y355378D02*
D03*
X336945Y363252D02*
D03*
X360567Y331756D02*
D03*
X376315Y327819D02*
D03*
X348756D02*
D03*
X344819Y339630D02*
D03*
X336945Y331756D02*
D03*
X748750Y95750D02*
D03*
X787667Y94000D02*
D03*
X773500Y95750D02*
D03*
X436884Y289672D02*
D03*
X428663Y279721D02*
D03*
X430663D02*
D03*
X434884Y289672D02*
D03*
X419622Y323882D02*
D03*
X415685Y316008D02*
D03*
X431433Y312071D02*
D03*
X419627Y288902D02*
D03*
X417021Y298959D02*
D03*
X415021D02*
D03*
X423530Y312071D02*
D03*
X417626Y288902D02*
D03*
X399937Y316008D02*
D03*
X384189D02*
D03*
X368441D02*
D03*
X352693D02*
D03*
X388984Y303561D02*
D03*
X386984D02*
D03*
X393011Y284161D02*
D03*
X391011D02*
D03*
X386984Y294611D02*
D03*
X388984D02*
D03*
X338152Y301482D02*
D03*
X340152D02*
D03*
X340054Y290582D02*
D03*
X338054D02*
D03*
X333008Y410496D02*
D03*
X324513Y373623D02*
D03*
Y375623D02*
D03*
X313413Y375722D02*
D03*
Y373722D02*
D03*
X336945Y347504D02*
D03*
X324582Y340537D02*
D03*
Y342537D02*
D03*
X333008Y312071D02*
D03*
X323910Y310986D02*
D03*
Y312986D02*
D03*
X314219Y338847D02*
D03*
Y340847D02*
D03*
X313682Y313385D02*
D03*
Y311385D02*
D03*
X352693Y367189D02*
D03*
X348756D02*
D03*
X364504Y363252D02*
D03*
X356630Y371126D02*
D03*
X344819Y359315D02*
D03*
X348756D02*
D03*
X333008Y331756D02*
D03*
X360567Y359315D02*
D03*
X333008Y339630D02*
D03*
X344819Y319945D02*
D03*
X364504Y327819D02*
D03*
X427496Y339630D02*
D03*
X396000Y335693D02*
D03*
X411748Y331756D02*
D03*
X413043Y430671D02*
D03*
X443584Y289672D02*
D03*
X419622Y331756D02*
D03*
X427496Y323882D02*
D03*
X411043Y430671D02*
D03*
X407297Y419771D02*
D03*
X405296D02*
D03*
X403874Y406559D02*
D03*
X388126D02*
D03*
X396000Y390811D02*
D03*
Y398685D02*
D03*
X388126Y386874D02*
D03*
X399937Y343567D02*
D03*
X388126Y335693D02*
D03*
X423559Y316008D02*
D03*
X410321Y298959D02*
D03*
X408321D02*
D03*
X399937Y323882D02*
D03*
X407830Y316122D02*
D03*
X392063Y316008D02*
D03*
X407028Y288902D02*
D03*
X405028D02*
D03*
X372378Y406559D02*
D03*
X380252Y394748D02*
D03*
X372378Y390811D02*
D03*
X364504Y398685D02*
D03*
X356630Y406559D02*
D03*
X348756Y410496D02*
D03*
X352693Y390811D02*
D03*
Y398685D02*
D03*
X344819Y394748D02*
D03*
X368441Y386874D02*
D03*
X360567D02*
D03*
X380252Y375063D02*
D03*
X364504D02*
D03*
X344819Y382937D02*
D03*
X336945Y386874D02*
D03*
X352693Y379000D02*
D03*
X313413Y388320D02*
D03*
X324513Y380323D02*
D03*
X313413Y386320D02*
D03*
X324513Y382324D02*
D03*
X384189Y347504D02*
D03*
X368441Y355378D02*
D03*
X380252Y339630D02*
D03*
X376315Y335693D02*
D03*
X356630Y355378D02*
D03*
X364504Y343567D02*
D03*
X348756Y351441D02*
D03*
X344819Y363252D02*
D03*
X364504Y335693D02*
D03*
X352693Y331756D02*
D03*
X384189Y327819D02*
D03*
X368441Y323882D02*
D03*
X376315Y316008D02*
D03*
X348756Y319945D02*
D03*
X360567Y316008D02*
D03*
X336945Y371126D02*
D03*
X333452Y301482D02*
D03*
X331452D02*
D03*
X325455Y290582D02*
D03*
X327455D02*
D03*
X323910Y319686D02*
D03*
Y317686D02*
D03*
X313682Y325984D02*
D03*
Y323984D02*
D03*
X368441Y363252D02*
D03*
X360567Y367189D02*
D03*
X340882Y406559D02*
D03*
X344819Y351441D02*
D03*
X352693Y359315D02*
D03*
X364504Y351441D02*
D03*
Y359315D02*
D03*
X368441D02*
D03*
X356630Y327819D02*
D03*
X368441Y343567D02*
D03*
Y331756D02*
D03*
X423559Y410496D02*
D03*
X419622Y406559D02*
D03*
X380252Y335693D02*
D03*
X356630Y367189D02*
D03*
X364504D02*
D03*
X368441D02*
D03*
X364504Y382937D02*
D03*
X340882Y319945D02*
D03*
X348756Y331756D02*
D03*
X356630Y363252D02*
D03*
X340882Y359315D02*
D03*
X372378Y319945D02*
D03*
X368441D02*
D03*
X372378Y323882D02*
D03*
X380252Y312071D02*
D03*
Y316008D02*
D03*
X344819Y375063D02*
D03*
X348756Y371126D02*
D03*
X360567D02*
D03*
X356630Y339630D02*
D03*
X348756Y323882D02*
D03*
X344819Y355378D02*
D03*
X364504Y347504D02*
D03*
X368441Y351441D02*
D03*
X333008Y363252D02*
D03*
X340882Y331756D02*
D03*
X356630Y323882D02*
D03*
X372378Y327819D02*
D03*
X380252Y343567D02*
D03*
X364504Y371126D02*
D03*
X348756Y375063D02*
D03*
X360567Y379000D02*
D03*
X364504D02*
D03*
X344819Y327819D02*
D03*
X364504Y355378D02*
D03*
X376315Y331756D02*
D03*
X368441Y327819D02*
D03*
X372378Y331756D02*
D03*
X333008Y323882D02*
D03*
X352693Y355378D02*
D03*
Y375063D02*
D03*
X368441Y379000D02*
D03*
X364504Y386874D02*
D03*
X340882Y363252D02*
D03*
X356630Y410496D02*
D03*
Y359315D02*
D03*
X368441Y375063D02*
D03*
X340882Y398685D02*
D03*
X344819D02*
D03*
X360567D02*
D03*
Y390811D02*
D03*
X372378Y379000D02*
D03*
X333008Y367189D02*
D03*
X352693Y327819D02*
D03*
X372378Y335693D02*
D03*
X352693Y339630D02*
D03*
X348756D02*
D03*
Y335693D02*
D03*
X340882Y390811D02*
D03*
X344819D02*
D03*
X356630Y375063D02*
D03*
X360567Y402622D02*
D03*
Y355378D02*
D03*
X336945Y367189D02*
D03*
X356630Y331756D02*
D03*
X340882Y312071D02*
D03*
X745250Y95750D02*
D03*
X770000D02*
D03*
X744532Y79555D02*
D03*
X769478Y80097D02*
D03*
X741032Y79555D02*
D03*
X765978Y80097D02*
D03*
X738479Y48750D02*
D03*
X758000Y48750D02*
D03*
X787667Y81000D02*
D03*
D171*
X554937Y210032D02*
D03*
Y213969D02*
D03*
X551000D02*
D03*
Y210032D02*
D03*
X547063D02*
D03*
Y213969D02*
D03*
X490937D02*
D03*
X487000D02*
D03*
X483063Y210032D02*
D03*
Y213969D02*
D03*
X487000Y210032D02*
D03*
X490937D02*
D03*
X401937Y209032D02*
D03*
X398000Y212969D02*
D03*
X394063D02*
D03*
X401937D02*
D03*
X394063Y209032D02*
D03*
X398000D02*
D03*
X326937Y214969D02*
D03*
X323000Y211032D02*
D03*
X326937D02*
D03*
X323000Y214969D02*
D03*
X319063D02*
D03*
Y211032D02*
D03*
D172*
X161568Y256006D02*
D03*
Y260337D02*
D03*
Y251675D02*
D03*
X157237Y256006D02*
D03*
Y251675D02*
D03*
Y260337D02*
D03*
X136487Y361604D02*
D03*
X127826D02*
D03*
X145148D02*
D03*
X140818Y357273D02*
D03*
X145148D02*
D03*
X140818Y361604D02*
D03*
X145148Y352942D02*
D03*
X140818Y348612D02*
D03*
X145148D02*
D03*
X140818Y352942D02*
D03*
X136487Y348612D02*
D03*
X132156Y357273D02*
D03*
Y361604D02*
D03*
X136487Y357273D02*
D03*
X127826D02*
D03*
Y352942D02*
D03*
X136487D02*
D03*
X132156Y348612D02*
D03*
Y352942D02*
D03*
X127826Y348612D02*
D03*
X145148Y344281D02*
D03*
X136487D02*
D03*
X140818D02*
D03*
X132156D02*
D03*
X127826D02*
D03*
X152906Y260337D02*
D03*
X148575D02*
D03*
Y256006D02*
D03*
X144245Y260337D02*
D03*
Y256006D02*
D03*
X152906D02*
D03*
X148575Y251675D02*
D03*
X152906D02*
D03*
X144245D02*
D03*
X161568Y247345D02*
D03*
X157237Y243014D02*
D03*
X161568D02*
D03*
X157237Y247345D02*
D03*
X152906Y243014D02*
D03*
Y247345D02*
D03*
X148575Y243014D02*
D03*
Y247345D02*
D03*
X144245D02*
D03*
Y243014D02*
D03*
X49354Y106426D02*
D03*
Y102095D02*
D03*
Y84772D02*
D03*
Y89103D02*
D03*
Y80441D02*
D03*
Y97764D02*
D03*
Y93434D02*
D03*
Y76111D02*
D03*
Y71780D02*
D03*
X45024Y106426D02*
D03*
X40693Y102095D02*
D03*
X45024D02*
D03*
X40693Y106426D02*
D03*
X45024Y97764D02*
D03*
X40693Y93434D02*
D03*
X45024D02*
D03*
X40693Y97764D02*
D03*
X45024Y84772D02*
D03*
Y89103D02*
D03*
X40693Y80441D02*
D03*
Y84772D02*
D03*
X45024Y76111D02*
D03*
Y80441D02*
D03*
Y71780D02*
D03*
X40693Y76111D02*
D03*
Y71780D02*
D03*
Y89103D02*
D03*
X62260Y352584D02*
D03*
X66591D02*
D03*
X62260Y348253D02*
D03*
X66591D02*
D03*
X205287Y420491D02*
D03*
X209618D02*
D03*
X213948D02*
D03*
X218279D02*
D03*
X222610D02*
D03*
X205287Y416160D02*
D03*
X209618D02*
D03*
X213948D02*
D03*
X218279D02*
D03*
X222610D02*
D03*
X205287Y411829D02*
D03*
X209618D02*
D03*
X213948D02*
D03*
X218279D02*
D03*
X222610D02*
D03*
X205287Y407499D02*
D03*
X209618D02*
D03*
X213948D02*
D03*
X218279D02*
D03*
X222610D02*
D03*
X205287Y403168D02*
D03*
X209618D02*
D03*
X213948D02*
D03*
X218279D02*
D03*
X222610D02*
D03*
D173*
X121937Y176437D02*
D03*
X118000D02*
D03*
Y172500D02*
D03*
X114063Y176437D02*
D03*
Y172500D02*
D03*
X121937D02*
D03*
Y168563D02*
D03*
X114063D02*
D03*
X118000D02*
D03*
D174*
X46937Y172937D02*
D03*
X43000D02*
D03*
X46937Y169000D02*
D03*
X43000Y165063D02*
D03*
X46937D02*
D03*
X43000Y169000D02*
D03*
X39063D02*
D03*
Y165063D02*
D03*
Y172937D02*
D03*
D244*
X310478Y352336D02*
D03*
X455205Y423225D02*
D03*
Y410627D02*
D03*
X309694Y374713D02*
D03*
X310478Y339738D02*
D03*
X309941Y312276D02*
D03*
X309694Y387311D02*
D03*
X309941Y324874D02*
D03*
D245*
X379422Y280441D02*
D03*
X399436Y434390D02*
D03*
X429572Y276024D02*
D03*
X418636Y285183D02*
D03*
X392020Y280441D02*
D03*
X339063Y286862D02*
D03*
X412034Y434390D02*
D03*
X442170Y276024D02*
D03*
X406037Y285183D02*
D03*
X326464Y286862D02*
D03*
X690299Y39248D02*
D03*
X677701D02*
D03*
M02*
