G04*
G04 #@! TF.GenerationSoftware,Altium Limited,Altium Designer,26.2.0 (7)*
G04*
G04 Layer_Color=32896*
%FSLAX25Y25*%
%MOIN*%
G70*
G04*
G04 #@! TF.SameCoordinates,B4A42267-10C6-43D6-8E6F-C0A9A178EC5E*
G04*
G04*
G04 #@! TF.FilePolarity,Positive*
G04*
G01*
G75*
%ADD12C,0.01000*%
%ADD14C,0.00500*%
%ADD19C,0.00787*%
%ADD21C,0.00787*%
%ADD26C,0.00700*%
D12*
X342314Y296062D02*
Y303662D01*
X329214Y296062D02*
X342314D01*
X329214D02*
Y303662D01*
X342314D01*
X396435Y417590D02*
Y425190D01*
X409535D01*
Y417590D02*
Y425190D01*
X396435Y417590D02*
X409535D01*
X445755Y408376D02*
Y421476D01*
X438155D02*
X445755D01*
X438155Y408376D02*
Y421476D01*
Y408376D02*
X445755D01*
X318491Y308825D02*
X326091D01*
X318491D02*
Y321925D01*
X326091D01*
Y308825D02*
Y321925D01*
X326763Y338376D02*
Y351476D01*
X319163D02*
X326763D01*
X319163Y338376D02*
Y351476D01*
Y338376D02*
X326763D01*
X319093Y371462D02*
X326694D01*
X319093D02*
Y384562D01*
X326694D01*
Y371462D02*
Y384562D01*
X378046Y296791D02*
X391145D01*
X378046Y289191D02*
Y296791D01*
Y289191D02*
X391145D01*
Y296791D01*
X378046Y305741D02*
X391145D01*
X378046Y298141D02*
Y305741D01*
Y298141D02*
X391145D01*
Y305741D01*
X406083Y301140D02*
X419183D01*
X406083Y293540D02*
Y301140D01*
Y293540D02*
X419183D01*
Y301140D01*
X432645Y294159D02*
X445745D01*
Y301759D01*
X432645D02*
X445745D01*
X432645Y294159D02*
Y301759D01*
Y284253D02*
X445745D01*
Y291853D01*
X432645D02*
X445745D01*
X432645Y284253D02*
Y291853D01*
X256578Y415061D02*
Y422661D01*
X243478Y415061D02*
X256578D01*
X243478D02*
Y422661D01*
X256578D01*
X234202Y445712D02*
X241802D01*
Y432612D02*
Y445712D01*
X234202Y432612D02*
X241802D01*
X234202D02*
Y445712D01*
X168351Y412066D02*
Y419666D01*
X181451D01*
Y412066D02*
Y419666D01*
X168351Y412066D02*
X181451D01*
X260678Y388061D02*
Y395661D01*
X247578Y388061D02*
X260678D01*
X247578D02*
Y395661D01*
X260678D01*
X260152Y397061D02*
Y404661D01*
X247052Y397061D02*
X260152D01*
X247052D02*
Y404661D01*
X260152D01*
X257061Y406061D02*
Y413661D01*
X243961Y406061D02*
X257061D01*
X243961D02*
Y413661D01*
X257061D01*
X168588Y421066D02*
Y428666D01*
X181688D01*
Y421066D02*
Y428666D01*
X168588Y421066D02*
X181688D01*
D14*
X488351Y358735D02*
X491351D01*
X488351D02*
Y365235D01*
X491351D01*
Y358735D02*
Y365235D01*
X488351Y349188D02*
X491351D01*
X488351D02*
Y355688D01*
X491351D01*
Y349188D02*
Y355688D01*
X488351Y393868D02*
X491351D01*
X488351D02*
Y400368D01*
X491351D01*
Y393868D02*
Y400368D01*
X543249Y366607D02*
Y373107D01*
X540249D02*
X543249D01*
X540249Y366607D02*
Y373107D01*
Y366607D02*
X543249D01*
X540249Y393836D02*
X543249D01*
X540249D02*
Y400336D01*
X543249D01*
Y393836D02*
Y400336D01*
X540249Y379306D02*
X543249D01*
X540249D02*
Y385806D01*
X543249D01*
Y379306D02*
Y385806D01*
X540249Y348594D02*
X543249D01*
X540249D02*
Y355094D01*
X543249D01*
Y348594D02*
Y355094D01*
X488351Y379267D02*
X491351D01*
X488351D02*
Y385767D01*
X491351D01*
Y379267D02*
Y385767D01*
X488351Y370931D02*
X491351D01*
X488351D02*
Y377431D01*
X491351D01*
Y370931D02*
Y377431D01*
X353507Y314450D02*
X360007D01*
Y317450D01*
X353507D02*
X360007D01*
X353507Y314450D02*
Y317450D01*
X355013Y382501D02*
X358013D01*
Y376001D02*
Y382501D01*
X355013Y376001D02*
X358013D01*
X355013D02*
Y382501D01*
X375093Y364751D02*
X381593D01*
X375093Y361751D02*
Y364751D01*
Y361751D02*
X381593D01*
Y364751D01*
X386626Y372374D02*
X389626D01*
Y365874D02*
Y372374D01*
X386626Y365874D02*
X389626D01*
X386626D02*
Y372374D01*
X416375Y314451D02*
X422875D01*
Y317451D01*
X416375D02*
X422875D01*
X416375Y314451D02*
Y317451D01*
X764478Y78597D02*
Y81597D01*
X770978D01*
Y78597D02*
Y81597D01*
X764478Y78597D02*
X770978D01*
X400673Y314612D02*
Y317612D01*
X407173D01*
Y314612D02*
Y317612D01*
X400673Y314612D02*
X407173D01*
X404704Y408018D02*
X411203D01*
X404704Y405018D02*
Y408018D01*
Y405018D02*
X411203D01*
Y408018D01*
X381042Y405171D02*
Y408171D01*
X387542D01*
Y405171D02*
Y408171D01*
X381042Y405171D02*
X387542D01*
X349523Y405018D02*
Y408018D01*
X356023D01*
Y405018D02*
Y408018D01*
X349523Y405018D02*
X356023D01*
X388577Y340944D02*
X391577D01*
Y334444D02*
Y340944D01*
X388577Y334444D02*
X391577D01*
X388577D02*
Y340944D01*
X359268Y342010D02*
Y345010D01*
X365768D01*
Y342010D02*
Y345010D01*
X359268Y342010D02*
X365768D01*
X391279Y326283D02*
Y329283D01*
X384779Y326283D02*
X391279D01*
X384779D02*
Y329283D01*
X391279D01*
X337396Y376377D02*
X340396D01*
Y369877D02*
Y376377D01*
X337396Y369877D02*
X340396D01*
X337396D02*
Y376377D01*
X369169Y314411D02*
Y317411D01*
X375669D01*
Y314411D02*
Y317411D01*
X369169Y314411D02*
X375669D01*
X404609Y397234D02*
X411109D01*
Y400234D01*
X404609D02*
X411109D01*
X404609Y397234D02*
Y400234D01*
X408204Y381688D02*
Y388188D01*
Y381688D02*
X411203D01*
Y388188D01*
X408204D02*
X411203D01*
X408529Y372559D02*
X415029D01*
X408529Y369559D02*
Y372559D01*
Y369559D02*
X415029D01*
Y372559D01*
X364018Y330439D02*
Y336939D01*
X361018D02*
X364018D01*
X361018Y330439D02*
Y336939D01*
Y330439D02*
X364018D01*
X405138Y342067D02*
Y345067D01*
X398638Y342067D02*
X405138D01*
X398638D02*
Y345067D01*
X405138D01*
X338502Y332443D02*
Y338943D01*
X335502D02*
X338502D01*
X335502Y332443D02*
Y338943D01*
Y332443D02*
X338502D01*
X343376Y339069D02*
X346376D01*
Y332569D02*
Y339069D01*
X343376Y332569D02*
X346376D01*
X343376D02*
Y339069D01*
X340396Y377751D02*
Y384251D01*
X337396D02*
X340396D01*
X337396Y377751D02*
Y384251D01*
Y377751D02*
X340396D01*
X382890Y349967D02*
Y352967D01*
X389390D01*
Y349967D02*
Y352967D01*
X382890Y349967D02*
X389390D01*
X377579Y357700D02*
Y360700D01*
X371079Y357700D02*
X377579D01*
X371079D02*
Y360700D01*
X377579D01*
X384895Y314451D02*
X391395D01*
Y317450D01*
X384895D02*
X391395D01*
X384895Y314451D02*
Y317450D01*
X418125Y338943D02*
X421125D01*
Y332443D02*
Y338943D01*
X418125Y332443D02*
X421125D01*
X418125D02*
Y338943D01*
X595862Y9248D02*
X608862D01*
X595862Y22248D02*
X608862D01*
Y9248D02*
Y22248D01*
X595862Y9248D02*
Y22248D01*
X731689Y442319D02*
X744689D01*
X731689Y455319D02*
X744689D01*
Y442319D02*
Y455319D01*
X731689Y442319D02*
Y455319D01*
X56492Y442319D02*
X69492D01*
X56492Y455319D02*
X69492D01*
Y442319D02*
Y455319D01*
X56492Y442319D02*
Y455319D01*
X750250Y94250D02*
Y97250D01*
X743750Y94250D02*
X750250D01*
X743750D02*
Y97250D01*
X750250D01*
X775000Y94250D02*
Y97250D01*
X768500Y94250D02*
X775000D01*
X768500D02*
Y97250D01*
X775000D01*
X739532Y78055D02*
X746032D01*
Y81055D01*
X739532D02*
X746032D01*
X739532Y78055D02*
Y81055D01*
X756500Y43750D02*
Y50250D01*
Y43750D02*
X759500D01*
Y50250D01*
X756500D02*
X759500D01*
X736979Y43750D02*
Y50250D01*
Y43750D02*
X739979D01*
Y50250D01*
X736979D02*
X739979D01*
X770726Y83267D02*
Y86266D01*
X769227D01*
X768727Y85766D01*
Y84766D01*
X769227Y84266D01*
X770726D01*
X769727D02*
X768727Y83267D01*
X767727Y85766D02*
X767227Y86266D01*
X766228D01*
X765728Y85766D01*
Y85266D01*
X766228Y84766D01*
X766727D01*
X766228D01*
X765728Y84266D01*
Y83766D01*
X766228Y83267D01*
X767227D01*
X767727Y83766D01*
X762729Y86266D02*
X763729Y85766D01*
X764728Y84766D01*
Y83766D01*
X764228Y83267D01*
X763229D01*
X762729Y83766D01*
Y84266D01*
X763229Y84766D01*
X764728D01*
X748248Y101750D02*
X748748Y102250D01*
X749748D01*
X750248Y101750D01*
Y99751D01*
X749748Y99251D01*
X748748D01*
X748248Y99751D01*
X747249Y99251D02*
X746249D01*
X746749D01*
Y102250D01*
X747249Y101750D01*
X742750Y99251D02*
X744750D01*
X742750Y101250D01*
Y101750D01*
X743250Y102250D01*
X744250D01*
X744750Y101750D01*
X741751Y99751D02*
X741251Y99251D01*
X740251D01*
X739751Y99751D01*
Y101750D01*
X740251Y102250D01*
X741251D01*
X741751Y101750D01*
Y101250D01*
X741251Y100750D01*
X739751D01*
X773436Y101351D02*
X773936Y101851D01*
X774936D01*
X775436Y101351D01*
Y99352D01*
X774936Y98852D01*
X773936D01*
X773436Y99352D01*
X772437Y98852D02*
X771437D01*
X771937D01*
Y101851D01*
X772437Y101351D01*
X769938D02*
X769438Y101851D01*
X768438D01*
X767938Y101351D01*
Y100852D01*
X768438Y100352D01*
X768938D01*
X768438D01*
X767938Y99852D01*
Y99352D01*
X768438Y98852D01*
X769438D01*
X769938Y99352D01*
X766938Y101351D02*
X766439Y101851D01*
X765439D01*
X764939Y101351D01*
Y99352D01*
X765439Y98852D01*
X766439D01*
X766938Y99352D01*
Y101351D01*
X746781Y83056D02*
Y86055D01*
X745281D01*
X744781Y85555D01*
Y84555D01*
X745281Y84055D01*
X746781D01*
X745781D02*
X744781Y83056D01*
X743782Y85555D02*
X743282Y86055D01*
X742282D01*
X741782Y85555D01*
Y85055D01*
X742282Y84555D01*
X742782D01*
X742282D01*
X741782Y84055D01*
Y83555D01*
X742282Y83056D01*
X743282D01*
X743782Y83555D01*
X740783Y86055D02*
X738783D01*
Y85555D01*
X740783Y83555D01*
Y83056D01*
X752729Y44002D02*
X755728D01*
Y45501D01*
X755229Y46001D01*
X754229D01*
X753729Y45501D01*
Y44002D01*
Y45002D02*
X752729Y46001D01*
X755229Y47001D02*
X755728Y47501D01*
Y48500D01*
X755229Y49000D01*
X754729D01*
X754229Y48500D01*
Y48000D01*
Y48500D01*
X753729Y49000D01*
X753229D01*
X752729Y48500D01*
Y47501D01*
X753229Y47001D01*
X755229Y50000D02*
X755728Y50500D01*
Y51499D01*
X755229Y51999D01*
X754729D01*
X754229Y51499D01*
X753729Y51999D01*
X753229D01*
X752729Y51499D01*
Y50500D01*
X753229Y50000D01*
X753729D01*
X754229Y50500D01*
X754729Y50000D01*
X755229D01*
X754229Y50500D02*
Y51499D01*
X732980Y44001D02*
X735979D01*
Y45501D01*
X735479Y46001D01*
X734479D01*
X733979Y45501D01*
Y44001D01*
Y45001D02*
X732980Y46001D01*
X735479Y47001D02*
X735979Y47500D01*
Y48500D01*
X735479Y49000D01*
X734979D01*
X734479Y48500D01*
Y48000D01*
Y48500D01*
X733979Y49000D01*
X733480D01*
X732980Y48500D01*
Y47500D01*
X733480Y47001D01*
Y50000D02*
X732980Y50499D01*
Y51499D01*
X733480Y51999D01*
X735479D01*
X735979Y51499D01*
Y50499D01*
X735479Y50000D01*
X734979D01*
X734479Y50499D01*
Y51999D01*
D19*
X322764Y293862D02*
X342764D01*
X322764Y279862D02*
Y293862D01*
Y279862D02*
X342764D01*
Y293862D01*
X395735Y427390D02*
Y441390D01*
X415735D01*
Y427390D02*
Y441390D01*
X395735Y427390D02*
X415735D01*
X448205Y406926D02*
X462205D01*
X448205D02*
Y426926D01*
X462205D01*
Y406926D02*
Y426926D01*
X316941Y308575D02*
Y328575D01*
X302941D02*
X316941D01*
X302941Y308575D02*
Y328575D01*
Y308575D02*
X316941D01*
X303478Y336037D02*
X317478D01*
X303478D02*
Y356037D01*
X317478D01*
Y336037D02*
Y356037D01*
X302694Y371012D02*
X316693D01*
X302694D02*
Y391012D01*
X316693D01*
Y371012D02*
Y391012D01*
X395721Y273441D02*
Y287441D01*
X375721Y273441D02*
X395721D01*
X375721D02*
Y287441D01*
X395721D01*
X422336Y278183D02*
Y292183D01*
X402336Y278183D02*
X422336D01*
X402336D02*
Y292183D01*
X422336D01*
X425871Y269024D02*
Y283024D01*
X445871D01*
Y269024D02*
Y283024D01*
X425871Y269024D02*
X445871D01*
X674000Y46248D02*
X694000D01*
X674000Y32248D02*
Y46248D01*
Y32248D02*
X694000D01*
Y46248D01*
D21*
X653000Y15248D02*
Y29248D01*
X673000D01*
Y15248D02*
Y29248D01*
X653000Y15248D02*
X673000D01*
D26*
X485307Y365188D02*
X484890Y365605D01*
Y366438D01*
X485307Y366855D01*
X486973D01*
X487389Y366438D01*
Y365605D01*
X486973Y365188D01*
X487389Y364355D02*
Y363522D01*
Y363939D01*
X484890D01*
X485307Y364355D01*
Y362273D02*
X484890Y361856D01*
Y361023D01*
X485307Y360607D01*
X485723D01*
X486139Y361023D01*
Y361440D01*
Y361023D01*
X486556Y360607D01*
X486973D01*
X487389Y361023D01*
Y361856D01*
X486973Y362273D01*
X485307Y359773D02*
X484890Y359357D01*
Y358524D01*
X485307Y358107D01*
X485723D01*
X486139Y358524D01*
X486556Y358107D01*
X486973D01*
X487389Y358524D01*
Y359357D01*
X486973Y359773D01*
X486556D01*
X486139Y359357D01*
X485723Y359773D01*
X485307D01*
X486139Y359357D02*
Y358524D01*
X485307Y355153D02*
X484890Y355569D01*
Y356402D01*
X485307Y356819D01*
X486973D01*
X487389Y356402D01*
Y355569D01*
X486973Y355153D01*
X487389Y354319D02*
Y353486D01*
Y353903D01*
X484890D01*
X485307Y354319D01*
Y352237D02*
X484890Y351820D01*
Y350987D01*
X485307Y350571D01*
X485723D01*
X486139Y350987D01*
Y351404D01*
Y350987D01*
X486556Y350571D01*
X486973D01*
X487389Y350987D01*
Y351820D01*
X486973Y352237D01*
Y349738D02*
X487389Y349321D01*
Y348488D01*
X486973Y348072D01*
X485307D01*
X484890Y348488D01*
Y349321D01*
X485307Y349738D01*
X485723D01*
X486139Y349321D01*
Y348072D01*
X486973Y394368D02*
X487389Y393951D01*
Y393118D01*
X486973Y392702D01*
X485307D01*
X484890Y393118D01*
Y393951D01*
X485307Y394368D01*
X484890Y395201D02*
Y396034D01*
Y395617D01*
X487389D01*
X486973Y395201D01*
X484890Y398533D02*
X487389D01*
X486140Y397284D01*
Y398950D01*
X486973Y399783D02*
X487389Y400199D01*
Y401032D01*
X486973Y401449D01*
X485307D01*
X484890Y401032D01*
Y400199D01*
X485307Y399783D01*
X486973D01*
X546973Y367438D02*
X547389Y367021D01*
Y366188D01*
X546973Y365772D01*
X545306D01*
X544890Y366188D01*
Y367021D01*
X545306Y367438D01*
X544890Y368271D02*
Y369104D01*
Y368687D01*
X547389D01*
X546973Y368271D01*
X544890Y371603D02*
X547389D01*
X546140Y370354D01*
Y372020D01*
X547389Y372853D02*
Y374519D01*
X546973D01*
X545306Y372853D01*
X544890D01*
X542482Y403471D02*
X542898Y403054D01*
Y402221D01*
X542482Y401805D01*
X540816D01*
X540399Y402221D01*
Y403054D01*
X540816Y403471D01*
X540399Y404304D02*
Y405137D01*
Y404720D01*
X542898D01*
X542482Y404304D01*
X540399Y407636D02*
X542898D01*
X541649Y406386D01*
Y408053D01*
X540816Y408886D02*
X540399Y409302D01*
Y410135D01*
X540816Y410552D01*
X542482D01*
X542898Y410135D01*
Y409302D01*
X542482Y408886D01*
X542065D01*
X541649Y409302D01*
Y410552D01*
X546973Y380079D02*
X547389Y379662D01*
Y378829D01*
X546973Y378413D01*
X545306D01*
X544890Y378829D01*
Y379662D01*
X545306Y380079D01*
X544890Y380912D02*
Y381745D01*
Y381328D01*
X547389D01*
X546973Y380912D01*
X547389Y384661D02*
Y382995D01*
X546140D01*
X546556Y383827D01*
Y384244D01*
X546140Y384661D01*
X545306D01*
X544890Y384244D01*
Y383411D01*
X545306Y382995D01*
X546973Y385494D02*
X547389Y385910D01*
Y386743D01*
X546973Y387160D01*
X545306D01*
X544890Y386743D01*
Y385910D01*
X545306Y385494D01*
X546973D01*
Y349760D02*
X547389Y349344D01*
Y348511D01*
X546973Y348094D01*
X545306D01*
X544890Y348511D01*
Y349344D01*
X545306Y349760D01*
X544890Y350593D02*
Y351426D01*
Y351010D01*
X547389D01*
X546973Y350593D01*
X547389Y354342D02*
Y352676D01*
X546140D01*
X546556Y353509D01*
Y353926D01*
X546140Y354342D01*
X545306D01*
X544890Y353926D01*
Y353093D01*
X545306Y352676D01*
X544890Y355175D02*
Y356008D01*
Y355592D01*
X547389D01*
X546973Y355175D01*
X486973Y380060D02*
X487389Y379643D01*
Y378810D01*
X486973Y378394D01*
X485307D01*
X484890Y378810D01*
Y379643D01*
X485307Y380060D01*
X484890Y380893D02*
Y381726D01*
Y381310D01*
X487389D01*
X486973Y380893D01*
X487389Y384642D02*
Y382976D01*
X486140D01*
X486556Y383809D01*
Y384225D01*
X486140Y384642D01*
X485307D01*
X484890Y384225D01*
Y383392D01*
X485307Y382976D01*
X484890Y387141D02*
Y385475D01*
X486556Y387141D01*
X486973D01*
X487389Y386724D01*
Y385891D01*
X486973Y385475D01*
Y369973D02*
X487389Y369557D01*
Y368724D01*
X486973Y368307D01*
X485307D01*
X484890Y368724D01*
Y369557D01*
X485307Y369973D01*
X484890Y370807D02*
Y371640D01*
Y371223D01*
X487389D01*
X486973Y370807D01*
X487389Y374555D02*
Y372889D01*
X486140D01*
X486556Y373722D01*
Y374139D01*
X486140Y374555D01*
X485307D01*
X484890Y374139D01*
Y373306D01*
X485307Y372889D01*
X486973Y375388D02*
X487389Y375805D01*
Y376638D01*
X486973Y377055D01*
X486556D01*
X486140Y376638D01*
Y376221D01*
Y376638D01*
X485723Y377055D01*
X485307D01*
X484890Y376638D01*
Y375805D01*
X485307Y375388D01*
X358173Y320495D02*
X358590Y320911D01*
X359423D01*
X359839Y320495D01*
Y318828D01*
X359423Y318412D01*
X358590D01*
X358173Y318828D01*
X357340D02*
X356924Y318412D01*
X356091D01*
X355674Y318828D01*
Y320495D01*
X356091Y320911D01*
X356924D01*
X357340Y320495D01*
Y320078D01*
X356924Y319661D01*
X355674D01*
X354841Y320495D02*
X354425Y320911D01*
X353591D01*
X353175Y320495D01*
Y320078D01*
X353591Y319661D01*
X354008D01*
X353591D01*
X353175Y319245D01*
Y318828D01*
X353591Y318412D01*
X354425D01*
X354841Y318828D01*
X357346Y369585D02*
X357762Y369168D01*
Y368335D01*
X357346Y367919D01*
X355680D01*
X355263Y368335D01*
Y369168D01*
X355680Y369585D01*
X357762Y372084D02*
X357346Y371251D01*
X356513Y370418D01*
X355680D01*
X355263Y370835D01*
Y371668D01*
X355680Y372084D01*
X356096D01*
X356513Y371668D01*
Y370418D01*
X357762Y374583D02*
X357346Y373750D01*
X356513Y372917D01*
X355680D01*
X355263Y373334D01*
Y374167D01*
X355680Y374583D01*
X356096D01*
X356513Y374167D01*
Y372917D01*
X371640Y364121D02*
X372056Y364538D01*
X372889D01*
X373306Y364121D01*
Y362455D01*
X372889Y362038D01*
X372056D01*
X371640Y362455D01*
X370807Y364121D02*
X370390Y364538D01*
X369557D01*
X369141Y364121D01*
Y363704D01*
X369557Y363288D01*
X369141Y362872D01*
Y362455D01*
X369557Y362038D01*
X370390D01*
X370807Y362455D01*
Y362872D01*
X370390Y363288D01*
X370807Y363704D01*
Y364121D01*
X370390Y363288D02*
X369557D01*
X368307Y364121D02*
X367891Y364538D01*
X367058D01*
X366641Y364121D01*
Y362455D01*
X367058Y362038D01*
X367891D01*
X368307Y362455D01*
Y364121D01*
X387203Y362808D02*
X386787Y363225D01*
Y364058D01*
X387203Y364475D01*
X388869D01*
X389286Y364058D01*
Y363225D01*
X388869Y362808D01*
X387203Y361975D02*
X386787Y361559D01*
Y360726D01*
X387203Y360309D01*
X387620D01*
X388036Y360726D01*
X388453Y360309D01*
X388869D01*
X389286Y360726D01*
Y361559D01*
X388869Y361975D01*
X388453D01*
X388036Y361559D01*
X387620Y361975D01*
X387203D01*
X388036Y361559D02*
Y360726D01*
X387203Y359476D02*
X386787Y359060D01*
Y358227D01*
X387203Y357810D01*
X387620D01*
X388036Y358227D01*
Y358643D01*
Y358227D01*
X388453Y357810D01*
X388869D01*
X389286Y358227D01*
Y359060D01*
X388869Y359476D01*
X421355Y320495D02*
X421771Y320911D01*
X422605D01*
X423021Y320495D01*
Y318829D01*
X422605Y318412D01*
X421771D01*
X421355Y318829D01*
X418856Y320911D02*
X420522D01*
Y319662D01*
X419689Y320078D01*
X419272D01*
X418856Y319662D01*
Y318829D01*
X419272Y318412D01*
X420105D01*
X420522Y318829D01*
X418023Y320495D02*
X417606Y320911D01*
X416773D01*
X416357Y320495D01*
Y320078D01*
X416773Y319662D01*
X416357Y319245D01*
Y318829D01*
X416773Y318412D01*
X417606D01*
X418023Y318829D01*
Y319245D01*
X417606Y319662D01*
X418023Y320078D01*
Y320495D01*
X417606Y319662D02*
X416773D01*
X417979Y311568D02*
X417562Y311152D01*
X416729D01*
X416312Y311568D01*
Y313234D01*
X416729Y313651D01*
X417562D01*
X417979Y313234D01*
X418812D02*
X419228Y313651D01*
X420061D01*
X420478Y313234D01*
Y311568D01*
X420061Y311152D01*
X419228D01*
X418812Y311568D01*
Y311985D01*
X419228Y312401D01*
X420478D01*
X421311Y313651D02*
X422144D01*
X421727D01*
Y311152D01*
X421311Y311568D01*
X414087Y405685D02*
X413670Y405268D01*
X412837D01*
X412421Y405685D01*
Y407351D01*
X412837Y407768D01*
X413670D01*
X414087Y407351D01*
X414920D02*
X415336Y407768D01*
X416170D01*
X416586Y407351D01*
Y405685D01*
X416170Y405268D01*
X415336D01*
X414920Y405685D01*
Y406102D01*
X415336Y406518D01*
X416586D01*
X417419Y405685D02*
X417836Y405268D01*
X418669D01*
X419085Y405685D01*
Y407351D01*
X418669Y407768D01*
X417836D01*
X417419Y407351D01*
Y405685D01*
X377795Y407541D02*
X378211Y407958D01*
X379044D01*
X379461Y407541D01*
Y405875D01*
X379044Y405459D01*
X378211D01*
X377795Y405875D01*
X376961Y407541D02*
X376545Y407958D01*
X375712D01*
X375295Y407541D01*
Y407125D01*
X375712Y406708D01*
X375295Y406292D01*
Y405875D01*
X375712Y405459D01*
X376545D01*
X376961Y405875D01*
Y406292D01*
X376545Y406708D01*
X376961Y407125D01*
Y407541D01*
X376545Y406708D02*
X375712D01*
X374462Y405875D02*
X374046Y405459D01*
X373213D01*
X372796Y405875D01*
Y407541D01*
X373213Y407958D01*
X374046D01*
X374462Y407541D01*
Y407125D01*
X374046Y406708D01*
X372796D01*
X346447Y407260D02*
X346863Y407677D01*
X347696D01*
X348113Y407260D01*
Y405594D01*
X347696Y405178D01*
X346863D01*
X346447Y405594D01*
X345614Y407677D02*
X343948D01*
Y407260D01*
X345614Y405594D01*
Y405178D01*
X341448Y407677D02*
X342281Y407260D01*
X343114Y406427D01*
Y405594D01*
X342698Y405178D01*
X341865D01*
X341448Y405594D01*
Y406011D01*
X341865Y406427D01*
X343114D01*
X318360Y292717D02*
X318776Y293134D01*
X319609D01*
X320026Y292717D01*
Y291051D01*
X319609Y290635D01*
X318776D01*
X318360Y291051D01*
X316277Y290635D02*
Y293134D01*
X317527Y291884D01*
X315860D01*
X315027Y291051D02*
X314611Y290635D01*
X313778D01*
X313361Y291051D01*
Y292717D01*
X313778Y293134D01*
X314611D01*
X315027Y292717D01*
Y292301D01*
X314611Y291884D01*
X313361D01*
X325629Y302759D02*
X326045Y303176D01*
X326878D01*
X327295Y302759D01*
Y301093D01*
X326878Y300676D01*
X326045D01*
X325629Y301093D01*
X323130Y303176D02*
X324796D01*
Y301926D01*
X323963Y302343D01*
X323546D01*
X323130Y301926D01*
Y301093D01*
X323546Y300676D01*
X324379D01*
X324796Y301093D01*
X322297Y302759D02*
X321880Y303176D01*
X321047D01*
X320630Y302759D01*
Y301093D01*
X321047Y300676D01*
X321880D01*
X322297Y301093D01*
Y302759D01*
X390852Y344251D02*
X391269Y343835D01*
Y343002D01*
X390852Y342585D01*
X389186D01*
X388770Y343002D01*
Y343835D01*
X389186Y344251D01*
X391269Y346751D02*
Y345085D01*
X390019D01*
X390436Y345918D01*
Y346334D01*
X390019Y346751D01*
X389186D01*
X388770Y346334D01*
Y345501D01*
X389186Y345085D01*
X388770Y347584D02*
Y348417D01*
Y348000D01*
X391269D01*
X390852Y347584D01*
X363979Y348595D02*
X364395Y349012D01*
X365228D01*
X365645Y348595D01*
Y346929D01*
X365228Y346513D01*
X364395D01*
X363979Y346929D01*
X361479Y349012D02*
X363145D01*
Y347762D01*
X362312Y348179D01*
X361896D01*
X361479Y347762D01*
Y346929D01*
X361896Y346513D01*
X362729D01*
X363145Y346929D01*
X358980Y346513D02*
X360646D01*
X358980Y348179D01*
Y348595D01*
X359397Y349012D01*
X360230D01*
X360646Y348595D01*
X381695Y328616D02*
X382112Y329033D01*
X382945D01*
X383361Y328616D01*
Y326950D01*
X382945Y326534D01*
X382112D01*
X381695Y326950D01*
X379196Y329033D02*
X380862D01*
Y327783D01*
X380029Y328200D01*
X379613D01*
X379196Y327783D01*
Y326950D01*
X379613Y326534D01*
X380446D01*
X380862Y326950D01*
X378363Y328616D02*
X377946Y329033D01*
X377113D01*
X376697Y328616D01*
Y328200D01*
X377113Y327783D01*
X377530D01*
X377113D01*
X376697Y327367D01*
Y326950D01*
X377113Y326534D01*
X377946D01*
X378363Y326950D01*
X413797Y446609D02*
X414213Y447025D01*
X415046D01*
X415463Y446609D01*
Y444943D01*
X415046Y444526D01*
X414213D01*
X413797Y444943D01*
X411297Y447025D02*
X412963D01*
Y445776D01*
X412130Y446192D01*
X411714D01*
X411297Y445776D01*
Y444943D01*
X411714Y444526D01*
X412547D01*
X412963Y444943D01*
X409215Y444526D02*
Y447025D01*
X410464Y445776D01*
X408798D01*
X417129Y424327D02*
X417545Y424744D01*
X418378D01*
X418795Y424327D01*
Y422661D01*
X418378Y422245D01*
X417545D01*
X417129Y422661D01*
X414630Y424744D02*
X416296D01*
Y423494D01*
X415463Y423911D01*
X415046D01*
X414630Y423494D01*
Y422661D01*
X415046Y422245D01*
X415879D01*
X416296Y422661D01*
X412130Y424744D02*
X413797D01*
Y423494D01*
X412963Y423911D01*
X412547D01*
X412130Y423494D01*
Y422661D01*
X412547Y422245D01*
X413380D01*
X413797Y422661D01*
X339729Y363461D02*
X340146Y363045D01*
Y362211D01*
X339729Y361795D01*
X338063D01*
X337646Y362211D01*
Y363045D01*
X338063Y363461D01*
X340146Y365960D02*
Y364294D01*
X338896D01*
X339313Y365127D01*
Y365544D01*
X338896Y365960D01*
X338063D01*
X337646Y365544D01*
Y364711D01*
X338063Y364294D01*
X340146Y368459D02*
X339729Y367626D01*
X338896Y366793D01*
X338063D01*
X337646Y367210D01*
Y368043D01*
X338063Y368459D01*
X338479D01*
X338896Y368043D01*
Y366793D01*
X373809Y320455D02*
X374225Y320872D01*
X375059D01*
X375475Y320455D01*
Y318789D01*
X375059Y318373D01*
X374225D01*
X373809Y318789D01*
X371310Y320872D02*
X372976D01*
Y319622D01*
X372143Y320039D01*
X371726D01*
X371310Y319622D01*
Y318789D01*
X371726Y318373D01*
X372559D01*
X372976Y318789D01*
X370477Y320872D02*
X368811D01*
Y320455D01*
X370477Y318789D01*
Y318373D01*
X460288Y431327D02*
X460705Y431743D01*
X461538D01*
X461954Y431327D01*
Y429661D01*
X461538Y429244D01*
X460705D01*
X460288Y429661D01*
X457789Y431743D02*
X459455D01*
Y430494D01*
X458622Y430910D01*
X458206D01*
X457789Y430494D01*
Y429661D01*
X458206Y429244D01*
X459039D01*
X459455Y429661D01*
X456956D02*
X456539Y429244D01*
X455707D01*
X455290Y429661D01*
Y431327D01*
X455707Y431743D01*
X456539D01*
X456956Y431327D01*
Y430910D01*
X456539Y430494D01*
X455290D01*
X443871Y425577D02*
X444288Y425993D01*
X445121D01*
X445538Y425577D01*
Y423911D01*
X445121Y423494D01*
X444288D01*
X443871Y423911D01*
X441372Y425993D02*
X442205Y425577D01*
X443038Y424744D01*
Y423911D01*
X442622Y423494D01*
X441789D01*
X441372Y423911D01*
Y424327D01*
X441789Y424744D01*
X443038D01*
X440539Y425577D02*
X440123Y425993D01*
X439290D01*
X438873Y425577D01*
Y423911D01*
X439290Y423494D01*
X440123D01*
X440539Y423911D01*
Y425577D01*
X401733Y399417D02*
X402150Y399834D01*
X402983D01*
X403399Y399417D01*
Y397751D01*
X402983Y397335D01*
X402150D01*
X401733Y397751D01*
X399234Y399834D02*
X400067Y399417D01*
X400900Y398584D01*
Y397751D01*
X400484Y397335D01*
X399651D01*
X399234Y397751D01*
Y398168D01*
X399651Y398584D01*
X400900D01*
X398401Y397335D02*
X397568D01*
X397985D01*
Y399834D01*
X398401Y399417D01*
X405173Y385788D02*
X405589Y386204D01*
X406423D01*
X406839Y385788D01*
Y384121D01*
X406423Y383705D01*
X405589D01*
X405173Y384121D01*
X402674Y386204D02*
X403507Y385788D01*
X404340Y384954D01*
Y384121D01*
X403923Y383705D01*
X403090D01*
X402674Y384121D01*
Y384538D01*
X403090Y384954D01*
X404340D01*
X400175Y383705D02*
X401841D01*
X400175Y385371D01*
Y385788D01*
X400591Y386204D01*
X401424D01*
X401841Y385788D01*
X405777Y372200D02*
X406193Y372616D01*
X407026D01*
X407443Y372200D01*
Y370533D01*
X407026Y370117D01*
X406193D01*
X405777Y370533D01*
X403277Y372616D02*
X404110Y372200D01*
X404944Y371367D01*
Y370533D01*
X404527Y370117D01*
X403694D01*
X403277Y370533D01*
Y370950D01*
X403694Y371367D01*
X404944D01*
X402444Y372200D02*
X402028Y372616D01*
X401195D01*
X400778Y372200D01*
Y371783D01*
X401195Y371367D01*
X401611D01*
X401195D01*
X400778Y370950D01*
Y370533D01*
X401195Y370117D01*
X402028D01*
X402444Y370533D01*
X315607Y332508D02*
X316023Y332925D01*
X316857D01*
X317273Y332508D01*
Y330842D01*
X316857Y330426D01*
X316023D01*
X315607Y330842D01*
X313108Y332925D02*
X313941Y332508D01*
X314774Y331675D01*
Y330842D01*
X314357Y330426D01*
X313524D01*
X313108Y330842D01*
Y331259D01*
X313524Y331675D01*
X314774D01*
X311025Y330426D02*
Y332925D01*
X312275Y331675D01*
X310609D01*
X323575Y325958D02*
X323991Y326375D01*
X324824D01*
X325241Y325958D01*
Y324292D01*
X324824Y323875D01*
X323991D01*
X323575Y324292D01*
X321076Y326375D02*
X321909Y325958D01*
X322742Y325125D01*
Y324292D01*
X322325Y323875D01*
X321492D01*
X321076Y324292D01*
Y324709D01*
X321492Y325125D01*
X322742D01*
X318576Y326375D02*
X320243D01*
Y325125D01*
X319409Y325542D01*
X318993D01*
X318576Y325125D01*
Y324292D01*
X318993Y323875D01*
X319826D01*
X320243Y324292D01*
X359546Y331881D02*
X359963Y331465D01*
Y330632D01*
X359546Y330215D01*
X357880D01*
X357463Y330632D01*
Y331465D01*
X357880Y331881D01*
X359963Y334380D02*
X359546Y333547D01*
X358713Y332714D01*
X357880D01*
X357463Y333131D01*
Y333964D01*
X357880Y334380D01*
X358296D01*
X358713Y333964D01*
Y332714D01*
X359963Y335213D02*
Y336880D01*
X359546D01*
X357880Y335213D01*
X357463D01*
X403530Y348306D02*
X403947Y348722D01*
X404780D01*
X405197Y348306D01*
Y346640D01*
X404780Y346223D01*
X403947D01*
X403530Y346640D01*
X401031Y348722D02*
X401864Y348306D01*
X402697Y347473D01*
Y346640D01*
X402281Y346223D01*
X401448D01*
X401031Y346640D01*
Y347056D01*
X401448Y347473D01*
X402697D01*
X400198Y348306D02*
X399782Y348722D01*
X398949D01*
X398532Y348306D01*
Y347889D01*
X398949Y347473D01*
X398532Y347056D01*
Y346640D01*
X398949Y346223D01*
X399782D01*
X400198Y346640D01*
Y347056D01*
X399782Y347473D01*
X400198Y347889D01*
Y348306D01*
X399782Y347473D02*
X398949D01*
X316144Y359870D02*
X316561Y360287D01*
X317394D01*
X317810Y359870D01*
Y358204D01*
X317394Y357787D01*
X316561D01*
X316144Y358204D01*
X313645Y360287D02*
X314478Y359870D01*
X315311Y359037D01*
Y358204D01*
X314895Y357787D01*
X314061D01*
X313645Y358204D01*
Y358621D01*
X314061Y359037D01*
X315311D01*
X312812Y358204D02*
X312395Y357787D01*
X311562D01*
X311146Y358204D01*
Y359870D01*
X311562Y360287D01*
X312395D01*
X312812Y359870D01*
Y359454D01*
X312395Y359037D01*
X311146D01*
X324879Y355759D02*
X325296Y356176D01*
X326129D01*
X326545Y355759D01*
Y354093D01*
X326129Y353676D01*
X325296D01*
X324879Y354093D01*
X324046Y356176D02*
X322380D01*
Y355759D01*
X324046Y354093D01*
Y353676D01*
X321547Y355759D02*
X321130Y356176D01*
X320297D01*
X319881Y355759D01*
Y354093D01*
X320297Y353676D01*
X321130D01*
X321547Y354093D01*
Y355759D01*
X337735Y326391D02*
X338151Y325974D01*
Y325141D01*
X337735Y324724D01*
X336069D01*
X335652Y325141D01*
Y325974D01*
X336069Y326391D01*
X338151Y327224D02*
Y328890D01*
X337735D01*
X336069Y327224D01*
X335652D01*
Y329723D02*
Y330556D01*
Y330139D01*
X338151D01*
X337735Y329723D01*
X345709Y325968D02*
X346126Y325552D01*
Y324719D01*
X345709Y324302D01*
X344043D01*
X343627Y324719D01*
Y325552D01*
X344043Y325968D01*
X346126Y326801D02*
Y328467D01*
X345709D01*
X344043Y326801D01*
X343627D01*
Y330967D02*
Y329300D01*
X345293Y330967D01*
X345709D01*
X346126Y330550D01*
Y329717D01*
X345709Y329300D01*
X315160Y394845D02*
X315576Y395262D01*
X316409D01*
X316826Y394845D01*
Y393179D01*
X316409Y392763D01*
X315576D01*
X315160Y393179D01*
X314327Y395262D02*
X312660D01*
Y394845D01*
X314327Y393179D01*
Y392763D01*
X311827Y394845D02*
X311411Y395262D01*
X310578D01*
X310161Y394845D01*
Y394429D01*
X310578Y394012D01*
X310994D01*
X310578D01*
X310161Y393596D01*
Y393179D01*
X310578Y392763D01*
X311411D01*
X311827Y393179D01*
X325311Y388845D02*
X325727Y389262D01*
X326560D01*
X326977Y388845D01*
Y387179D01*
X326560Y386763D01*
X325727D01*
X325311Y387179D01*
X324478Y389262D02*
X322812D01*
Y388845D01*
X324478Y387179D01*
Y386763D01*
X320729D02*
Y389262D01*
X321978Y388012D01*
X320312D01*
X339759Y387378D02*
X340175Y386961D01*
Y386128D01*
X339759Y385712D01*
X338093D01*
X337676Y386128D01*
Y386961D01*
X338093Y387378D01*
X340175Y388211D02*
Y389877D01*
X339759D01*
X338093Y388211D01*
X337676D01*
X340175Y392376D02*
Y390710D01*
X338926D01*
X339342Y391543D01*
Y391960D01*
X338926Y392376D01*
X338093D01*
X337676Y391960D01*
Y391127D01*
X338093Y390710D01*
X372387Y287274D02*
X372804Y287691D01*
X373637D01*
X374053Y287274D01*
Y285608D01*
X373637Y285192D01*
X372804D01*
X372387Y285608D01*
X371554Y287691D02*
X369888D01*
Y287274D01*
X371554Y285608D01*
Y285192D01*
X369055Y287691D02*
X367389D01*
Y287274D01*
X369055Y285608D01*
Y285192D01*
X374512Y296374D02*
X374928Y296791D01*
X375761D01*
X376178Y296374D01*
Y294708D01*
X375761Y294292D01*
X374928D01*
X374512Y294708D01*
X373679Y296791D02*
X372012D01*
Y296374D01*
X373679Y294708D01*
Y294292D01*
X371179Y296374D02*
X370763Y296791D01*
X369930D01*
X369513Y296374D01*
Y295958D01*
X369930Y295541D01*
X369513Y295125D01*
Y294708D01*
X369930Y294292D01*
X370763D01*
X371179Y294708D01*
Y295125D01*
X370763Y295541D01*
X371179Y295958D01*
Y296374D01*
X370763Y295541D02*
X369930D01*
X374512Y305274D02*
X374928Y305691D01*
X375761D01*
X376178Y305274D01*
Y303608D01*
X375761Y303192D01*
X374928D01*
X374512Y303608D01*
X373679Y305691D02*
X372012D01*
Y305274D01*
X373679Y303608D01*
Y303192D01*
X371179Y303608D02*
X370763Y303192D01*
X369930D01*
X369513Y303608D01*
Y305274D01*
X369930Y305691D01*
X370763D01*
X371179Y305274D01*
Y304858D01*
X370763Y304441D01*
X369513D01*
X379798Y352467D02*
X380215Y352884D01*
X381048D01*
X381465Y352467D01*
Y350801D01*
X381048Y350385D01*
X380215D01*
X379798Y350801D01*
X378965Y352467D02*
X378549Y352884D01*
X377716D01*
X377299Y352467D01*
Y352051D01*
X377716Y351634D01*
X377299Y351218D01*
Y350801D01*
X377716Y350385D01*
X378549D01*
X378965Y350801D01*
Y351218D01*
X378549Y351634D01*
X378965Y352051D01*
Y352467D01*
X378549Y351634D02*
X377716D01*
X376466Y350385D02*
X375633D01*
X376050D01*
Y352884D01*
X376466Y352467D01*
X367763Y360033D02*
X368179Y360449D01*
X369012D01*
X369429Y360033D01*
Y358367D01*
X369012Y357950D01*
X368179D01*
X367763Y358367D01*
X366930Y360033D02*
X366513Y360449D01*
X365680D01*
X365264Y360033D01*
Y359616D01*
X365680Y359200D01*
X365264Y358783D01*
Y358367D01*
X365680Y357950D01*
X366513D01*
X366930Y358367D01*
Y358783D01*
X366513Y359200D01*
X366930Y359616D01*
Y360033D01*
X366513Y359200D02*
X365680D01*
X362764Y357950D02*
X364431D01*
X362764Y359616D01*
Y360033D01*
X363181Y360449D01*
X364014D01*
X364431Y360033D01*
X398102Y291716D02*
X398519Y292132D01*
X399352D01*
X399769Y291716D01*
Y290050D01*
X399352Y289633D01*
X398519D01*
X398102Y290050D01*
X397269Y291716D02*
X396853Y292132D01*
X396020D01*
X395603Y291716D01*
Y291299D01*
X396020Y290883D01*
X395603Y290466D01*
Y290050D01*
X396020Y289633D01*
X396853D01*
X397269Y290050D01*
Y290466D01*
X396853Y290883D01*
X397269Y291299D01*
Y291716D01*
X396853Y290883D02*
X396020D01*
X393521Y289633D02*
Y292132D01*
X394770Y290883D01*
X393104D01*
X449296Y270953D02*
X449713Y270537D01*
Y269704D01*
X449296Y269287D01*
X447630D01*
X447213Y269704D01*
Y270537D01*
X447630Y270953D01*
X449296Y271786D02*
X449713Y272203D01*
Y273036D01*
X449296Y273452D01*
X448880D01*
X448463Y273036D01*
X448046Y273452D01*
X447630D01*
X447213Y273036D01*
Y272203D01*
X447630Y271786D01*
X448046D01*
X448463Y272203D01*
X448880Y271786D01*
X449296D01*
X448463Y272203D02*
Y273036D01*
X449713Y275952D02*
Y274286D01*
X448463D01*
X448880Y275119D01*
Y275535D01*
X448463Y275952D01*
X447630D01*
X447213Y275535D01*
Y274702D01*
X447630Y274286D01*
X401699Y300773D02*
X402115Y301190D01*
X402948D01*
X403365Y300773D01*
Y299107D01*
X402948Y298690D01*
X402115D01*
X401699Y299107D01*
X400866Y300773D02*
X400449Y301190D01*
X399616D01*
X399200Y300773D01*
Y300357D01*
X399616Y299940D01*
X399200Y299523D01*
Y299107D01*
X399616Y298690D01*
X400449D01*
X400866Y299107D01*
Y299523D01*
X400449Y299940D01*
X400866Y300357D01*
Y300773D01*
X400449Y299940D02*
X399616D01*
X396700Y301190D02*
X397533Y300773D01*
X398367Y299940D01*
Y299107D01*
X397950Y298690D01*
X397117D01*
X396700Y299107D01*
Y299523D01*
X397117Y299940D01*
X398367D01*
X449296Y295953D02*
X449713Y295537D01*
Y294704D01*
X449296Y294287D01*
X447630D01*
X447213Y294704D01*
Y295537D01*
X447630Y295953D01*
X449296Y296786D02*
X449713Y297203D01*
Y298036D01*
X449296Y298452D01*
X448880D01*
X448463Y298036D01*
X448046Y298452D01*
X447630D01*
X447213Y298036D01*
Y297203D01*
X447630Y296786D01*
X448046D01*
X448463Y297203D01*
X448880Y296786D01*
X449296D01*
X448463Y297203D02*
Y298036D01*
X449713Y299286D02*
Y300952D01*
X449296D01*
X447630Y299286D01*
X447213D01*
X449561Y285681D02*
X449978Y285265D01*
Y284432D01*
X449561Y284015D01*
X447895D01*
X447479Y284432D01*
Y285265D01*
X447895Y285681D01*
X449561Y286514D02*
X449978Y286931D01*
Y287764D01*
X449561Y288180D01*
X449145D01*
X448728Y287764D01*
X448312Y288180D01*
X447895D01*
X447479Y287764D01*
Y286931D01*
X447895Y286514D01*
X448312D01*
X448728Y286931D01*
X449145Y286514D01*
X449561D01*
X448728Y286931D02*
Y287764D01*
X449561Y289014D02*
X449978Y289430D01*
Y290263D01*
X449561Y290680D01*
X449145D01*
X448728Y290263D01*
X448312Y290680D01*
X447895D01*
X447479Y290263D01*
Y289430D01*
X447895Y289014D01*
X448312D01*
X448728Y289430D01*
X449145Y289014D01*
X449561D01*
X448728Y289430D02*
Y290263D01*
X405765Y320495D02*
X406181Y320911D01*
X407014D01*
X407431Y320495D01*
Y318829D01*
X407014Y318412D01*
X406181D01*
X405765Y318829D01*
X404932D02*
X404515Y318412D01*
X403682D01*
X403266Y318829D01*
Y320495D01*
X403682Y320911D01*
X404515D01*
X404932Y320495D01*
Y320078D01*
X404515Y319662D01*
X403266D01*
X400766Y318412D02*
X402433D01*
X400766Y320078D01*
Y320495D01*
X401183Y320911D01*
X402016D01*
X402433Y320495D01*
X420458Y326153D02*
X420874Y325736D01*
Y324903D01*
X420458Y324487D01*
X418792D01*
X418375Y324903D01*
Y325736D01*
X418792Y326153D01*
Y326986D02*
X418375Y327402D01*
Y328236D01*
X418792Y328652D01*
X420458D01*
X420874Y328236D01*
Y327402D01*
X420458Y326986D01*
X420041D01*
X419625Y327402D01*
Y328652D01*
X418375Y330735D02*
X420874D01*
X419625Y329485D01*
Y331151D01*
X681916Y50081D02*
X682332Y50497D01*
X683165D01*
X683582Y50081D01*
Y48414D01*
X683165Y47998D01*
X682332D01*
X681916Y48414D01*
X679417Y47998D02*
X681083D01*
X679417Y49664D01*
Y50081D01*
X679833Y50497D01*
X680666D01*
X681083Y50081D01*
X676917Y50497D02*
X678583D01*
Y49248D01*
X677750Y49664D01*
X677334D01*
X676917Y49248D01*
Y48414D01*
X677334Y47998D01*
X678167D01*
X678583Y48414D01*
X676084Y50081D02*
X675668Y50497D01*
X674835D01*
X674418Y50081D01*
Y49664D01*
X674835Y49248D01*
X675251D01*
X674835D01*
X674418Y48831D01*
Y48414D01*
X674835Y47998D01*
X675668D01*
X676084Y48414D01*
X661957Y10998D02*
Y13497D01*
X660707D01*
X660291Y13081D01*
Y12248D01*
X660707Y11831D01*
X661957D01*
X661124D02*
X660291Y10998D01*
X659458D02*
X658625D01*
X659041D01*
Y13497D01*
X659458Y13081D01*
X657375D02*
X656959Y13497D01*
X656126D01*
X655709Y13081D01*
Y12664D01*
X656126Y12248D01*
X656542D01*
X656126D01*
X655709Y11831D01*
Y11415D01*
X656126Y10998D01*
X656959D01*
X657375Y11415D01*
X654876Y10998D02*
X654043D01*
X654459D01*
Y13497D01*
X654876Y13081D01*
X231169Y441869D02*
X230752Y442286D01*
Y443119D01*
X231169Y443535D01*
X232835D01*
X233251Y443119D01*
Y442286D01*
X232835Y441869D01*
X233251Y441036D02*
Y440203D01*
Y440620D01*
X230752D01*
X231169Y441036D01*
Y438953D02*
X230752Y438537D01*
Y437704D01*
X231169Y437287D01*
X232835D01*
X233251Y437704D01*
Y438537D01*
X232835Y438953D01*
X231169D01*
X230752Y434788D02*
X231169Y435621D01*
X232002Y436454D01*
X232835D01*
X233251Y436038D01*
Y435205D01*
X232835Y434788D01*
X232418D01*
X232002Y435205D01*
Y436454D01*
X258690Y422152D02*
X258273Y422569D01*
Y423402D01*
X258690Y423818D01*
X260356D01*
X260772Y423402D01*
Y422569D01*
X260356Y422152D01*
X260772Y421319D02*
Y420486D01*
Y420903D01*
X258273D01*
X258690Y421319D01*
X260772Y417571D02*
Y419237D01*
X259106Y417571D01*
X258690D01*
X258273Y417987D01*
Y418820D01*
X258690Y419237D01*
X260772Y415488D02*
X258273D01*
X259523Y416738D01*
Y415071D01*
X258678Y411943D02*
X258261Y412360D01*
Y413193D01*
X258678Y413610D01*
X260344D01*
X260760Y413193D01*
Y412360D01*
X260344Y411943D01*
X260760Y411110D02*
Y410277D01*
Y410694D01*
X258261D01*
X258678Y411110D01*
X260760Y409028D02*
Y408195D01*
Y408611D01*
X258261D01*
X258678Y409028D01*
X260760Y406945D02*
Y406112D01*
Y406529D01*
X258261D01*
X258678Y406945D01*
X261898Y403608D02*
X261481Y404024D01*
Y404857D01*
X261898Y405274D01*
X263564D01*
X263980Y404857D01*
Y404024D01*
X263564Y403608D01*
X263980Y402775D02*
Y401942D01*
Y402358D01*
X261481D01*
X261898Y402775D01*
X263980Y399026D02*
Y400692D01*
X262314Y399026D01*
X261898D01*
X261481Y399443D01*
Y400276D01*
X261898Y400692D01*
X261481Y396527D02*
Y398193D01*
X262731D01*
X262314Y397360D01*
Y396943D01*
X262731Y396527D01*
X263564D01*
X263980Y396943D01*
Y397776D01*
X263564Y398193D01*
X262295Y394152D02*
X261878Y394568D01*
Y395401D01*
X262295Y395818D01*
X263961D01*
X264377Y395401D01*
Y394568D01*
X263961Y394152D01*
X264377Y393319D02*
Y392485D01*
Y392902D01*
X261878D01*
X262295Y393319D01*
X264377Y389570D02*
Y391236D01*
X262711Y389570D01*
X262295D01*
X261878Y389986D01*
Y390819D01*
X262295Y391236D01*
X264377Y388737D02*
Y387904D01*
Y388320D01*
X261878D01*
X262295Y388737D01*
X166665Y413158D02*
X167082Y412742D01*
Y411909D01*
X166665Y411492D01*
X164999D01*
X164583Y411909D01*
Y412742D01*
X164999Y413158D01*
X164583Y413991D02*
Y414824D01*
Y414408D01*
X167082D01*
X166665Y413991D01*
Y416074D02*
X167082Y416491D01*
Y417324D01*
X166665Y417740D01*
X164999D01*
X164583Y417324D01*
Y416491D01*
X164999Y416074D01*
X166665D01*
X167082Y418573D02*
Y420239D01*
X166665D01*
X164999Y418573D01*
X164583D01*
X177909Y432574D02*
X178325Y432991D01*
X179158D01*
X179575Y432574D01*
Y430908D01*
X179158Y430491D01*
X178325D01*
X177909Y430908D01*
X177076Y430491D02*
X176242D01*
X176659D01*
Y432991D01*
X177076Y432574D01*
X174993D02*
X174576Y432991D01*
X173743D01*
X173327Y432574D01*
Y430908D01*
X173743Y430491D01*
X174576D01*
X174993Y430908D01*
Y432574D01*
X172494D02*
X172077Y432991D01*
X171244D01*
X170827Y432574D01*
Y432158D01*
X171244Y431741D01*
X171661D01*
X171244D01*
X170827Y431324D01*
Y430908D01*
X171244Y430491D01*
X172077D01*
X172494Y430908D01*
M02*
