G04*
G04 #@! TF.GenerationSoftware,Altium Limited,Altium Designer,26.2.0 (7)*
G04*
G04 Layer_Color=128*
%FSLAX25Y25*%
%MOIN*%
G70*
G04*
G04 #@! TF.SameCoordinates,B4A42267-10C6-43D6-8E6F-C0A9A178EC5E*
G04*
G04*
G04 #@! TF.FilePolarity,Positive*
G04*
G01*
G75*
%ADD14C,0.00500*%
G04:AMPARAMS|DCode=41|XSize=20mil|YSize=20mil|CornerRadius=6mil|HoleSize=0mil|Usage=FLASHONLY|Rotation=270.000|XOffset=0mil|YOffset=0mil|HoleType=Round|Shape=RoundedRectangle|*
%AMROUNDEDRECTD41*
21,1,0.02000,0.00800,0,0,270.0*
21,1,0.00800,0.02000,0,0,270.0*
1,1,0.01200,-0.00400,-0.00400*
1,1,0.01200,-0.00400,0.00400*
1,1,0.01200,0.00400,0.00400*
1,1,0.01200,0.00400,-0.00400*
%
%ADD41ROUNDEDRECTD41*%
G04:AMPARAMS|DCode=42|XSize=20mil|YSize=20mil|CornerRadius=6mil|HoleSize=0mil|Usage=FLASHONLY|Rotation=180.000|XOffset=0mil|YOffset=0mil|HoleType=Round|Shape=RoundedRectangle|*
%AMROUNDEDRECTD42*
21,1,0.02000,0.00800,0,0,180.0*
21,1,0.00800,0.02000,0,0,180.0*
1,1,0.01200,-0.00400,0.00400*
1,1,0.01200,0.00400,0.00400*
1,1,0.01200,0.00400,-0.00400*
1,1,0.01200,-0.00400,-0.00400*
%
%ADD42ROUNDEDRECTD42*%
G04:AMPARAMS|DCode=45|XSize=55mil|YSize=43mil|CornerRadius=7.96mil|HoleSize=0mil|Usage=FLASHONLY|Rotation=0.000|XOffset=0mil|YOffset=0mil|HoleType=Round|Shape=RoundedRectangle|*
%AMROUNDEDRECTD45*
21,1,0.05500,0.02709,0,0,0.0*
21,1,0.03909,0.04300,0,0,0.0*
1,1,0.01591,0.01955,-0.01355*
1,1,0.01591,-0.01955,-0.01355*
1,1,0.01591,-0.01955,0.01355*
1,1,0.01591,0.01955,0.01355*
%
%ADD45ROUNDEDRECTD45*%
G04:AMPARAMS|DCode=72|XSize=55mil|YSize=43mil|CornerRadius=7.96mil|HoleSize=0mil|Usage=FLASHONLY|Rotation=270.000|XOffset=0mil|YOffset=0mil|HoleType=Round|Shape=RoundedRectangle|*
%AMROUNDEDRECTD72*
21,1,0.05500,0.02709,0,0,270.0*
21,1,0.03909,0.04300,0,0,270.0*
1,1,0.01591,-0.01355,-0.01955*
1,1,0.01591,-0.01355,0.01955*
1,1,0.01591,0.01355,0.01955*
1,1,0.01591,0.01355,-0.01955*
%
%ADD72ROUNDEDRECTD72*%
G04:AMPARAMS|DCode=81|XSize=98.43mil|YSize=47.24mil|CornerRadius=11.81mil|HoleSize=0mil|Usage=FLASHONLY|Rotation=270.000|XOffset=0mil|YOffset=0mil|HoleType=Round|Shape=RoundedRectangle|*
%AMROUNDEDRECTD81*
21,1,0.09843,0.02362,0,0,270.0*
21,1,0.07480,0.04724,0,0,270.0*
1,1,0.02362,-0.01181,-0.03740*
1,1,0.02362,-0.01181,0.03740*
1,1,0.02362,0.01181,0.03740*
1,1,0.02362,0.01181,-0.03740*
%
%ADD81ROUNDEDRECTD81*%
G04:AMPARAMS|DCode=242|XSize=98.43mil|YSize=59.06mil|CornerRadius=11.81mil|HoleSize=0mil|Usage=FLASHONLY|Rotation=0.000|XOffset=0mil|YOffset=0mil|HoleType=Round|Shape=RoundedRectangle|*
%AMROUNDEDRECTD242*
21,1,0.09843,0.03543,0,0,0.0*
21,1,0.07480,0.05906,0,0,0.0*
1,1,0.02362,0.03740,-0.01772*
1,1,0.02362,-0.03740,-0.01772*
1,1,0.02362,-0.03740,0.01772*
1,1,0.02362,0.03740,0.01772*
%
%ADD242ROUNDEDRECTD242*%
G04:AMPARAMS|DCode=243|XSize=98.43mil|YSize=59.06mil|CornerRadius=11.81mil|HoleSize=0mil|Usage=FLASHONLY|Rotation=90.000|XOffset=0mil|YOffset=0mil|HoleType=Round|Shape=RoundedRectangle|*
%AMROUNDEDRECTD243*
21,1,0.09843,0.03543,0,0,90.0*
21,1,0.07480,0.05906,0,0,90.0*
1,1,0.02362,0.01772,0.03740*
1,1,0.02362,0.01772,-0.03740*
1,1,0.02362,-0.01772,-0.03740*
1,1,0.02362,-0.01772,0.03740*
%
%ADD243ROUNDEDRECTD243*%
G36*
X64961Y448819D02*
Y449013D01*
X64885Y449393D01*
X64737Y449751D01*
X64521Y450074D01*
X64247Y450348D01*
X63925Y450563D01*
X63566Y450712D01*
X63186Y450787D01*
X62992D01*
X62798D01*
X62418Y450712D01*
X62060Y450563D01*
X61737Y450348D01*
X61463Y450074D01*
X61248Y449751D01*
X61099Y449393D01*
X61024Y449013D01*
Y448819D01*
Y448625D01*
X61099Y448245D01*
X61248Y447887D01*
X61463Y447564D01*
X61737Y447290D01*
X62060Y447074D01*
X62418Y446926D01*
X62798Y446850D01*
X62992D01*
X63186D01*
X63566Y446926D01*
X63925Y447074D01*
X64247Y447290D01*
X64521Y447564D01*
X64737Y447887D01*
X64885Y448245D01*
X64961Y448625D01*
Y448819D01*
D01*
D02*
G37*
G36*
X604331Y15748D02*
Y15942D01*
X604255Y16322D01*
X604107Y16680D01*
X603891Y17003D01*
X603617Y17277D01*
X603295Y17492D01*
X602936Y17641D01*
X602556Y17717D01*
X602362D01*
X602168D01*
X601788Y17641D01*
X601430Y17492D01*
X601107Y17277D01*
X600833Y17003D01*
X600618Y16680D01*
X600469Y16322D01*
X600394Y15942D01*
Y15748D01*
Y15554D01*
X600469Y15174D01*
X600618Y14816D01*
X600833Y14493D01*
X601107Y14219D01*
X601430Y14004D01*
X601788Y13855D01*
X602168Y13780D01*
X602362D01*
X602556D01*
X602936Y13855D01*
X603295Y14004D01*
X603617Y14219D01*
X603891Y14493D01*
X604107Y14816D01*
X604255Y15174D01*
X604331Y15554D01*
Y15748D01*
D01*
D02*
G37*
G36*
X740158Y448819D02*
Y449013D01*
X740082Y449393D01*
X739933Y449751D01*
X739718Y450074D01*
X739444Y450348D01*
X739121Y450563D01*
X738763Y450712D01*
X738383Y450787D01*
X738189D01*
X737995D01*
X737615Y450712D01*
X737256Y450563D01*
X736934Y450348D01*
X736660Y450074D01*
X736445Y449751D01*
X736296Y449393D01*
X736221Y449013D01*
Y448819D01*
Y448625D01*
X736296Y448245D01*
X736445Y447887D01*
X736660Y447564D01*
X736934Y447290D01*
X737256Y447074D01*
X737615Y446926D01*
X737995Y446850D01*
X738189D01*
X738383D01*
X738763Y446926D01*
X739121Y447074D01*
X739444Y447290D01*
X739718Y447564D01*
X739933Y447887D01*
X740082Y448245D01*
X740158Y448625D01*
Y448819D01*
D01*
D02*
G37*
D14*
X601962Y18948D02*
X602862Y21148D01*
X600662Y21048D02*
X601962Y18948D01*
X601262Y27448D02*
X601962Y18948D01*
X737789Y452019D02*
X738689Y454219D01*
X736489Y454119D02*
X737789Y452019D01*
X737089Y460519D02*
X737789Y452019D01*
X62592D02*
X63492Y454219D01*
X61292Y454119D02*
X62592Y452019D01*
X61892Y460519D02*
X62592Y452019D01*
D41*
X376593Y363251D02*
D03*
X387890Y351467D02*
D03*
X372579Y359200D02*
D03*
X409609Y398734D02*
D03*
X410029Y371059D02*
D03*
X409703Y406518D02*
D03*
X406109Y398734D02*
D03*
X413529Y371059D02*
D03*
X382542Y406671D02*
D03*
X351023Y406518D02*
D03*
X380093Y363251D02*
D03*
X403638Y343567D02*
D03*
X384390Y351467D02*
D03*
X389779Y327783D02*
D03*
X376079Y359200D02*
D03*
X360768Y343510D02*
D03*
X773500Y95750D02*
D03*
X748750D02*
D03*
X417875Y315951D02*
D03*
X402173Y316112D02*
D03*
X386395Y315950D02*
D03*
X370669Y315911D02*
D03*
X355007Y315950D02*
D03*
X406204Y406518D02*
D03*
X386042Y406671D02*
D03*
X400138Y343567D02*
D03*
X386279Y327783D02*
D03*
X421375Y315951D02*
D03*
X405673Y316112D02*
D03*
X389895Y315950D02*
D03*
X354523Y406518D02*
D03*
X364268Y343510D02*
D03*
X374169Y315911D02*
D03*
X358507Y315950D02*
D03*
X769478Y80097D02*
D03*
X765978D02*
D03*
X741032Y79555D02*
D03*
X745250Y95750D02*
D03*
X770000D02*
D03*
X744532Y79555D02*
D03*
D42*
X489851Y363735D02*
D03*
Y360235D02*
D03*
Y354188D02*
D03*
Y350688D02*
D03*
Y398868D02*
D03*
Y395368D02*
D03*
X541749Y371607D02*
D03*
Y368107D02*
D03*
Y398836D02*
D03*
Y395336D02*
D03*
Y384306D02*
D03*
Y380806D02*
D03*
Y353594D02*
D03*
Y350094D02*
D03*
X489851Y384267D02*
D03*
Y380767D02*
D03*
Y375931D02*
D03*
Y372431D02*
D03*
X344876Y334069D02*
D03*
X337002Y337443D02*
D03*
X388126Y367374D02*
D03*
X409703Y383188D02*
D03*
Y386688D02*
D03*
X419625Y337443D02*
D03*
X388126Y370874D02*
D03*
X356513Y381001D02*
D03*
X338896Y379251D02*
D03*
Y374877D02*
D03*
X390077Y339444D02*
D03*
X362518Y331939D02*
D03*
X344876Y337569D02*
D03*
X337002Y333943D02*
D03*
X419625D02*
D03*
X390077Y335944D02*
D03*
X356513Y377501D02*
D03*
X338896Y382751D02*
D03*
X362518Y335439D02*
D03*
X338896Y371377D02*
D03*
X738479Y48750D02*
D03*
X758000Y48750D02*
D03*
Y45250D02*
D03*
X738479Y45250D02*
D03*
D45*
X322963Y348276D02*
D03*
X441955Y418276D02*
D03*
Y411576D02*
D03*
X238002Y442512D02*
D03*
X322894Y374662D02*
D03*
X322963Y341576D02*
D03*
X322291Y312025D02*
D03*
X322894Y381362D02*
D03*
X322291Y318725D02*
D03*
X238002Y435812D02*
D03*
D72*
X381245Y301941D02*
D03*
Y292991D02*
D03*
X399635Y421390D02*
D03*
X435845Y288053D02*
D03*
Y297959D02*
D03*
X415983Y297340D02*
D03*
X387946Y292991D02*
D03*
Y301941D02*
D03*
X339114Y299862D02*
D03*
X253378Y418861D02*
D03*
X253861Y409861D02*
D03*
X257478Y391861D02*
D03*
X256952Y400861D02*
D03*
X171788Y424866D02*
D03*
X171551Y415866D02*
D03*
X442545Y288053D02*
D03*
Y297959D02*
D03*
X406335Y421390D02*
D03*
X409283Y297340D02*
D03*
X332414Y299862D02*
D03*
X246678Y418861D02*
D03*
X178488Y424866D02*
D03*
X247161Y409861D02*
D03*
X250252Y400861D02*
D03*
X250778Y391861D02*
D03*
X178251Y415866D02*
D03*
D81*
X656701Y22248D02*
D03*
X669299D02*
D03*
D242*
X310478Y352336D02*
D03*
X455205Y423225D02*
D03*
Y410627D02*
D03*
X309694Y374713D02*
D03*
X310478Y339738D02*
D03*
X309941Y312276D02*
D03*
X309694Y387311D02*
D03*
X309941Y324874D02*
D03*
D243*
X379422Y280441D02*
D03*
X399436Y434390D02*
D03*
X429572Y276024D02*
D03*
X418636Y285183D02*
D03*
X392020Y280441D02*
D03*
X339063Y286862D02*
D03*
X412034Y434390D02*
D03*
X442170Y276024D02*
D03*
X406037Y285183D02*
D03*
X326464Y286862D02*
D03*
X690299Y39248D02*
D03*
X677701D02*
D03*
M02*
