G04*
G04 #@! TF.GenerationSoftware,Altium Limited,Altium Designer,26.2.0 (7)*
G04*
G04 Layer_Physical_Order=9*
G04 Layer_Color=32768*
%FSLAX25Y25*%
%MOIN*%
G70*
G04*
G04 #@! TF.SameCoordinates,B4A42267-10C6-43D6-8E6F-C0A9A178EC5E*
G04*
G04*
G04 #@! TF.FilePolarity,Negative*
G04*
G01*
G75*
%ADD169C,0.02400*%
%ADD170C,0.02200*%
%ADD199C,0.10000*%
%ADD218C,0.02000*%
%ADD221C,0.04000*%
%ADD222C,0.07696*%
G04:AMPARAMS|DCode=223|XSize=124.961mil|YSize=124.961mil|CornerRadius=0mil|HoleSize=0mil|Usage=FLASHONLY|Rotation=0.000|XOffset=0mil|YOffset=0mil|HoleType=Round|Shape=Relief|Width=10mil|Gap=10mil|Entries=4|*
%AMTHD223*
7,0,0,0.12496,0.10496,0.01000,45*
%
%ADD223THD223*%
G04:AMPARAMS|DCode=224|XSize=189.921mil|YSize=189.921mil|CornerRadius=0mil|HoleSize=0mil|Usage=FLASHONLY|Rotation=0.000|XOffset=0mil|YOffset=0mil|HoleType=Round|Shape=Relief|Width=10mil|Gap=10mil|Entries=4|*
%AMTHD224*
7,0,0,0.18992,0.16992,0.01000,45*
%
%ADD224THD224*%
G04:AMPARAMS|DCode=225|XSize=98.189mil|YSize=98.189mil|CornerRadius=0mil|HoleSize=0mil|Usage=FLASHONLY|Rotation=0.000|XOffset=0mil|YOffset=0mil|HoleType=Round|Shape=Relief|Width=10mil|Gap=10mil|Entries=4|*
%AMTHD225*
7,0,0,0.09819,0.07819,0.01000,45*
%
%ADD225THD225*%
G04:AMPARAMS|DCode=226|XSize=73.779mil|YSize=73.779mil|CornerRadius=0mil|HoleSize=0mil|Usage=FLASHONLY|Rotation=0.000|XOffset=0mil|YOffset=0mil|HoleType=Round|Shape=Relief|Width=10mil|Gap=10mil|Entries=4|*
%AMTHD226*
7,0,0,0.07378,0.05378,0.01000,45*
%
%ADD226THD226*%
G04:AMPARAMS|DCode=227|XSize=131mil|YSize=131mil|CornerRadius=0mil|HoleSize=0mil|Usage=FLASHONLY|Rotation=0.000|XOffset=0mil|YOffset=0mil|HoleType=Round|Shape=Relief|Width=10mil|Gap=10mil|Entries=4|*
%AMTHD227*
7,0,0,0.13100,0.11100,0.01000,45*
%
%ADD227THD227*%
%ADD228C,0.04700*%
%ADD229C,0.14000*%
%ADD231C,0.08300*%
%ADD232C,0.13000*%
%ADD233C,0.06318*%
%ADD234C,0.10255*%
%ADD235C,0.04743*%
%ADD236C,0.01987*%
D169*
X586446Y297655D02*
D03*
X535984Y310719D02*
D03*
X320781Y222040D02*
D03*
Y226756D02*
D03*
X318254D02*
D03*
X571514Y65100D02*
D03*
X578207D02*
D03*
X575000Y61145D02*
D03*
X578010D02*
D03*
X575000Y65100D02*
D03*
X571613Y61145D02*
D03*
X567003D02*
D03*
Y65100D02*
D03*
X571736Y308079D02*
D03*
X569171Y308649D02*
D03*
X565900Y302826D02*
D03*
X548614Y225969D02*
D03*
Y221251D02*
D03*
X546337Y225967D02*
D03*
X534500Y302827D02*
D03*
X531621Y302805D02*
D03*
X484781Y225800D02*
D03*
X482505Y225798D02*
D03*
X484781Y221081D02*
D03*
X241782Y30347D02*
D03*
Y26347D02*
D03*
Y22347D02*
D03*
X241752Y15998D02*
D03*
X194030Y96461D02*
D03*
X190882D02*
D03*
X187733D02*
D03*
X184546Y96563D02*
D03*
X181397D02*
D03*
X178249D02*
D03*
X174831Y96589D02*
D03*
X171683D02*
D03*
X168534D02*
D03*
X192529Y94100D02*
D03*
X189381D02*
D03*
X186232D02*
D03*
X183080D02*
D03*
X179932D02*
D03*
X176784D02*
D03*
X173335D02*
D03*
X170186D02*
D03*
X167037D02*
D03*
X443202Y77666D02*
D03*
Y73111D02*
D03*
Y68555D02*
D03*
Y64000D02*
D03*
X437887Y77666D02*
D03*
Y73111D02*
D03*
Y68555D02*
D03*
Y64000D02*
D03*
X433000D02*
D03*
Y68555D02*
D03*
Y73111D02*
D03*
Y77666D02*
D03*
X222244Y141417D02*
D03*
X215000D02*
D03*
Y147301D02*
D03*
X222354D02*
D03*
Y152000D02*
D03*
X215000D02*
D03*
X230000Y140000D02*
D03*
Y144075D02*
D03*
X229500Y148000D02*
D03*
Y152420D02*
D03*
X312389Y166873D02*
D03*
X318079Y167000D02*
D03*
X315157D02*
D03*
X545299Y202493D02*
D03*
X548132D02*
D03*
Y199909D02*
D03*
X389068Y221081D02*
D03*
X386650Y223500D02*
D03*
X393750Y202252D02*
D03*
X484300Y199740D02*
D03*
Y202324D02*
D03*
X481467D02*
D03*
X102282Y162393D02*
D03*
X105795Y178987D02*
D03*
X56047Y174709D02*
D03*
X28860Y174118D02*
D03*
X489900Y20000D02*
D03*
X491764Y27850D02*
D03*
Y31813D02*
D03*
Y35972D02*
D03*
X481306Y42285D02*
D03*
Y51731D02*
D03*
Y48583D02*
D03*
Y45434D02*
D03*
X484850Y45571D02*
D03*
Y48719D02*
D03*
Y51868D02*
D03*
Y42422D02*
D03*
X362851Y94506D02*
D03*
Y96973D02*
D03*
X358702Y94506D02*
D03*
Y96973D02*
D03*
X384703Y17625D02*
D03*
X377000D02*
D03*
X384380Y25233D02*
D03*
X380690D02*
D03*
X377000D02*
D03*
X380690Y28913D02*
D03*
X384380D02*
D03*
X377000D02*
D03*
X297050Y39570D02*
D03*
X300050D02*
D03*
X307000Y36969D02*
D03*
Y31768D02*
D03*
Y39570D02*
D03*
Y34369D02*
D03*
X304000D02*
D03*
Y39570D02*
D03*
Y31768D02*
D03*
Y36969D02*
D03*
X233543Y38250D02*
D03*
Y47696D02*
D03*
Y44547D02*
D03*
Y41399D02*
D03*
X230000Y41262D02*
D03*
Y44410D02*
D03*
Y47559D02*
D03*
Y38113D02*
D03*
D170*
X521317Y354052D02*
D03*
X532663Y377026D02*
D03*
X499832Y343742D02*
D03*
X497863Y349126D02*
D03*
X519877Y382992D02*
D03*
D199*
X621000Y0D02*
Y87000D01*
Y88000D01*
X800000D01*
X712000Y0D02*
Y88000D01*
D218*
X443161Y279743D02*
D03*
X441161D02*
D03*
X441584Y299578D02*
D03*
X443584D02*
D03*
X409781Y341631D02*
D03*
D03*
X400000Y351441D02*
D03*
X402114Y353668D02*
D03*
X409762Y349505D02*
D03*
D03*
X409747Y352675D02*
D03*
D03*
X417546Y349595D02*
D03*
D03*
X425510Y349505D02*
D03*
D03*
X411748Y390811D02*
D03*
X396000Y359315D02*
D03*
X411748Y382937D02*
D03*
Y398685D02*
D03*
Y375063D02*
D03*
X399937Y379000D02*
D03*
X407811Y371126D02*
D03*
X474888Y367233D02*
D03*
X489647Y366534D02*
D03*
X421632Y344929D02*
D03*
X413699Y353442D02*
D03*
Y357379D02*
D03*
X421632Y345067D02*
D03*
X421637Y349451D02*
D03*
D03*
X490101Y350504D02*
D03*
X489851Y372431D02*
D03*
X419622Y379000D02*
D03*
X427525Y371126D02*
D03*
X423559Y386876D02*
D03*
X427525D02*
D03*
X419622Y382937D02*
D03*
X413699Y361316D02*
D03*
X519165Y365648D02*
D03*
X409762Y361316D02*
D03*
X488051Y349004D02*
D03*
X433384Y365253D02*
D03*
X528670Y355749D02*
D03*
X514558Y375985D02*
D03*
X425475Y369357D02*
D03*
X497863Y354281D02*
D03*
X521317Y375706D02*
D03*
X433384Y373290D02*
D03*
X405825Y353442D02*
D03*
X521377Y360473D02*
D03*
X427496Y402622D02*
D03*
X417654Y366239D02*
D03*
X483141Y348600D02*
D03*
X396000Y363252D02*
D03*
X427496Y339630D02*
D03*
X399937Y363252D02*
D03*
X534063Y398794D02*
D03*
X537849Y384306D02*
D03*
X527037Y357323D02*
D03*
X399937Y359315D02*
D03*
X550888Y347334D02*
D03*
X479636Y362634D02*
D03*
X537849Y353594D02*
D03*
X532663Y360473D02*
D03*
X550888Y371810D02*
D03*
X504990Y398268D02*
D03*
X499832Y398512D02*
D03*
X501510Y395426D02*
D03*
X431433Y406559D02*
D03*
X513963Y366607D02*
D03*
X497399Y365253D02*
D03*
X502520Y360473D02*
D03*
X496230Y352686D02*
D03*
X513898Y354052D02*
D03*
X425373Y357928D02*
D03*
X511245Y334844D02*
D03*
X511289Y398268D02*
D03*
X431386Y394748D02*
D03*
X525772Y400686D02*
D03*
X423559Y394748D02*
D03*
X525501Y384134D02*
D03*
X431433Y386874D02*
D03*
X547388Y375710D02*
D03*
X519165Y373127D02*
D03*
X421573Y365253D02*
D03*
X479636Y366534D02*
D03*
X433384Y369190D02*
D03*
X508140Y363623D02*
D03*
X425510Y361316D02*
D03*
X496963Y385670D02*
D03*
X509675Y377826D02*
D03*
X514554Y358243D02*
D03*
X399937Y367189D02*
D03*
X550888Y351234D02*
D03*
X547387Y367910D02*
D03*
X521785Y368386D02*
D03*
X396000Y355378D02*
D03*
X550888Y360027D02*
D03*
X488533Y387288D02*
D03*
X483141Y391855D02*
D03*
X517353Y375515D02*
D03*
X448803Y380767D02*
D03*
X417636Y361316D02*
D03*
X508140Y395119D02*
D03*
X537849Y371666D02*
D03*
X537849Y363184D02*
D03*
X479549Y352940D02*
D03*
X522945Y334846D02*
D03*
X500016Y384355D02*
D03*
X427525Y382926D02*
D03*
X501391Y380285D02*
D03*
X429447Y373127D02*
D03*
X514432Y379371D02*
D03*
X433384Y377064D02*
D03*
X534098Y368386D02*
D03*
X437974Y359079D02*
D03*
X417850Y357646D02*
D03*
X439845Y365485D02*
D03*
X405825Y361316D02*
D03*
X479910Y373252D02*
D03*
X527037Y360473D02*
D03*
X547388Y355134D02*
D03*
X433384Y361316D02*
D03*
X513963Y360473D02*
D03*
X409777Y357379D02*
D03*
X519045Y334845D02*
D03*
X527037Y349149D02*
D03*
X475963Y353442D02*
D03*
X421591Y357773D02*
D03*
X550887Y367910D02*
D03*
X487301Y376658D02*
D03*
X437321Y363623D02*
D03*
X514558Y373426D02*
D03*
X405825Y357379D02*
D03*
X478790Y386821D02*
D03*
X504990Y391969D02*
D03*
X515017Y391926D02*
D03*
X431433Y390811D02*
D03*
X523888Y388819D02*
D03*
X427525Y390936D02*
D03*
X496963Y375930D02*
D03*
X526845Y334846D02*
D03*
X515145Y334844D02*
D03*
X521963Y399926D02*
D03*
X423559Y402622D02*
D03*
X514558Y383210D02*
D03*
X423567Y379000D02*
D03*
X528549Y384024D02*
D03*
X433384Y381001D02*
D03*
X519165Y369190D02*
D03*
X550888Y375710D02*
D03*
X425229Y365300D02*
D03*
X479451Y382325D02*
D03*
X530745Y334830D02*
D03*
X479841Y376997D02*
D03*
X525963Y390926D02*
D03*
X427496Y406559D02*
D03*
X491651Y349004D02*
D03*
X509640Y358765D02*
D03*
X429573Y365273D02*
D03*
X507345Y334844D02*
D03*
X550888Y355134D02*
D03*
X508140Y398268D02*
D03*
X431433Y402622D02*
D03*
X423559Y382937D02*
D03*
X344819Y331756D02*
D03*
X352693Y343567D02*
D03*
X344819Y347504D02*
D03*
X336945Y339630D02*
D03*
Y323882D02*
D03*
Y355378D02*
D03*
X324582Y349237D02*
D03*
X314219Y351446D02*
D03*
Y353446D02*
D03*
X324582Y347237D02*
D03*
X686000Y279436D02*
D03*
X415685Y335693D02*
D03*
X700161Y246126D02*
D03*
X427496Y316008D02*
D03*
X716044Y284472D02*
D03*
X415685Y339630D02*
D03*
X713453Y278217D02*
D03*
X403874Y339630D02*
D03*
X372378D02*
D03*
X711726Y274046D02*
D03*
X411748Y335693D02*
D03*
X708938Y267317D02*
D03*
X415685Y331756D02*
D03*
X707435Y263688D02*
D03*
X419622Y327819D02*
D03*
X364504Y323882D02*
D03*
X356630Y402622D02*
D03*
X368441Y335693D02*
D03*
X415685Y327819D02*
D03*
X686000Y263402D02*
D03*
Y259465D02*
D03*
X427496Y319945D02*
D03*
X340882Y323882D02*
D03*
X348777Y402622D02*
D03*
X686000Y268842D02*
D03*
X423559Y327819D02*
D03*
X364504Y319945D02*
D03*
X340882Y339630D02*
D03*
X419622Y410496D02*
D03*
Y319945D02*
D03*
X686000Y255528D02*
D03*
X431433Y316008D02*
D03*
X686000Y251591D02*
D03*
Y272805D02*
D03*
X407811Y335693D02*
D03*
X396000Y351441D02*
D03*
Y375063D02*
D03*
X392063Y347504D02*
D03*
X739541Y138489D02*
D03*
X392063Y363252D02*
D03*
Y371126D02*
D03*
X388126Y359315D02*
D03*
X392063Y355378D02*
D03*
X388126Y351441D02*
D03*
X738479Y133284D02*
D03*
X384189Y371126D02*
D03*
X380252Y367189D02*
D03*
X388126D02*
D03*
X384189Y363252D02*
D03*
X376315Y371126D02*
D03*
X372378Y375063D02*
D03*
X368441Y371126D02*
D03*
X376315Y363252D02*
D03*
X372378Y367189D02*
D03*
X384189Y355378D02*
D03*
X380284Y303561D02*
D03*
X380252Y351441D02*
D03*
X382284Y294611D02*
D03*
Y303561D02*
D03*
X380413Y284161D02*
D03*
X380284Y294611D02*
D03*
X380252Y359315D02*
D03*
X376315Y355378D02*
D03*
X372378Y359315D02*
D03*
X378413Y284161D02*
D03*
X372378Y351441D02*
D03*
X368441Y347504D02*
D03*
X762648Y160428D02*
D03*
X441584Y289672D02*
D03*
X431433Y319945D02*
D03*
X423559D02*
D03*
X411748Y339630D02*
D03*
X396000Y343567D02*
D03*
X399937Y347504D02*
D03*
X396000D02*
D03*
X686000Y286000D02*
D03*
Y289937D02*
D03*
Y293874D02*
D03*
X719512Y292844D02*
D03*
X717675Y288409D02*
D03*
X705053Y257937D02*
D03*
X703422Y254000D02*
D03*
X753728Y168333D02*
D03*
X772915Y164833D02*
D03*
X766448Y166915D02*
D03*
X792750Y149502D02*
D03*
X727930Y123661D02*
D03*
X787948Y117431D02*
D03*
X451485Y422216D02*
D03*
Y424216D02*
D03*
X440335Y419315D02*
D03*
Y417314D02*
D03*
X352693Y367189D02*
D03*
X348756D02*
D03*
X364504Y363252D02*
D03*
X356630Y371126D02*
D03*
X344819Y359315D02*
D03*
X348756D02*
D03*
X333008Y331756D02*
D03*
X360567Y359315D02*
D03*
X333008Y339630D02*
D03*
X344819Y319945D02*
D03*
X364504Y327819D02*
D03*
X427496Y339630D02*
D03*
X396000Y335693D02*
D03*
X411748Y331756D02*
D03*
X413043Y430671D02*
D03*
X443584Y289672D02*
D03*
X419622Y331756D02*
D03*
X427496Y323882D02*
D03*
X411043Y430671D02*
D03*
X407297Y419771D02*
D03*
X405296D02*
D03*
X403874Y406559D02*
D03*
X388126D02*
D03*
X396000Y390811D02*
D03*
Y398685D02*
D03*
X388126Y386874D02*
D03*
X399937Y343567D02*
D03*
X388126Y335693D02*
D03*
X423559Y316008D02*
D03*
X410321Y298959D02*
D03*
X408321D02*
D03*
X399937Y323882D02*
D03*
X407830Y316122D02*
D03*
X392063Y316008D02*
D03*
X407028Y288902D02*
D03*
X405028D02*
D03*
X372378Y406559D02*
D03*
X380252Y394748D02*
D03*
X372378Y390811D02*
D03*
X364504Y398685D02*
D03*
X356630Y406559D02*
D03*
X348756Y410496D02*
D03*
X352693Y390811D02*
D03*
Y398685D02*
D03*
X344819Y394748D02*
D03*
X368441Y386874D02*
D03*
X360567D02*
D03*
X380252Y375063D02*
D03*
X364504D02*
D03*
X344819Y382937D02*
D03*
X336945Y386874D02*
D03*
X352693Y379000D02*
D03*
X313413Y388320D02*
D03*
X324513Y380323D02*
D03*
X313413Y386320D02*
D03*
X324513Y382324D02*
D03*
X384189Y347504D02*
D03*
X368441Y355378D02*
D03*
X380252Y339630D02*
D03*
X376315Y335693D02*
D03*
X356630Y355378D02*
D03*
X364504Y343567D02*
D03*
X348756Y351441D02*
D03*
X344819Y363252D02*
D03*
X364504Y335693D02*
D03*
X352693Y331756D02*
D03*
X384189Y327819D02*
D03*
X368441Y323882D02*
D03*
X376315Y316008D02*
D03*
X348756Y319945D02*
D03*
X360567Y316008D02*
D03*
X336945Y371126D02*
D03*
X333452Y301482D02*
D03*
X331452D02*
D03*
X325455Y290582D02*
D03*
X327455D02*
D03*
X323910Y319686D02*
D03*
Y317686D02*
D03*
X313682Y325984D02*
D03*
Y323984D02*
D03*
X368441Y363252D02*
D03*
X360567Y367189D02*
D03*
X340882Y406559D02*
D03*
X344819Y351441D02*
D03*
X352693Y359315D02*
D03*
X364504Y351441D02*
D03*
Y359315D02*
D03*
X368441D02*
D03*
X356630Y327819D02*
D03*
X368441Y343567D02*
D03*
Y331756D02*
D03*
X423559Y410496D02*
D03*
X419622Y406559D02*
D03*
X380252Y335693D02*
D03*
X356630Y367189D02*
D03*
X364504D02*
D03*
X368441D02*
D03*
X364504Y382937D02*
D03*
X340882Y319945D02*
D03*
X348756Y331756D02*
D03*
X356630Y363252D02*
D03*
X340882Y359315D02*
D03*
X372378Y319945D02*
D03*
X368441D02*
D03*
X372378Y323882D02*
D03*
X380252Y312071D02*
D03*
Y316008D02*
D03*
X344819Y375063D02*
D03*
X348756Y371126D02*
D03*
X360567D02*
D03*
X356630Y339630D02*
D03*
X348756Y323882D02*
D03*
X344819Y355378D02*
D03*
X364504Y347504D02*
D03*
X368441Y351441D02*
D03*
X333008Y363252D02*
D03*
X340882Y331756D02*
D03*
X356630Y323882D02*
D03*
X372378Y327819D02*
D03*
X380252Y343567D02*
D03*
X364504Y371126D02*
D03*
X348756Y375063D02*
D03*
X360567Y379000D02*
D03*
X364504D02*
D03*
X344819Y327819D02*
D03*
X364504Y355378D02*
D03*
X376315Y331756D02*
D03*
X368441Y327819D02*
D03*
X372378Y331756D02*
D03*
X333008Y323882D02*
D03*
X352693Y355378D02*
D03*
Y375063D02*
D03*
X368441Y379000D02*
D03*
X364504Y386874D02*
D03*
X340882Y363252D02*
D03*
X356630Y410496D02*
D03*
Y359315D02*
D03*
X368441Y375063D02*
D03*
X340882Y398685D02*
D03*
X344819D02*
D03*
X360567D02*
D03*
Y390811D02*
D03*
X372378Y379000D02*
D03*
X333008Y367189D02*
D03*
X352693Y327819D02*
D03*
X372378Y335693D02*
D03*
X352693Y339630D02*
D03*
X348756D02*
D03*
Y335693D02*
D03*
X340882Y390811D02*
D03*
X344819D02*
D03*
X356630Y375063D02*
D03*
X360567Y402622D02*
D03*
Y355378D02*
D03*
X336945Y367189D02*
D03*
X356630Y331756D02*
D03*
X340882Y312071D02*
D03*
X745250Y95750D02*
D03*
X770000D02*
D03*
X744532Y79555D02*
D03*
X769478Y80097D02*
D03*
X741032Y79555D02*
D03*
X765978Y80097D02*
D03*
X738479Y48750D02*
D03*
X758000Y48750D02*
D03*
X787667Y81000D02*
D03*
D221*
X800000Y0D02*
Y475000D01*
X0D02*
X800000D01*
X0Y0D02*
Y475000D01*
Y0D02*
X800000D01*
D222*
X16881Y226296D02*
D03*
Y269296D02*
D03*
X17510Y328684D02*
D03*
X18510Y370684D02*
D03*
D223*
X6881Y216296D02*
D03*
Y236296D02*
D03*
X26881Y216296D02*
D03*
Y236296D02*
D03*
X6881Y259296D02*
D03*
Y279296D02*
D03*
X26881Y259296D02*
D03*
Y279296D02*
D03*
X7510Y318684D02*
D03*
Y338684D02*
D03*
X27510Y318684D02*
D03*
Y338684D02*
D03*
X8510Y360684D02*
D03*
Y380684D02*
D03*
X28510Y360684D02*
D03*
Y380684D02*
D03*
D224*
X771654Y448819D02*
D03*
X576772Y17717D02*
D03*
X29528Y448819D02*
D03*
X220472Y17717D02*
D03*
D225*
X515537Y450051D02*
D03*
X495537D02*
D03*
X279002Y275248D02*
D03*
X259002D02*
D03*
D226*
X754713Y154798D02*
D03*
X758925D02*
D03*
X754713Y150585D02*
D03*
X758925D02*
D03*
X750500D02*
D03*
Y154798D02*
D03*
X758925Y146373D02*
D03*
X754713D02*
D03*
X750500D02*
D03*
D227*
X149535Y84695D02*
D03*
X116465D02*
D03*
X133000D02*
D03*
D228*
X762000Y32000D02*
D03*
X774000Y58000D02*
D03*
X729000D02*
D03*
X738000D02*
D03*
X783000D02*
D03*
X742000Y39000D02*
D03*
X750000D02*
D03*
X758000D02*
D03*
X766000D02*
D03*
X746000Y32000D02*
D03*
X754000D02*
D03*
X770000D02*
D03*
D229*
X731000Y22000D02*
D03*
X781000D02*
D03*
D231*
X149535Y63041D02*
D03*
X133000D02*
D03*
X116465D02*
D03*
D232*
Y34301D02*
D03*
X149535D02*
D03*
D233*
X82528Y29500D02*
D03*
X62843D02*
D03*
X43157D02*
D03*
X23472D02*
D03*
D234*
X687701Y24232D02*
D03*
X640299D02*
D03*
D235*
X668921Y34862D02*
D03*
X659079D02*
D03*
Y42736D02*
D03*
X668921D02*
D03*
D236*
X62260Y352584D02*
D03*
X66591D02*
D03*
X62260Y348253D02*
D03*
X66591D02*
D03*
X205287Y420491D02*
D03*
X209618D02*
D03*
X213948D02*
D03*
X218279D02*
D03*
X222610D02*
D03*
X205287Y416160D02*
D03*
X209618D02*
D03*
X213948D02*
D03*
X218279D02*
D03*
X222610D02*
D03*
X205287Y411829D02*
D03*
X209618D02*
D03*
X213948D02*
D03*
X218279D02*
D03*
X222610D02*
D03*
X205287Y407499D02*
D03*
X209618D02*
D03*
X213948D02*
D03*
X218279D02*
D03*
X222610D02*
D03*
X205287Y403168D02*
D03*
X209618D02*
D03*
X213948D02*
D03*
X218279D02*
D03*
X222610D02*
D03*
M02*
