G04*
G04 #@! TF.GenerationSoftware,Altium Limited,Altium Designer,26.2.0 (7)*
G04*
G04 Layer_Physical_Order=7*
G04 Layer_Color=128*
%FSLAX25Y25*%
%MOIN*%
G70*
G04*
G04 #@! TF.SameCoordinates,B4A42267-10C6-43D6-8E6F-C0A9A178EC5E*
G04*
G04*
G04 #@! TF.FilePolarity,Negative*
G04*
G01*
G75*
%ADD15C,0.02000*%
%ADD169C,0.02400*%
%ADD170C,0.02200*%
%ADD218C,0.02000*%
%ADD221C,0.04000*%
%ADD222C,0.07696*%
%ADD228C,0.04700*%
%ADD229C,0.14000*%
%ADD231C,0.08300*%
%ADD232C,0.13000*%
%ADD233C,0.06318*%
%ADD234C,0.10255*%
%ADD235C,0.04743*%
%ADD236C,0.01987*%
%ADD238C,0.14192*%
%ADD239C,0.05019*%
%ADD240C,0.02578*%
%ADD241C,0.02381*%
D15*
X250000Y0D02*
Y96000D01*
X0Y140000D02*
X177000D01*
X250000D01*
X0Y211000D02*
X331000D01*
X612000D01*
Y0D02*
Y211000D01*
X250000Y96000D02*
Y140000D01*
X0Y198000D02*
Y211000D01*
X364000D02*
Y270000D01*
Y430000D01*
X0D02*
X364000D01*
Y211000D02*
X374000D01*
X513000D02*
X516000D01*
X513000D02*
Y306000D01*
X396000D02*
X513000D01*
X396000Y475000D02*
X396000Y306000D01*
X0Y402000D02*
Y430000D01*
D169*
X542086Y232805D02*
D03*
X479457Y233318D02*
D03*
X314025Y234130D02*
D03*
X562000Y35394D02*
D03*
X307748Y172000D02*
D03*
X199502Y147579D02*
D03*
X485107Y24000D02*
D03*
X410799Y67369D02*
D03*
X346394Y96973D02*
D03*
X307551Y25554D02*
D03*
X237000Y11000D02*
D03*
X542488Y307000D02*
D03*
X553512Y308969D02*
D03*
X586446Y316955D02*
D03*
X537326Y299235D02*
D03*
X550187Y297458D02*
D03*
X562487Y299235D02*
D03*
X558471D02*
D03*
X566371Y312186D02*
D03*
X562471Y312189D02*
D03*
X558471Y312218D02*
D03*
X535984Y310719D02*
D03*
Y307219D02*
D03*
X571514Y65100D02*
D03*
X578207D02*
D03*
X575000Y61145D02*
D03*
X578010D02*
D03*
X575000Y65100D02*
D03*
X571613Y61145D02*
D03*
X567003D02*
D03*
Y65100D02*
D03*
X571736Y308079D02*
D03*
X569171Y308649D02*
D03*
X515553Y453534D02*
D03*
X495582Y453450D02*
D03*
X279002Y271630D02*
D03*
X258946D02*
D03*
X565900Y230750D02*
D03*
X561418Y214340D02*
D03*
X554937Y217413D02*
D03*
X542754Y221081D02*
D03*
X541967Y199740D02*
D03*
X571613Y84750D02*
D03*
X542000Y57637D02*
D03*
X534000Y51067D02*
D03*
X520000Y32000D02*
D03*
X510000Y47240D02*
D03*
X513000Y27850D02*
D03*
X513150Y20000D02*
D03*
X503050Y230750D02*
D03*
X490937Y217413D02*
D03*
X477967Y221081D02*
D03*
X403337Y228750D02*
D03*
X339901Y231330D02*
D03*
X496677Y215282D02*
D03*
X477967Y199724D02*
D03*
X500000Y47240D02*
D03*
X498749Y36000D02*
D03*
Y28000D02*
D03*
Y32000D02*
D03*
X407780Y213250D02*
D03*
X401937Y216413D02*
D03*
X384800Y216000D02*
D03*
X390250Y199000D02*
D03*
X418703Y33971D02*
D03*
X451958Y32157D02*
D03*
X449392D02*
D03*
X454471D02*
D03*
X418703Y21471D02*
D03*
X407447Y126663D02*
D03*
Y129229D02*
D03*
X413702Y109223D02*
D03*
X407447Y131741D02*
D03*
X406202Y96471D02*
D03*
X352702Y89623D02*
D03*
X336750Y218000D02*
D03*
X326937Y218413D02*
D03*
X314754Y222040D02*
D03*
X315344Y201199D02*
D03*
X315500Y147300D02*
D03*
X207000Y184800D02*
D03*
Y180000D02*
D03*
Y174500D02*
D03*
Y129000D02*
D03*
X317468Y74973D02*
D03*
X314901D02*
D03*
X312389D02*
D03*
X289504Y55386D02*
D03*
X286938D02*
D03*
X284426D02*
D03*
X279850Y43070D02*
D03*
X280000Y26250D02*
D03*
X261346Y15999D02*
D03*
X246501Y42240D02*
D03*
X256501D02*
D03*
X254850Y28000D02*
D03*
X245284Y26347D02*
D03*
X245282Y22347D02*
D03*
Y30347D02*
D03*
X179288Y27746D02*
D03*
Y24598D02*
D03*
X175461Y27723D02*
D03*
Y24574D02*
D03*
X46937Y172937D02*
D03*
X43000D02*
D03*
X46937Y169000D02*
D03*
X43000Y165063D02*
D03*
X46937D02*
D03*
X43000Y169000D02*
D03*
X39063D02*
D03*
Y165063D02*
D03*
Y172937D02*
D03*
X104630Y116077D02*
D03*
Y119226D02*
D03*
Y112929D02*
D03*
X534500Y302827D02*
D03*
X531621Y302805D02*
D03*
X484781Y225800D02*
D03*
X482505Y225798D02*
D03*
X484781Y221081D02*
D03*
X443202Y77666D02*
D03*
Y73111D02*
D03*
Y68555D02*
D03*
Y64000D02*
D03*
X437887Y77666D02*
D03*
Y73111D02*
D03*
Y68555D02*
D03*
Y64000D02*
D03*
X433000D02*
D03*
Y68555D02*
D03*
Y73111D02*
D03*
Y77666D02*
D03*
X222244Y141417D02*
D03*
X215000D02*
D03*
Y147301D02*
D03*
X222354D02*
D03*
Y152000D02*
D03*
X215000D02*
D03*
X230000Y140000D02*
D03*
Y144075D02*
D03*
X229500Y148000D02*
D03*
Y152420D02*
D03*
X545299Y202493D02*
D03*
X548132D02*
D03*
Y199909D02*
D03*
X393750Y202252D02*
D03*
X484300Y199740D02*
D03*
Y202324D02*
D03*
X481467D02*
D03*
X102282Y162393D02*
D03*
X105795Y178987D02*
D03*
X28860Y174118D02*
D03*
D170*
X503087Y335000D02*
D03*
X521317Y354052D02*
D03*
X532663Y377026D02*
D03*
X499832Y343742D02*
D03*
X497863Y349126D02*
D03*
X519877Y382992D02*
D03*
X519000Y91000D02*
D03*
Y85000D02*
D03*
Y73000D02*
D03*
Y79000D02*
D03*
Y67000D02*
D03*
X516000Y76000D02*
D03*
Y70000D02*
D03*
Y88000D02*
D03*
X513000Y85000D02*
D03*
X516000Y82000D02*
D03*
X513000Y91000D02*
D03*
X510000Y82000D02*
D03*
X513000Y79000D02*
D03*
Y73000D02*
D03*
X510000Y76000D02*
D03*
Y70000D02*
D03*
X519000Y61000D02*
D03*
X516000Y64000D02*
D03*
X513000Y61000D02*
D03*
Y67000D02*
D03*
X510000Y64000D02*
D03*
X507000Y91000D02*
D03*
X501000D02*
D03*
X504000Y88000D02*
D03*
X510000D02*
D03*
X507000Y85000D02*
D03*
X504000Y82000D02*
D03*
X501000Y85000D02*
D03*
Y79000D02*
D03*
X507000Y73000D02*
D03*
Y79000D02*
D03*
X504000Y70000D02*
D03*
Y76000D02*
D03*
X501000Y73000D02*
D03*
X507000Y67000D02*
D03*
X504000Y64000D02*
D03*
X507000Y61000D02*
D03*
X501000Y67000D02*
D03*
Y61000D02*
D03*
X265501Y80000D02*
D03*
Y86000D02*
D03*
X259501D02*
D03*
X262501Y83000D02*
D03*
X253501Y86000D02*
D03*
X256501Y83000D02*
D03*
X259501Y80000D02*
D03*
X262501Y77000D02*
D03*
X253501Y80000D02*
D03*
X256501Y77000D02*
D03*
X250501Y83000D02*
D03*
X247501Y80000D02*
D03*
X250501Y77000D02*
D03*
X247501Y86000D02*
D03*
X265501Y68000D02*
D03*
Y74000D02*
D03*
Y62000D02*
D03*
X262501Y71000D02*
D03*
Y65000D02*
D03*
Y59000D02*
D03*
X265501Y56000D02*
D03*
X259501Y68000D02*
D03*
Y74000D02*
D03*
X256501Y65000D02*
D03*
Y71000D02*
D03*
X253501Y68000D02*
D03*
X259501Y62000D02*
D03*
X256501Y59000D02*
D03*
X259501Y56000D02*
D03*
X253501Y62000D02*
D03*
Y56000D02*
D03*
Y74000D02*
D03*
X250501Y71000D02*
D03*
Y65000D02*
D03*
X247501Y74000D02*
D03*
Y68000D02*
D03*
X250501Y59000D02*
D03*
X247501Y56000D02*
D03*
Y62000D02*
D03*
D218*
X443161Y279743D02*
D03*
X441161D02*
D03*
X441584Y299578D02*
D03*
X443584D02*
D03*
X409781Y341631D02*
D03*
D03*
X400000Y351441D02*
D03*
X402114Y353668D02*
D03*
X409762Y349505D02*
D03*
D03*
X436884Y299578D02*
D03*
X434884D02*
D03*
X417546Y349595D02*
D03*
D03*
X425510Y349505D02*
D03*
D03*
X411748Y390811D02*
D03*
X407811Y386874D02*
D03*
X396000Y359315D02*
D03*
X403874Y398685D02*
D03*
X411748Y375063D02*
D03*
X399937Y379000D02*
D03*
X403874Y367189D02*
D03*
X415668Y371109D02*
D03*
X474888Y367233D02*
D03*
X496837Y371845D02*
D03*
X489647Y366534D02*
D03*
X421632Y344929D02*
D03*
X413699Y353442D02*
D03*
Y357379D02*
D03*
X421632Y345067D02*
D03*
X416264Y353956D02*
D03*
X421637Y349451D02*
D03*
D03*
X490101Y350504D02*
D03*
X489851Y372431D02*
D03*
X419622Y379000D02*
D03*
X430418Y377064D02*
D03*
X423559Y386876D02*
D03*
X419622Y386874D02*
D03*
X413699Y361316D02*
D03*
X519165Y365648D02*
D03*
X409762Y361316D02*
D03*
X488051Y349004D02*
D03*
X433384Y365253D02*
D03*
X528670Y355749D02*
D03*
X514558Y375985D02*
D03*
X425475Y369357D02*
D03*
X427496Y394748D02*
D03*
X427392Y364751D02*
D03*
X427403Y345954D02*
D03*
X497863Y354281D02*
D03*
X521317Y375706D02*
D03*
X433384Y373290D02*
D03*
X405825Y353442D02*
D03*
X521377Y360473D02*
D03*
X483141Y348600D02*
D03*
X396000Y363252D02*
D03*
X427496Y339630D02*
D03*
X491722Y382411D02*
D03*
X527037Y357323D02*
D03*
X399937Y359315D02*
D03*
X550888Y347334D02*
D03*
X479636Y362634D02*
D03*
X550888Y371810D02*
D03*
X501510Y395426D02*
D03*
X431433Y406559D02*
D03*
X513898Y354052D02*
D03*
X425373Y357928D02*
D03*
X537849Y350094D02*
D03*
X511245Y334844D02*
D03*
X511289Y398268D02*
D03*
X431386Y394748D02*
D03*
X532428Y396768D02*
D03*
X525772Y400686D02*
D03*
X423559Y394748D02*
D03*
X528572Y387302D02*
D03*
X525501Y384134D02*
D03*
X431433Y386874D02*
D03*
X496963Y382498D02*
D03*
X528601Y380965D02*
D03*
X537849Y395355D02*
D03*
X547388Y375710D02*
D03*
X519165Y373127D02*
D03*
X421573Y365253D02*
D03*
X479636Y366534D02*
D03*
X433384Y369190D02*
D03*
X501391Y365009D02*
D03*
X508140Y363623D02*
D03*
X425510Y361316D02*
D03*
X502214Y357366D02*
D03*
X537849Y380867D02*
D03*
X514554Y358243D02*
D03*
X399937Y367189D02*
D03*
X550888Y351234D02*
D03*
X547387Y367910D02*
D03*
X521785Y368386D02*
D03*
X396000Y355378D02*
D03*
X550888Y360027D02*
D03*
X488533Y387288D02*
D03*
X483141Y391855D02*
D03*
X517353Y375515D02*
D03*
X448803Y380767D02*
D03*
X417636Y361316D02*
D03*
X537849Y363184D02*
D03*
X479549Y352940D02*
D03*
X522945Y334846D02*
D03*
X532428Y393836D02*
D03*
X501351Y392426D02*
D03*
X500016Y384355D02*
D03*
X427525Y382926D02*
D03*
X501391Y380285D02*
D03*
X429447Y373127D02*
D03*
X514432Y379371D02*
D03*
X433384Y377064D02*
D03*
X532713Y379348D02*
D03*
X528660Y374655D02*
D03*
X534098Y368386D02*
D03*
X437974Y359079D02*
D03*
X417850Y357646D02*
D03*
X489866Y395514D02*
D03*
X439845Y365485D02*
D03*
X405825Y361316D02*
D03*
X479910Y373252D02*
D03*
X527037Y360473D02*
D03*
X547388Y355134D02*
D03*
X433384Y361316D02*
D03*
X532428Y355926D02*
D03*
X513963Y360473D02*
D03*
X409777Y357379D02*
D03*
X519045Y334845D02*
D03*
X527037Y349149D02*
D03*
X475963Y353442D02*
D03*
X421591Y357773D02*
D03*
X550887Y367910D02*
D03*
X537849Y368227D02*
D03*
X487301Y376658D02*
D03*
X437321Y363623D02*
D03*
X514558Y373426D02*
D03*
X405825Y357379D02*
D03*
X478790Y386821D02*
D03*
X515017Y391926D02*
D03*
X431433Y390811D02*
D03*
X523888Y388819D02*
D03*
X427525Y390936D02*
D03*
X496963Y375930D02*
D03*
X537849Y359745D02*
D03*
X550889Y363927D02*
D03*
X526845Y334846D02*
D03*
X515145Y334844D02*
D03*
X521963Y399926D02*
D03*
X423559Y402622D02*
D03*
X511289Y395119D02*
D03*
X514558Y383210D02*
D03*
X423567Y379000D02*
D03*
X528549Y384024D02*
D03*
X433384Y381001D02*
D03*
X532735Y382476D02*
D03*
X519165Y369190D02*
D03*
X550888Y375710D02*
D03*
X425229Y365300D02*
D03*
X479451Y382325D02*
D03*
X532739Y363475D02*
D03*
X531863Y351024D02*
D03*
X530745Y334830D02*
D03*
X479841Y376997D02*
D03*
X525963Y390926D02*
D03*
X427496Y406559D02*
D03*
X491651Y349004D02*
D03*
X509640Y358765D02*
D03*
X429573Y365273D02*
D03*
X507345Y334844D02*
D03*
X550888Y355134D02*
D03*
X508140Y398268D02*
D03*
X431433Y402622D02*
D03*
X504990Y395119D02*
D03*
X423559Y382937D02*
D03*
X502541Y375543D02*
D03*
X504990Y351024D02*
D03*
X686000Y279436D02*
D03*
X415685Y335693D02*
D03*
X700161Y246126D02*
D03*
X427496Y316008D02*
D03*
X716044Y284472D02*
D03*
X415685Y339630D02*
D03*
X713453Y278217D02*
D03*
X403874Y339630D02*
D03*
X372378D02*
D03*
X711726Y274046D02*
D03*
X411748Y335693D02*
D03*
X708938Y267317D02*
D03*
X415685Y331756D02*
D03*
X707435Y263688D02*
D03*
X419622Y327819D02*
D03*
X364504Y323882D02*
D03*
X356630Y402622D02*
D03*
X368441Y335693D02*
D03*
X415685Y327819D02*
D03*
X686000Y263402D02*
D03*
Y259465D02*
D03*
X427496Y319945D02*
D03*
X340882Y323882D02*
D03*
X348777Y402622D02*
D03*
X686000Y268842D02*
D03*
X423559Y327819D02*
D03*
X364504Y319945D02*
D03*
X340882Y339630D02*
D03*
X419622Y410496D02*
D03*
Y319945D02*
D03*
X686000Y255528D02*
D03*
X431433Y316008D02*
D03*
X686000Y251591D02*
D03*
Y272805D02*
D03*
X407811Y335693D02*
D03*
X396000Y351441D02*
D03*
Y375063D02*
D03*
X392063Y347504D02*
D03*
X739541Y138489D02*
D03*
X392063Y363252D02*
D03*
Y371126D02*
D03*
X388126Y359315D02*
D03*
X392063Y355378D02*
D03*
X388126Y351441D02*
D03*
X738479Y133284D02*
D03*
X384189Y371126D02*
D03*
X380252Y367189D02*
D03*
X388126D02*
D03*
X384189Y363252D02*
D03*
X376315Y371126D02*
D03*
X372378Y375063D02*
D03*
X368441Y371126D02*
D03*
X376315Y363252D02*
D03*
X372378Y367189D02*
D03*
X384189Y355378D02*
D03*
X380284Y303561D02*
D03*
X380252Y351441D02*
D03*
X382284Y294611D02*
D03*
Y303561D02*
D03*
X380413Y284161D02*
D03*
X380284Y294611D02*
D03*
X380252Y359315D02*
D03*
X376315Y355378D02*
D03*
X372378Y359315D02*
D03*
X378413Y284161D02*
D03*
X372378Y351441D02*
D03*
X368441Y347504D02*
D03*
X762648Y160428D02*
D03*
X441584Y289672D02*
D03*
X431433Y319945D02*
D03*
X423559D02*
D03*
X411748Y339630D02*
D03*
X396000Y343567D02*
D03*
X399937Y347504D02*
D03*
X396000D02*
D03*
X686000Y286000D02*
D03*
Y289937D02*
D03*
Y293874D02*
D03*
X719512Y292844D02*
D03*
X717675Y288409D02*
D03*
X705053Y257937D02*
D03*
X703422Y254000D02*
D03*
X747823Y140940D02*
D03*
X753728Y168333D02*
D03*
X772915D02*
D03*
X766448Y173615D02*
D03*
X772915Y164833D02*
D03*
X766448Y166915D02*
D03*
X792750Y149502D02*
D03*
X727930Y123661D02*
D03*
X735854Y138505D02*
D03*
X732180Y133284D02*
D03*
X740601Y122435D02*
D03*
X746923Y123661D02*
D03*
X791000Y132677D02*
D03*
X787948Y117431D02*
D03*
X794050Y123927D02*
D03*
X451485Y411618D02*
D03*
X440335Y412615D02*
D03*
Y410614D02*
D03*
X451485Y409618D02*
D03*
X431433Y410496D02*
D03*
X411748Y406559D02*
D03*
X427496Y331756D02*
D03*
X419622Y339630D02*
D03*
X403874Y343567D02*
D03*
X407811Y327819D02*
D03*
X400445Y430671D02*
D03*
X398445D02*
D03*
X400597Y419771D02*
D03*
X398596D02*
D03*
X396000Y406559D02*
D03*
X380252D02*
D03*
X392063Y375063D02*
D03*
X388126Y394748D02*
D03*
X392063Y386874D02*
D03*
X392020Y367189D02*
D03*
X388126Y371126D02*
D03*
X380252D02*
D03*
X376315Y382937D02*
D03*
X384189Y367189D02*
D03*
X376315D02*
D03*
X372378Y402622D02*
D03*
X364504Y406559D02*
D03*
X356630Y394748D02*
D03*
X372378D02*
D03*
X348756Y406559D02*
D03*
X344819Y386874D02*
D03*
X356630Y382937D02*
D03*
X372378Y371126D02*
D03*
X352693D02*
D03*
X336945Y379000D02*
D03*
X392063Y359315D02*
D03*
X388126Y363252D02*
D03*
X384189Y359315D02*
D03*
X388126Y355378D02*
D03*
X380252Y363252D02*
D03*
Y355378D02*
D03*
X392063Y351441D02*
D03*
Y339630D02*
D03*
X392006Y327762D02*
D03*
X376315Y351441D02*
D03*
X384189D02*
D03*
X376315Y359315D02*
D03*
X372378Y363252D02*
D03*
Y355378D02*
D03*
Y347504D02*
D03*
X360567Y343567D02*
D03*
Y363252D02*
D03*
X348756Y355378D02*
D03*
X336945Y363252D02*
D03*
X360567Y331756D02*
D03*
X376315Y327819D02*
D03*
X348756D02*
D03*
X344819Y339630D02*
D03*
X336945Y331756D02*
D03*
X748750Y95750D02*
D03*
X787667Y94000D02*
D03*
X773500Y95750D02*
D03*
X436884Y289672D02*
D03*
X428663Y279721D02*
D03*
X430663D02*
D03*
X434884Y289672D02*
D03*
X419622Y323882D02*
D03*
X415685Y316008D02*
D03*
X431433Y312071D02*
D03*
X419627Y288902D02*
D03*
X417021Y298959D02*
D03*
X415021D02*
D03*
X423530Y312071D02*
D03*
X417626Y288902D02*
D03*
X399937Y316008D02*
D03*
X384189D02*
D03*
X368441D02*
D03*
X352693D02*
D03*
X388984Y303561D02*
D03*
X386984D02*
D03*
X393011Y284161D02*
D03*
X391011D02*
D03*
X386984Y294611D02*
D03*
X388984D02*
D03*
X338152Y301482D02*
D03*
X340152D02*
D03*
X340054Y290582D02*
D03*
X338054D02*
D03*
X333008Y410496D02*
D03*
X324513Y373623D02*
D03*
Y375623D02*
D03*
X313413Y375722D02*
D03*
Y373722D02*
D03*
X336945Y347504D02*
D03*
X324582Y340537D02*
D03*
Y342537D02*
D03*
X333008Y312071D02*
D03*
X323910Y310986D02*
D03*
Y312986D02*
D03*
X314219Y338847D02*
D03*
Y340847D02*
D03*
X313682Y313385D02*
D03*
Y311385D02*
D03*
X352693Y367189D02*
D03*
X348756D02*
D03*
X364504Y363252D02*
D03*
X356630Y371126D02*
D03*
X344819Y359315D02*
D03*
X348756D02*
D03*
X333008Y331756D02*
D03*
X360567Y359315D02*
D03*
X333008Y339630D02*
D03*
X344819Y319945D02*
D03*
X364504Y327819D02*
D03*
X427496Y339630D02*
D03*
X396000Y335693D02*
D03*
X411748Y331756D02*
D03*
X413043Y430671D02*
D03*
X443584Y289672D02*
D03*
X419622Y331756D02*
D03*
X427496Y323882D02*
D03*
X411043Y430671D02*
D03*
X407297Y419771D02*
D03*
X405296D02*
D03*
X403874Y406559D02*
D03*
X388126D02*
D03*
X396000Y390811D02*
D03*
Y398685D02*
D03*
X388126Y386874D02*
D03*
X399937Y343567D02*
D03*
X388126Y335693D02*
D03*
X423559Y316008D02*
D03*
X410321Y298959D02*
D03*
X408321D02*
D03*
X399937Y323882D02*
D03*
X407830Y316122D02*
D03*
X392063Y316008D02*
D03*
X407028Y288902D02*
D03*
X405028D02*
D03*
X372378Y406559D02*
D03*
X380252Y394748D02*
D03*
X372378Y390811D02*
D03*
X364504Y398685D02*
D03*
X356630Y406559D02*
D03*
X348756Y410496D02*
D03*
X352693Y390811D02*
D03*
Y398685D02*
D03*
X344819Y394748D02*
D03*
X368441Y386874D02*
D03*
X360567D02*
D03*
X380252Y375063D02*
D03*
X364504D02*
D03*
X344819Y382937D02*
D03*
X336945Y386874D02*
D03*
X352693Y379000D02*
D03*
X313413Y388320D02*
D03*
X324513Y380323D02*
D03*
X313413Y386320D02*
D03*
X324513Y382324D02*
D03*
X384189Y347504D02*
D03*
X368441Y355378D02*
D03*
X380252Y339630D02*
D03*
X376315Y335693D02*
D03*
X356630Y355378D02*
D03*
X364504Y343567D02*
D03*
X348756Y351441D02*
D03*
X344819Y363252D02*
D03*
X364504Y335693D02*
D03*
X352693Y331756D02*
D03*
X384189Y327819D02*
D03*
X368441Y323882D02*
D03*
X376315Y316008D02*
D03*
X348756Y319945D02*
D03*
X360567Y316008D02*
D03*
X336945Y371126D02*
D03*
X333452Y301482D02*
D03*
X331452D02*
D03*
X325455Y290582D02*
D03*
X327455D02*
D03*
X323910Y319686D02*
D03*
Y317686D02*
D03*
X313682Y325984D02*
D03*
Y323984D02*
D03*
X368441Y363252D02*
D03*
X360567Y367189D02*
D03*
X340882Y406559D02*
D03*
X344819Y351441D02*
D03*
X352693Y359315D02*
D03*
X364504Y351441D02*
D03*
Y359315D02*
D03*
X368441D02*
D03*
X356630Y327819D02*
D03*
X368441Y343567D02*
D03*
Y331756D02*
D03*
X423559Y410496D02*
D03*
X419622Y406559D02*
D03*
X380252Y335693D02*
D03*
X356630Y367189D02*
D03*
X364504D02*
D03*
X368441D02*
D03*
X364504Y382937D02*
D03*
X340882Y319945D02*
D03*
X348756Y331756D02*
D03*
X356630Y363252D02*
D03*
X340882Y359315D02*
D03*
X372378Y319945D02*
D03*
X368441D02*
D03*
X372378Y323882D02*
D03*
X380252Y312071D02*
D03*
Y316008D02*
D03*
X344819Y375063D02*
D03*
X348756Y371126D02*
D03*
X360567D02*
D03*
X356630Y339630D02*
D03*
X348756Y323882D02*
D03*
X344819Y355378D02*
D03*
X364504Y347504D02*
D03*
X368441Y351441D02*
D03*
X333008Y363252D02*
D03*
X340882Y331756D02*
D03*
X356630Y323882D02*
D03*
X372378Y327819D02*
D03*
X380252Y343567D02*
D03*
X364504Y371126D02*
D03*
X348756Y375063D02*
D03*
X360567Y379000D02*
D03*
X364504D02*
D03*
X344819Y327819D02*
D03*
X364504Y355378D02*
D03*
X376315Y331756D02*
D03*
X368441Y327819D02*
D03*
X372378Y331756D02*
D03*
X333008Y323882D02*
D03*
X352693Y355378D02*
D03*
Y375063D02*
D03*
X368441Y379000D02*
D03*
X364504Y386874D02*
D03*
X340882Y363252D02*
D03*
X356630Y410496D02*
D03*
Y359315D02*
D03*
X368441Y375063D02*
D03*
X340882Y398685D02*
D03*
X344819D02*
D03*
X360567D02*
D03*
Y390811D02*
D03*
X372378Y379000D02*
D03*
X333008Y367189D02*
D03*
X352693Y327819D02*
D03*
X372378Y335693D02*
D03*
X352693Y339630D02*
D03*
X348756D02*
D03*
Y335693D02*
D03*
X340882Y390811D02*
D03*
X344819D02*
D03*
X356630Y375063D02*
D03*
X360567Y402622D02*
D03*
Y355378D02*
D03*
X336945Y367189D02*
D03*
X356630Y331756D02*
D03*
X340882Y312071D02*
D03*
X745250Y95750D02*
D03*
X770000D02*
D03*
X744532Y79555D02*
D03*
X769478Y80097D02*
D03*
X741032Y79555D02*
D03*
X765978Y80097D02*
D03*
X738479Y48750D02*
D03*
X758000Y48750D02*
D03*
X787667Y81000D02*
D03*
D221*
X800000Y0D02*
Y475000D01*
X0D02*
X800000D01*
X0Y0D02*
Y475000D01*
Y0D02*
X800000D01*
D222*
X16881Y226296D02*
D03*
X6881Y216296D02*
D03*
Y236296D02*
D03*
X26881Y216296D02*
D03*
Y236296D02*
D03*
X16881Y269296D02*
D03*
X6881Y259296D02*
D03*
Y279296D02*
D03*
X26881Y259296D02*
D03*
Y279296D02*
D03*
X17510Y328684D02*
D03*
X7510Y318684D02*
D03*
Y338684D02*
D03*
X27510Y318684D02*
D03*
Y338684D02*
D03*
X18510Y370684D02*
D03*
X8510Y360684D02*
D03*
Y380684D02*
D03*
X28510Y360684D02*
D03*
Y380684D02*
D03*
D228*
X762000Y32000D02*
D03*
X774000Y58000D02*
D03*
X729000D02*
D03*
X738000D02*
D03*
X783000D02*
D03*
X742000Y39000D02*
D03*
X750000D02*
D03*
X758000D02*
D03*
X766000D02*
D03*
X746000Y32000D02*
D03*
X754000D02*
D03*
X770000D02*
D03*
D229*
X731000Y22000D02*
D03*
X781000D02*
D03*
D231*
X149535Y84695D02*
D03*
X116465D02*
D03*
X133000D02*
D03*
X149535Y63041D02*
D03*
X133000D02*
D03*
X116465D02*
D03*
D232*
Y34301D02*
D03*
X149535D02*
D03*
D233*
X82528Y29500D02*
D03*
X62843D02*
D03*
X43157D02*
D03*
X23472D02*
D03*
D234*
X687701Y24232D02*
D03*
X640299D02*
D03*
D235*
X668921Y34862D02*
D03*
X659079D02*
D03*
Y42736D02*
D03*
X668921D02*
D03*
D236*
X554937Y210032D02*
D03*
X548000Y310740D02*
D03*
X550264Y307000D02*
D03*
X548000Y303260D02*
D03*
X545736Y307000D02*
D03*
X554937Y213969D02*
D03*
X551000D02*
D03*
Y210032D02*
D03*
X547063D02*
D03*
Y213969D02*
D03*
X490937D02*
D03*
X487000D02*
D03*
X483063Y210032D02*
D03*
Y213969D02*
D03*
X487000Y210032D02*
D03*
X490937D02*
D03*
X401937Y209032D02*
D03*
X398000Y212969D02*
D03*
X394063D02*
D03*
X401937D02*
D03*
X394063Y209032D02*
D03*
X398000D02*
D03*
X161568Y256006D02*
D03*
Y260337D02*
D03*
Y251675D02*
D03*
X157237Y256006D02*
D03*
Y251675D02*
D03*
Y260337D02*
D03*
X136487Y361604D02*
D03*
X127826D02*
D03*
X145148D02*
D03*
X140818Y357273D02*
D03*
X145148D02*
D03*
X140818Y361604D02*
D03*
X145148Y352942D02*
D03*
X140818Y348612D02*
D03*
X145148D02*
D03*
X140818Y352942D02*
D03*
X136487Y348612D02*
D03*
X132156Y357273D02*
D03*
Y361604D02*
D03*
X136487Y357273D02*
D03*
X127826D02*
D03*
Y352942D02*
D03*
X136487D02*
D03*
X132156Y348612D02*
D03*
Y352942D02*
D03*
X127826Y348612D02*
D03*
X145148Y344281D02*
D03*
X136487D02*
D03*
X140818D02*
D03*
X132156D02*
D03*
X127826D02*
D03*
X152906Y260337D02*
D03*
X148575D02*
D03*
Y256006D02*
D03*
X144245Y260337D02*
D03*
Y256006D02*
D03*
X152906D02*
D03*
X148575Y251675D02*
D03*
X152906D02*
D03*
X144245D02*
D03*
X326937Y214969D02*
D03*
X323000Y211032D02*
D03*
X326937D02*
D03*
X323000Y214969D02*
D03*
X319063D02*
D03*
Y211032D02*
D03*
X161568Y247345D02*
D03*
X157237Y243014D02*
D03*
X161568D02*
D03*
X157237Y247345D02*
D03*
X152906Y243014D02*
D03*
Y247345D02*
D03*
X148575Y243014D02*
D03*
Y247345D02*
D03*
X144245D02*
D03*
Y243014D02*
D03*
X49354Y106426D02*
D03*
Y102095D02*
D03*
Y84772D02*
D03*
Y89103D02*
D03*
Y80441D02*
D03*
Y97764D02*
D03*
Y93434D02*
D03*
Y76111D02*
D03*
Y71780D02*
D03*
X45024Y106426D02*
D03*
X40693Y102095D02*
D03*
X45024D02*
D03*
X40693Y106426D02*
D03*
X45024Y97764D02*
D03*
X40693Y93434D02*
D03*
X45024D02*
D03*
X40693Y97764D02*
D03*
X45024Y84772D02*
D03*
Y89103D02*
D03*
X40693Y80441D02*
D03*
Y84772D02*
D03*
X45024Y76111D02*
D03*
Y80441D02*
D03*
Y71780D02*
D03*
X40693Y76111D02*
D03*
Y71780D02*
D03*
Y89103D02*
D03*
X62260Y352584D02*
D03*
X66591D02*
D03*
X62260Y348253D02*
D03*
X66591D02*
D03*
X205287Y420491D02*
D03*
X209618D02*
D03*
X213948D02*
D03*
X218279D02*
D03*
X222610D02*
D03*
X205287Y416160D02*
D03*
X209618D02*
D03*
X213948D02*
D03*
X218279D02*
D03*
X222610D02*
D03*
X205287Y411829D02*
D03*
X209618D02*
D03*
X213948D02*
D03*
X218279D02*
D03*
X222610D02*
D03*
X205287Y407499D02*
D03*
X209618D02*
D03*
X213948D02*
D03*
X218279D02*
D03*
X222610D02*
D03*
X205287Y403168D02*
D03*
X209618D02*
D03*
X213948D02*
D03*
X218279D02*
D03*
X222610D02*
D03*
D238*
X771654Y448819D02*
D03*
X576772Y17717D02*
D03*
X29528Y448819D02*
D03*
X220472Y17717D02*
D03*
D239*
X515537Y450051D02*
D03*
X495537D02*
D03*
X279002Y275248D02*
D03*
X259002D02*
D03*
D240*
X754713Y154798D02*
D03*
X758925D02*
D03*
X754713Y150585D02*
D03*
X758925D02*
D03*
X750500D02*
D03*
Y154798D02*
D03*
X758925Y146373D02*
D03*
X754713D02*
D03*
X750500D02*
D03*
D241*
X121937Y176437D02*
D03*
X118000D02*
D03*
Y172500D02*
D03*
X114063Y176437D02*
D03*
Y172500D02*
D03*
X121937D02*
D03*
Y168563D02*
D03*
X114063D02*
D03*
X118000D02*
D03*
M02*
