G04*
G04 #@! TF.GenerationSoftware,Altium Limited,Altium Designer,26.2.0 (7)*
G04*
G04 Layer_Physical_Order=14*
G04 Layer_Color=16711680*
%FSLAX25Y25*%
%MOIN*%
G70*
G04*
G04 #@! TF.SameCoordinates,B4A42267-10C6-43D6-8E6F-C0A9A178EC5E*
G04*
G04*
G04 #@! TF.FilePolarity,Positive*
G04*
G01*
G75*
%ADD12C,0.01000*%
%ADD14C,0.00500*%
G04:AMPARAMS|DCode=41|XSize=20mil|YSize=20mil|CornerRadius=6mil|HoleSize=0mil|Usage=FLASHONLY|Rotation=270.000|XOffset=0mil|YOffset=0mil|HoleType=Round|Shape=RoundedRectangle|*
%AMROUNDEDRECTD41*
21,1,0.02000,0.00800,0,0,270.0*
21,1,0.00800,0.02000,0,0,270.0*
1,1,0.01200,-0.00400,-0.00400*
1,1,0.01200,-0.00400,0.00400*
1,1,0.01200,0.00400,0.00400*
1,1,0.01200,0.00400,-0.00400*
%
%ADD41ROUNDEDRECTD41*%
G04:AMPARAMS|DCode=42|XSize=20mil|YSize=20mil|CornerRadius=6mil|HoleSize=0mil|Usage=FLASHONLY|Rotation=180.000|XOffset=0mil|YOffset=0mil|HoleType=Round|Shape=RoundedRectangle|*
%AMROUNDEDRECTD42*
21,1,0.02000,0.00800,0,0,180.0*
21,1,0.00800,0.02000,0,0,180.0*
1,1,0.01200,-0.00400,0.00400*
1,1,0.01200,0.00400,0.00400*
1,1,0.01200,0.00400,-0.00400*
1,1,0.01200,-0.00400,-0.00400*
%
%ADD42ROUNDEDRECTD42*%
G04:AMPARAMS|DCode=45|XSize=55mil|YSize=43mil|CornerRadius=7.96mil|HoleSize=0mil|Usage=FLASHONLY|Rotation=0.000|XOffset=0mil|YOffset=0mil|HoleType=Round|Shape=RoundedRectangle|*
%AMROUNDEDRECTD45*
21,1,0.05500,0.02709,0,0,0.0*
21,1,0.03909,0.04300,0,0,0.0*
1,1,0.01591,0.01955,-0.01355*
1,1,0.01591,-0.01955,-0.01355*
1,1,0.01591,-0.01955,0.01355*
1,1,0.01591,0.01955,0.01355*
%
%ADD45ROUNDEDRECTD45*%
G04:AMPARAMS|DCode=72|XSize=55mil|YSize=43mil|CornerRadius=7.96mil|HoleSize=0mil|Usage=FLASHONLY|Rotation=270.000|XOffset=0mil|YOffset=0mil|HoleType=Round|Shape=RoundedRectangle|*
%AMROUNDEDRECTD72*
21,1,0.05500,0.02709,0,0,270.0*
21,1,0.03909,0.04300,0,0,270.0*
1,1,0.01591,-0.01355,-0.01955*
1,1,0.01591,-0.01355,0.01955*
1,1,0.01591,0.01355,0.01955*
1,1,0.01591,0.01355,-0.01955*
%
%ADD72ROUNDEDRECTD72*%
G04:AMPARAMS|DCode=81|XSize=98.43mil|YSize=47.24mil|CornerRadius=11.81mil|HoleSize=0mil|Usage=FLASHONLY|Rotation=270.000|XOffset=0mil|YOffset=0mil|HoleType=Round|Shape=RoundedRectangle|*
%AMROUNDEDRECTD81*
21,1,0.09843,0.02362,0,0,270.0*
21,1,0.07480,0.04724,0,0,270.0*
1,1,0.02362,-0.01181,-0.03740*
1,1,0.02362,-0.01181,0.03740*
1,1,0.02362,0.01181,0.03740*
1,1,0.02362,0.01181,-0.03740*
%
%ADD81ROUNDEDRECTD81*%
%ADD170C,0.02200*%
%ADD171C,0.01968*%
%ADD175C,0.00400*%
%ADD194C,0.03937*%
%ADD196C,0.01500*%
%ADD206C,0.08661*%
%ADD207C,0.24410*%
%ADD208C,0.05819*%
%ADD209C,0.02362*%
%ADD210C,0.11811*%
%ADD211C,0.06000*%
G04:AMPARAMS|DCode=212|XSize=60mil|YSize=60mil|CornerRadius=0mil|HoleSize=0mil|Usage=FLASHONLY|Rotation=0.000|XOffset=0mil|YOffset=0mil|HoleType=Round|Shape=Octagon|*
%AMOCTAGOND212*
4,1,8,0.03000,-0.01500,0.03000,0.01500,0.01500,0.03000,-0.01500,0.03000,-0.03000,0.01500,-0.03000,-0.01500,-0.01500,-0.03000,0.01500,-0.03000,0.03000,-0.01500,0.0*
%
%ADD212OCTAGOND212*%

%ADD213C,0.15000*%
%ADD214C,0.06299*%
%ADD215R,0.11811X0.11811*%
%ADD216C,0.07500*%
%ADD217R,0.07500X0.07500*%
%ADD218C,0.02000*%
%ADD219C,0.01800*%
%ADD220C,0.01575*%
G04:AMPARAMS|DCode=242|XSize=98.43mil|YSize=59.06mil|CornerRadius=11.81mil|HoleSize=0mil|Usage=FLASHONLY|Rotation=0.000|XOffset=0mil|YOffset=0mil|HoleType=Round|Shape=RoundedRectangle|*
%AMROUNDEDRECTD242*
21,1,0.09843,0.03543,0,0,0.0*
21,1,0.07480,0.05906,0,0,0.0*
1,1,0.02362,0.03740,-0.01772*
1,1,0.02362,-0.03740,-0.01772*
1,1,0.02362,-0.03740,0.01772*
1,1,0.02362,0.03740,0.01772*
%
%ADD242ROUNDEDRECTD242*%
G04:AMPARAMS|DCode=243|XSize=98.43mil|YSize=59.06mil|CornerRadius=11.81mil|HoleSize=0mil|Usage=FLASHONLY|Rotation=90.000|XOffset=0mil|YOffset=0mil|HoleType=Round|Shape=RoundedRectangle|*
%AMROUNDEDRECTD243*
21,1,0.09843,0.03543,0,0,90.0*
21,1,0.07480,0.05906,0,0,90.0*
1,1,0.02362,0.01772,0.03740*
1,1,0.02362,0.01772,-0.03740*
1,1,0.02362,-0.01772,-0.03740*
1,1,0.02362,-0.01772,0.03740*
%
%ADD243ROUNDEDRECTD243*%
G36*
X243495Y31179D02*
X242995Y31079D01*
X242969Y31140D01*
X242575Y31534D01*
X242061Y31747D01*
X241504D01*
X240989Y31534D01*
X240596Y31140D01*
X240382Y30626D01*
Y30069D01*
X240596Y29554D01*
X240989Y29160D01*
X241504Y28947D01*
X242061D01*
X242575Y29160D01*
X242969Y29554D01*
X242995Y29615D01*
X243495Y29516D01*
Y27179D01*
X242995Y27079D01*
X242969Y27140D01*
X242575Y27534D01*
X242061Y27747D01*
X241504D01*
X240989Y27534D01*
X240596Y27140D01*
X240382Y26626D01*
Y26069D01*
X240596Y25554D01*
X240989Y25161D01*
X241504Y24947D01*
X242061D01*
X242575Y25161D01*
X242969Y25554D01*
X242995Y25615D01*
X243495Y25516D01*
Y23179D01*
X242995Y23079D01*
X242969Y23140D01*
X242575Y23534D01*
X242061Y23747D01*
X241504D01*
X240989Y23534D01*
X240596Y23140D01*
X240382Y22626D01*
Y22069D01*
X240596Y21554D01*
X240989Y21160D01*
X241504Y20947D01*
X242061D01*
X242575Y21160D01*
X242969Y21554D01*
X242995Y21615D01*
X243495Y21516D01*
Y16757D01*
X242995Y16657D01*
X242939Y16791D01*
X242545Y17185D01*
X242031Y17398D01*
X241474D01*
X240959Y17185D01*
X240565Y16791D01*
X240352Y16276D01*
Y15720D01*
X240565Y15205D01*
X240959Y14811D01*
X241474Y14598D01*
X242031D01*
X242545Y14811D01*
X242939Y15205D01*
X242995Y15339D01*
X243495Y15239D01*
Y14000D01*
X238000D01*
Y36000D01*
X228000D01*
Y49000D01*
X228754D01*
X228961Y48500D01*
X228813Y48352D01*
X228600Y47837D01*
Y47281D01*
X228813Y46766D01*
X229207Y46372D01*
X229489Y46255D01*
Y45714D01*
X229207Y45597D01*
X228813Y45204D01*
X228600Y44689D01*
Y44132D01*
X228813Y43617D01*
X229207Y43224D01*
X229489Y43107D01*
Y42566D01*
X229207Y42449D01*
X228813Y42055D01*
X228600Y41541D01*
Y40984D01*
X228813Y40469D01*
X229207Y40075D01*
X229489Y39958D01*
Y39417D01*
X229207Y39300D01*
X228813Y38906D01*
X228600Y38392D01*
Y37835D01*
X228813Y37320D01*
X229207Y36927D01*
X229721Y36713D01*
X230278D01*
X230793Y36927D01*
X231187Y37320D01*
X231400Y37835D01*
Y38392D01*
X231187Y38906D01*
X230793Y39300D01*
X230511Y39417D01*
Y39958D01*
X230793Y40075D01*
X231187Y40469D01*
X231400Y40984D01*
Y41541D01*
X231187Y42055D01*
X230793Y42449D01*
X230511Y42566D01*
Y43107D01*
X230793Y43224D01*
X231187Y43617D01*
X231400Y44132D01*
Y44689D01*
X231187Y45204D01*
X230793Y45597D01*
X230511Y45714D01*
Y46255D01*
X230793Y46372D01*
X231187Y46766D01*
X231400Y47281D01*
Y47837D01*
X231187Y48352D01*
X231039Y48500D01*
X231246Y49000D01*
X232161D01*
X232368Y48500D01*
X232357Y48489D01*
X232143Y47974D01*
Y47417D01*
X232357Y46903D01*
X232750Y46509D01*
X233032Y46392D01*
Y45851D01*
X232750Y45734D01*
X232357Y45340D01*
X232143Y44826D01*
Y44269D01*
X232357Y43754D01*
X232750Y43360D01*
X233032Y43243D01*
Y42702D01*
X232750Y42585D01*
X232357Y42192D01*
X232143Y41677D01*
Y41120D01*
X232357Y40606D01*
X232750Y40212D01*
X233032Y40095D01*
Y39554D01*
X232750Y39437D01*
X232357Y39043D01*
X232143Y38528D01*
Y37971D01*
X232357Y37457D01*
X232750Y37063D01*
X233265Y36850D01*
X233822D01*
X234336Y37063D01*
X234730Y37457D01*
X234943Y37971D01*
Y38528D01*
X234730Y39043D01*
X234336Y39437D01*
X234054Y39554D01*
Y40095D01*
X234336Y40212D01*
X234730Y40606D01*
X234943Y41120D01*
Y41677D01*
X234730Y42192D01*
X234336Y42585D01*
X234054Y42702D01*
Y43243D01*
X234336Y43360D01*
X234730Y43754D01*
X234943Y44269D01*
Y44826D01*
X234730Y45340D01*
X234336Y45734D01*
X234054Y45851D01*
Y46392D01*
X234336Y46509D01*
X234730Y46903D01*
X234943Y47417D01*
Y47974D01*
X234730Y48489D01*
X234719Y48500D01*
X234926Y49000D01*
X243495D01*
Y31179D01*
D02*
G37*
G36*
X320000Y28000D02*
X302000D01*
Y36000D01*
X270000D01*
Y41399D01*
X296499D01*
X296599Y40898D01*
X296257Y40757D01*
X295864Y40363D01*
X295650Y39849D01*
Y39292D01*
X295864Y38777D01*
X296257Y38383D01*
X296772Y38170D01*
X297329D01*
X297843Y38383D01*
X298237Y38777D01*
X298280Y38880D01*
X298821D01*
X298864Y38777D01*
X299257Y38383D01*
X299772Y38170D01*
X300329D01*
X300843Y38383D01*
X301237Y38777D01*
X301450Y39292D01*
Y39849D01*
X301237Y40363D01*
X300843Y40757D01*
X300502Y40898D01*
X300601Y41399D01*
X303449D01*
X303549Y40898D01*
X303207Y40757D01*
X302813Y40363D01*
X302600Y39849D01*
Y39292D01*
X302813Y38777D01*
X302994Y38596D01*
X303152Y38270D01*
X302994Y37943D01*
X302813Y37762D01*
X302600Y37248D01*
Y36691D01*
X302813Y36176D01*
X302994Y35996D01*
X303152Y35669D01*
X302994Y35342D01*
X302813Y35162D01*
X302600Y34647D01*
Y34090D01*
X302813Y33575D01*
X302994Y33395D01*
X303152Y33068D01*
X302994Y32742D01*
X302813Y32561D01*
X302600Y32046D01*
Y31489D01*
X302813Y30975D01*
X303207Y30581D01*
X303721Y30368D01*
X304278D01*
X304793Y30581D01*
X305187Y30975D01*
X305229Y31078D01*
X305771D01*
X305813Y30975D01*
X306207Y30581D01*
X306721Y30368D01*
X307278D01*
X307793Y30581D01*
X308187Y30975D01*
X308400Y31489D01*
Y32046D01*
X308187Y32561D01*
X308006Y32742D01*
X307848Y33068D01*
X308006Y33395D01*
X308187Y33575D01*
X308400Y34090D01*
Y34647D01*
X308187Y35162D01*
X308006Y35342D01*
X307848Y35669D01*
X308006Y35996D01*
X308187Y36176D01*
X308400Y36691D01*
Y37248D01*
X308187Y37762D01*
X308006Y37943D01*
X307848Y38270D01*
X308006Y38596D01*
X308187Y38777D01*
X308400Y39292D01*
Y39849D01*
X308187Y40363D01*
X307793Y40757D01*
X307451Y40898D01*
X307551Y41399D01*
X310000D01*
Y44547D01*
X320000D01*
Y28000D01*
D02*
G37*
G36*
X357690Y97941D02*
X357516Y97767D01*
X357302Y97252D01*
Y96695D01*
X357516Y96180D01*
X357630Y96066D01*
X357874Y95740D01*
X357630Y95413D01*
X357516Y95299D01*
X357302Y94784D01*
Y94227D01*
X357110Y93940D01*
X348933D01*
Y98441D01*
X357483D01*
X357690Y97941D01*
D02*
G37*
G36*
X377330Y123970D02*
X372205D01*
Y93940D01*
X364443D01*
X364251Y94227D01*
Y94784D01*
X364038Y95299D01*
X363924Y95413D01*
X363680Y95740D01*
X363924Y96066D01*
X364038Y96180D01*
X364251Y96695D01*
Y97252D01*
X364038Y97767D01*
X363863Y97941D01*
X364070Y98441D01*
X365030D01*
Y123970D01*
X360030D01*
Y133970D01*
X377330D01*
Y123970D01*
D02*
G37*
G36*
X321844Y228327D02*
X321344Y228038D01*
X321060Y228156D01*
X320503D01*
X319988Y227943D01*
X319844Y227799D01*
X319518Y227597D01*
X319191Y227799D01*
X319047Y227943D01*
X318532Y228156D01*
X317976D01*
X317642Y228018D01*
X317144Y228279D01*
X317173Y234701D01*
X321844D01*
Y228327D01*
D02*
G37*
G36*
X319844Y225713D02*
X319988Y225569D01*
X320503Y225356D01*
X321060D01*
X321344Y225474D01*
X321844Y225186D01*
Y223610D01*
X321344Y223322D01*
X321060Y223440D01*
X320503D01*
X319988Y223227D01*
X319594Y222833D01*
X319381Y222318D01*
Y221761D01*
X319594Y221247D01*
X319988Y220853D01*
X320503Y220640D01*
X321060D01*
X321344Y220758D01*
X321844Y220469D01*
Y217383D01*
X317449D01*
X317096Y217738D01*
X317130Y225247D01*
X317631Y225499D01*
X317976Y225356D01*
X318532D01*
X319047Y225569D01*
X319191Y225713D01*
X319518Y225916D01*
X319844Y225713D01*
D02*
G37*
G36*
X321635Y208658D02*
Y206340D01*
X320120D01*
X320138Y206322D01*
Y200047D01*
X318000Y200000D01*
X317731Y200269D01*
Y208711D01*
X321689D01*
X321635Y208658D01*
D02*
G37*
G36*
X319710Y168002D02*
X319472Y167890D01*
X319210Y167849D01*
X318872Y168187D01*
X318357Y168400D01*
X317800D01*
X317286Y168187D01*
X316892Y167793D01*
X316889Y167785D01*
X316348D01*
X316344Y167793D01*
X315950Y168187D01*
X315436Y168400D01*
X314879D01*
X314364Y168187D01*
X314036Y167859D01*
X313885Y167795D01*
X313435Y167807D01*
X313182Y168060D01*
X312668Y168273D01*
X312111D01*
X311596Y168060D01*
X311512Y167976D01*
X311012Y168183D01*
X311000Y176646D01*
X311354Y177000D01*
X319710D01*
Y168002D01*
D02*
G37*
G36*
X249000Y138000D02*
X203000D01*
Y154000D01*
X228446D01*
X228449Y153996D01*
X228600Y153500D01*
X228313Y153213D01*
X228100Y152699D01*
Y152142D01*
X228313Y151627D01*
X228707Y151233D01*
X229222Y151020D01*
X229779D01*
X230293Y151233D01*
X230687Y151627D01*
X230900Y152142D01*
Y152699D01*
X230687Y153213D01*
X230400Y153500D01*
X230551Y153996D01*
X230554Y154000D01*
X249000D01*
Y138000D01*
D02*
G37*
G36*
X457000Y62000D02*
X414402D01*
Y79586D01*
X414409Y79588D01*
X457000D01*
Y62000D01*
D02*
G37*
G36*
X496000Y17717D02*
X488000D01*
Y40417D01*
X481661D01*
X481585Y40885D01*
X482099Y41099D01*
X482493Y41492D01*
X482706Y42007D01*
Y42564D01*
X482493Y43079D01*
X482099Y43472D01*
X481817Y43589D01*
Y44130D01*
X482099Y44247D01*
X482493Y44641D01*
X482706Y45156D01*
Y45713D01*
X482493Y46227D01*
X482099Y46621D01*
X481817Y46738D01*
Y47279D01*
X482099Y47396D01*
X482493Y47789D01*
X482706Y48304D01*
Y48861D01*
X482493Y49376D01*
X482099Y49769D01*
X481817Y49886D01*
Y50427D01*
X482099Y50544D01*
X482493Y50938D01*
X482706Y51453D01*
Y52010D01*
X482493Y52524D01*
X482724Y53000D01*
X483349D01*
X483596Y52500D01*
X483450Y52146D01*
Y51589D01*
X483663Y51075D01*
X484057Y50681D01*
X484339Y50564D01*
Y50023D01*
X484057Y49906D01*
X483663Y49512D01*
X483450Y48998D01*
Y48441D01*
X483663Y47926D01*
X484057Y47532D01*
X484339Y47415D01*
Y46874D01*
X484057Y46757D01*
X483663Y46364D01*
X483450Y45849D01*
Y45292D01*
X483663Y44778D01*
X484057Y44384D01*
X484339Y44267D01*
Y43726D01*
X484057Y43609D01*
X483663Y43215D01*
X483450Y42700D01*
Y42143D01*
X483663Y41629D01*
X484057Y41235D01*
X484571Y41022D01*
X485128D01*
X485642Y41235D01*
X486036Y41629D01*
X486249Y42143D01*
Y42700D01*
X486036Y43215D01*
X485642Y43609D01*
X485360Y43726D01*
Y44267D01*
X485642Y44384D01*
X486036Y44778D01*
X486249Y45292D01*
Y45849D01*
X486036Y46364D01*
X485642Y46757D01*
X485360Y46874D01*
Y47415D01*
X485642Y47532D01*
X486036Y47926D01*
X486249Y48441D01*
Y48998D01*
X486036Y49512D01*
X485642Y49906D01*
X485360Y50023D01*
Y50564D01*
X485642Y50681D01*
X486036Y51075D01*
X486249Y51589D01*
Y52146D01*
X486103Y52500D01*
X486350Y53000D01*
X496000D01*
Y17717D01*
D02*
G37*
G36*
X579989Y65762D02*
X579489Y65662D01*
X579394Y65893D01*
X579000Y66287D01*
X578485Y66500D01*
X577928D01*
X577414Y66287D01*
X577020Y65893D01*
X576862Y65511D01*
X576345D01*
X576187Y65893D01*
X575793Y66287D01*
X575279Y66500D01*
X574721D01*
X574207Y66287D01*
X573813Y65893D01*
X573600Y65378D01*
Y64821D01*
X573813Y64307D01*
X574207Y63913D01*
X574721Y63700D01*
X575279D01*
X575793Y63913D01*
X576187Y64307D01*
X576345Y64689D01*
X576862D01*
X577020Y64307D01*
X577414Y63913D01*
X577928Y63700D01*
X578485D01*
X579000Y63913D01*
X579394Y64307D01*
X579489Y64538D01*
X579989Y64438D01*
Y39000D01*
X523000D01*
Y49376D01*
X565000D01*
Y68377D01*
X579989D01*
Y65762D01*
D02*
G37*
G36*
X483988Y224613D02*
X484503Y224400D01*
X485060D01*
X485344Y224518D01*
X485844Y224230D01*
Y222652D01*
X485344Y222364D01*
X485060Y222481D01*
X484503D01*
X483988Y222268D01*
X483594Y221875D01*
X483381Y221360D01*
Y220803D01*
X483594Y220288D01*
X483988Y219895D01*
X484503Y219682D01*
X485060D01*
X485344Y219799D01*
X485844Y219511D01*
Y216427D01*
X481449D01*
X481096Y216782D01*
X481131Y224484D01*
X481632Y224691D01*
X481711Y224611D01*
X482226Y224398D01*
X482783D01*
X483297Y224611D01*
X483644Y224957D01*
X483988Y224613D01*
D02*
G37*
G36*
X547821Y224782D02*
X548335Y224569D01*
X548892D01*
X549327Y224750D01*
X549636Y224626D01*
X549827Y224496D01*
Y222724D01*
X549636Y222594D01*
X549327Y222470D01*
X548892Y222651D01*
X548335D01*
X547821Y222438D01*
X547427Y222044D01*
X547214Y221529D01*
Y220972D01*
X547427Y220458D01*
X547821Y220064D01*
X548335Y219851D01*
X548892D01*
X549327Y220031D01*
X549636Y219908D01*
X549827Y219777D01*
Y215974D01*
X545299D01*
Y224372D01*
X545799Y224675D01*
X546059Y224567D01*
X546616D01*
X547130Y224780D01*
X547476Y225127D01*
X547821Y224782D01*
D02*
G37*
G36*
X485844Y227370D02*
X485344Y227082D01*
X485060Y227200D01*
X484503D01*
X483988Y226987D01*
X483642Y226641D01*
X483297Y226985D01*
X482783Y227198D01*
X482226D01*
X481711Y226985D01*
X481642Y226915D01*
X481143Y227123D01*
X481173Y233745D01*
X485844D01*
Y227370D01*
D02*
G37*
G36*
X549827Y227443D02*
X549636Y227312D01*
X549327Y227189D01*
X548892Y227369D01*
X548335D01*
X547821Y227156D01*
X547474Y226810D01*
X547130Y227154D01*
X546616Y227367D01*
X546059D01*
X545799Y227260D01*
X545299Y227562D01*
Y233332D01*
X549827D01*
Y227443D01*
D02*
G37*
G36*
X530000Y304004D02*
X544059D01*
X544101Y303962D01*
Y301607D01*
X530000D01*
Y304004D01*
D02*
G37*
G36*
X552353Y305494D02*
Y304557D01*
Y304406D01*
X556476D01*
Y301809D01*
X556586Y301699D01*
X567371D01*
Y303882D01*
X558471D01*
Y305494D01*
X552353D01*
D02*
G37*
G36*
X552354Y306548D02*
Y307016D01*
Y307471D01*
X556854D01*
Y309819D01*
X573000D01*
Y306548D01*
X552354D01*
D02*
G37*
%LPC*%
G36*
X222633Y153400D02*
X222076D01*
X221561Y153187D01*
X221167Y152793D01*
X220954Y152278D01*
Y151722D01*
X221167Y151207D01*
X221561Y150813D01*
X222076Y150600D01*
X222633D01*
X223147Y150813D01*
X223541Y151207D01*
X223754Y151722D01*
Y152278D01*
X223541Y152793D01*
X223147Y153187D01*
X222633Y153400D01*
D02*
G37*
G36*
X215279D02*
X214721D01*
X214207Y153187D01*
X213813Y152793D01*
X213600Y152278D01*
Y151722D01*
X213813Y151207D01*
X214207Y150813D01*
X214721Y150600D01*
X215279D01*
X215793Y150813D01*
X216187Y151207D01*
X216400Y151722D01*
Y152278D01*
X216187Y152793D01*
X215793Y153187D01*
X215279Y153400D01*
D02*
G37*
G36*
X229779Y149400D02*
X229222D01*
X228707Y149187D01*
X228313Y148793D01*
X228100Y148278D01*
Y147722D01*
X228313Y147207D01*
X228707Y146813D01*
X229222Y146600D01*
X229779D01*
X230293Y146813D01*
X230687Y147207D01*
X230900Y147722D01*
Y148278D01*
X230687Y148793D01*
X230293Y149187D01*
X229779Y149400D01*
D02*
G37*
G36*
X222633Y148700D02*
X222076D01*
X221561Y148487D01*
X221167Y148093D01*
X220954Y147579D01*
Y147022D01*
X221167Y146507D01*
X221561Y146114D01*
X222076Y145900D01*
X222633D01*
X223147Y146114D01*
X223541Y146507D01*
X223754Y147022D01*
Y147579D01*
X223541Y148093D01*
X223147Y148487D01*
X222633Y148700D01*
D02*
G37*
G36*
X215279D02*
X214721D01*
X214207Y148487D01*
X213813Y148093D01*
X213600Y147579D01*
Y147022D01*
X213813Y146507D01*
X214207Y146114D01*
X214721Y145900D01*
X215279D01*
X215793Y146114D01*
X216187Y146507D01*
X216400Y147022D01*
Y147579D01*
X216187Y148093D01*
X215793Y148487D01*
X215279Y148700D01*
D02*
G37*
G36*
X230278Y145475D02*
X229721D01*
X229207Y145262D01*
X228813Y144868D01*
X228600Y144353D01*
Y143796D01*
X228813Y143282D01*
X229207Y142888D01*
X229721Y142675D01*
X230278D01*
X230793Y142888D01*
X231187Y143282D01*
X231400Y143796D01*
Y144353D01*
X231187Y144868D01*
X230793Y145262D01*
X230278Y145475D01*
D02*
G37*
G36*
X222522Y142817D02*
X221966D01*
X221451Y142604D01*
X221057Y142210D01*
X220844Y141696D01*
Y141139D01*
X221057Y140624D01*
X221451Y140230D01*
X221966Y140017D01*
X222522D01*
X223037Y140230D01*
X223431Y140624D01*
X223644Y141139D01*
Y141696D01*
X223431Y142210D01*
X223037Y142604D01*
X222522Y142817D01*
D02*
G37*
G36*
X215279D02*
X214721D01*
X214207Y142604D01*
X213813Y142210D01*
X213600Y141696D01*
Y141139D01*
X213813Y140624D01*
X214207Y140230D01*
X214721Y140017D01*
X215279D01*
X215793Y140230D01*
X216187Y140624D01*
X216400Y141139D01*
Y141696D01*
X216187Y142210D01*
X215793Y142604D01*
X215279Y142817D01*
D02*
G37*
G36*
X230278Y141400D02*
X229721D01*
X229207Y141187D01*
X228813Y140793D01*
X228600Y140278D01*
Y139722D01*
X228813Y139207D01*
X229207Y138813D01*
X229721Y138600D01*
X230278D01*
X230793Y138813D01*
X231187Y139207D01*
X231400Y139722D01*
Y140278D01*
X231187Y140793D01*
X230793Y141187D01*
X230278Y141400D01*
D02*
G37*
G36*
X443481Y79066D02*
X442924D01*
X442409Y78853D01*
X442016Y78459D01*
X441802Y77944D01*
Y77387D01*
X442016Y76873D01*
X442409Y76479D01*
X442924Y76266D01*
X443481D01*
X443995Y76479D01*
X444389Y76873D01*
X444602Y77387D01*
Y77944D01*
X444389Y78459D01*
X443995Y78853D01*
X443481Y79066D01*
D02*
G37*
G36*
X438165D02*
X437608D01*
X437094Y78853D01*
X436700Y78459D01*
X436487Y77944D01*
Y77387D01*
X436700Y76873D01*
X437094Y76479D01*
X437608Y76266D01*
X438165D01*
X438680Y76479D01*
X439074Y76873D01*
X439287Y77387D01*
Y77944D01*
X439074Y78459D01*
X438680Y78853D01*
X438165Y79066D01*
D02*
G37*
G36*
X433279D02*
X432722D01*
X432207Y78853D01*
X431813Y78459D01*
X431600Y77944D01*
Y77387D01*
X431813Y76873D01*
X432207Y76479D01*
X432722Y76266D01*
X433279D01*
X433793Y76479D01*
X434187Y76873D01*
X434400Y77387D01*
Y77944D01*
X434187Y78459D01*
X433793Y78853D01*
X433279Y79066D01*
D02*
G37*
G36*
X443481Y74511D02*
X442924D01*
X442409Y74297D01*
X442016Y73904D01*
X441802Y73389D01*
Y72832D01*
X442016Y72318D01*
X442409Y71924D01*
X442924Y71711D01*
X443481D01*
X443995Y71924D01*
X444389Y72318D01*
X444602Y72832D01*
Y73389D01*
X444389Y73904D01*
X443995Y74297D01*
X443481Y74511D01*
D02*
G37*
G36*
X438165D02*
X437608D01*
X437094Y74297D01*
X436700Y73904D01*
X436487Y73389D01*
Y72832D01*
X436700Y72318D01*
X437094Y71924D01*
X437608Y71711D01*
X438165D01*
X438680Y71924D01*
X439074Y72318D01*
X439287Y72832D01*
Y73389D01*
X439074Y73904D01*
X438680Y74297D01*
X438165Y74511D01*
D02*
G37*
G36*
X433279D02*
X432722D01*
X432207Y74297D01*
X431813Y73904D01*
X431600Y73389D01*
Y72832D01*
X431813Y72318D01*
X432207Y71924D01*
X432722Y71711D01*
X433279D01*
X433793Y71924D01*
X434187Y72318D01*
X434400Y72832D01*
Y73389D01*
X434187Y73904D01*
X433793Y74297D01*
X433279Y74511D01*
D02*
G37*
G36*
X443481Y69955D02*
X442924D01*
X442409Y69742D01*
X442016Y69348D01*
X441802Y68834D01*
Y68277D01*
X442016Y67762D01*
X442409Y67369D01*
X442924Y67155D01*
X443481D01*
X443995Y67369D01*
X444389Y67762D01*
X444602Y68277D01*
Y68834D01*
X444389Y69348D01*
X443995Y69742D01*
X443481Y69955D01*
D02*
G37*
G36*
X438165D02*
X437608D01*
X437094Y69742D01*
X436700Y69348D01*
X436487Y68834D01*
Y68277D01*
X436700Y67762D01*
X437094Y67369D01*
X437608Y67155D01*
X438165D01*
X438680Y67369D01*
X439074Y67762D01*
X439287Y68277D01*
Y68834D01*
X439074Y69348D01*
X438680Y69742D01*
X438165Y69955D01*
D02*
G37*
G36*
X433279D02*
X432722D01*
X432207Y69742D01*
X431813Y69348D01*
X431600Y68834D01*
Y68277D01*
X431813Y67762D01*
X432207Y67369D01*
X432722Y67155D01*
X433279D01*
X433793Y67369D01*
X434187Y67762D01*
X434400Y68277D01*
Y68834D01*
X434187Y69348D01*
X433793Y69742D01*
X433279Y69955D01*
D02*
G37*
G36*
X443481Y65400D02*
X442924D01*
X442409Y65187D01*
X442016Y64793D01*
X441802Y64279D01*
Y63722D01*
X442016Y63207D01*
X442409Y62813D01*
X442924Y62600D01*
X443481D01*
X443995Y62813D01*
X444389Y63207D01*
X444602Y63722D01*
Y64279D01*
X444389Y64793D01*
X443995Y65187D01*
X443481Y65400D01*
D02*
G37*
G36*
X438165D02*
X437608D01*
X437094Y65187D01*
X436700Y64793D01*
X436487Y64279D01*
Y63722D01*
X436700Y63207D01*
X437094Y62813D01*
X437608Y62600D01*
X438165D01*
X438680Y62813D01*
X439074Y63207D01*
X439287Y63722D01*
Y64279D01*
X439074Y64793D01*
X438680Y65187D01*
X438165Y65400D01*
D02*
G37*
G36*
X433279D02*
X432722D01*
X432207Y65187D01*
X431813Y64793D01*
X431600Y64279D01*
Y63722D01*
X431813Y63207D01*
X432207Y62813D01*
X432722Y62600D01*
X433279D01*
X433793Y62813D01*
X434187Y63207D01*
X434400Y63722D01*
Y64279D01*
X434187Y64793D01*
X433793Y65187D01*
X433279Y65400D01*
D02*
G37*
G36*
X492042Y37372D02*
X491485D01*
X490971Y37158D01*
X490577Y36765D01*
X490364Y36250D01*
Y35693D01*
X490577Y35179D01*
X490971Y34785D01*
X491485Y34571D01*
X492042D01*
X492557Y34785D01*
X492951Y35179D01*
X493164Y35693D01*
Y36250D01*
X492951Y36765D01*
X492557Y37158D01*
X492042Y37372D01*
D02*
G37*
G36*
Y33213D02*
X491485D01*
X490971Y33000D01*
X490577Y32606D01*
X490364Y32092D01*
Y31535D01*
X490577Y31020D01*
X490971Y30626D01*
X491485Y30413D01*
X492042D01*
X492557Y30626D01*
X492951Y31020D01*
X493164Y31535D01*
Y32092D01*
X492951Y32606D01*
X492557Y33000D01*
X492042Y33213D01*
D02*
G37*
G36*
Y29250D02*
X491485D01*
X490971Y29037D01*
X490577Y28643D01*
X490364Y28128D01*
Y27571D01*
X490577Y27057D01*
X490971Y26663D01*
X491485Y26450D01*
X492042D01*
X492557Y26663D01*
X492951Y27057D01*
X493164Y27571D01*
Y28128D01*
X492951Y28643D01*
X492557Y29037D01*
X492042Y29250D01*
D02*
G37*
G36*
X490179Y21400D02*
X489622D01*
X489107Y21187D01*
X488714Y20793D01*
X488500Y20279D01*
Y19722D01*
X488714Y19207D01*
X489107Y18813D01*
X489622Y18600D01*
X490179D01*
X490694Y18813D01*
X491087Y19207D01*
X491300Y19722D01*
Y20279D01*
X491087Y20793D01*
X490694Y21187D01*
X490179Y21400D01*
D02*
G37*
G36*
X571793Y66500D02*
X571236D01*
X570721Y66287D01*
X570327Y65893D01*
X570114Y65378D01*
Y64821D01*
X570327Y64307D01*
X570721Y63913D01*
X571236Y63700D01*
X571793D01*
X572307Y63913D01*
X572701Y64307D01*
X572914Y64821D01*
Y65378D01*
X572701Y65893D01*
X572307Y66287D01*
X571793Y66500D01*
D02*
G37*
G36*
X567282D02*
X566725D01*
X566210Y66287D01*
X565816Y65893D01*
X565603Y65378D01*
Y64821D01*
X565816Y64307D01*
X566210Y63913D01*
X566725Y63700D01*
X567282D01*
X567796Y63913D01*
X568190Y64307D01*
X568403Y64821D01*
Y65378D01*
X568190Y65893D01*
X567796Y66287D01*
X567282Y66500D01*
D02*
G37*
G36*
X578289Y62545D02*
X577732D01*
X577217Y62332D01*
X576823Y61938D01*
X576776Y61823D01*
X576234D01*
X576187Y61938D01*
X575793Y62332D01*
X575279Y62545D01*
X574721D01*
X574207Y62332D01*
X573813Y61938D01*
X573600Y61424D01*
Y60867D01*
X573813Y60352D01*
X574207Y59958D01*
X574721Y59745D01*
X575279D01*
X575793Y59958D01*
X576187Y60352D01*
X576234Y60467D01*
X576776D01*
X576823Y60352D01*
X577217Y59958D01*
X577732Y59745D01*
X578289D01*
X578803Y59958D01*
X579197Y60352D01*
X579410Y60867D01*
Y61424D01*
X579197Y61938D01*
X578803Y62332D01*
X578289Y62545D01*
D02*
G37*
G36*
X571891D02*
X571334D01*
X570820Y62332D01*
X570426Y61938D01*
X570213Y61424D01*
Y60867D01*
X570426Y60352D01*
X570820Y59958D01*
X571334Y59745D01*
X571891D01*
X572406Y59958D01*
X572799Y60352D01*
X573013Y60867D01*
Y61424D01*
X572799Y61938D01*
X572406Y62332D01*
X571891Y62545D01*
D02*
G37*
G36*
X567282D02*
X566725D01*
X566210Y62332D01*
X565816Y61938D01*
X565603Y61424D01*
Y60867D01*
X565816Y60352D01*
X566210Y59958D01*
X566725Y59745D01*
X567282D01*
X567796Y59958D01*
X568190Y60352D01*
X568403Y60867D01*
Y61424D01*
X568190Y61938D01*
X567796Y62332D01*
X567282Y62545D01*
D02*
G37*
%LPD*%
D12*
X384342Y370973D02*
X384663D01*
X384189Y371126D02*
X384342Y370973D01*
X376315Y363252D02*
X376468Y363099D01*
X372378Y359315D02*
X372479D01*
D14*
X462233Y353515D02*
G03*
X462983Y352765I750J0D01*
G01*
X447233Y353515D02*
G03*
X447983Y352765I750J0D01*
G01*
X447233Y361015D02*
G03*
X446483Y361765I-750J0D01*
G01*
X458983Y352765D02*
G03*
X459733Y353515I0J750D01*
G01*
X463983Y352765D02*
G03*
X464733Y353515I0J750D01*
G01*
X465483Y361765D02*
G03*
X464733Y361015I0J-750D01*
G01*
X443983Y357265D02*
G03*
X444733Y358015I0J750D01*
G01*
X452233Y353515D02*
G03*
X452983Y352765I750J0D01*
G01*
X452233Y361015D02*
G03*
X451483Y361765I-750J0D01*
G01*
X467233Y361015D02*
G03*
X466483Y361765I-750J0D01*
G01*
X457233Y353515D02*
G03*
X457983Y352765I750J0D01*
G01*
X457233Y361015D02*
G03*
X456483Y361765I-750J0D01*
G01*
X455483D02*
G03*
X454733Y361015I0J-750D01*
G01*
X445483Y361765D02*
G03*
X444733Y361015I0J-750D01*
G01*
X460483Y361765D02*
G03*
X459733Y361015I0J-750D01*
G01*
X450483Y361765D02*
G03*
X449733Y361015I0J-750D01*
G01*
X448983Y352765D02*
G03*
X449733Y353515I0J750D01*
G01*
X453983Y352765D02*
G03*
X454733Y353515I0J750D01*
G01*
X462233Y361015D02*
G03*
X461483Y361765I-750J0D01*
G01*
X467233Y358015D02*
G03*
X467983Y357265I750J0D01*
G01*
X542086Y232805D02*
X545692D01*
X479457Y233318D02*
X483063D01*
X314025Y234130D02*
X317631D01*
X562000Y35394D02*
Y39000D01*
X307748Y172000D02*
X311354D01*
X199502Y147573D02*
Y147579D01*
Y147573D02*
X203000Y144075D01*
X485107Y24000D02*
X488714D01*
X410799Y67369D02*
X414405D01*
X346394Y96973D02*
X350000D01*
X307551Y25554D02*
Y29160D01*
X237000Y15998D02*
X238000D01*
X237000Y11000D02*
Y15998D01*
X408256Y347074D02*
X414150Y341180D01*
X408256Y347074D02*
Y347525D01*
X402114Y353668D02*
X408256Y347525D01*
X453854Y367640D02*
X454261Y367233D01*
X474888D01*
X433579Y367640D02*
X453854D01*
X459733Y353515D02*
Y361015D01*
X467983Y357265D02*
X469986D01*
X449733Y353515D02*
Y361015D01*
X444733Y358015D02*
Y361015D01*
X455483Y361765D02*
X456483D01*
X445483D02*
X446483D01*
X454733Y353515D02*
Y361015D01*
X462233Y353515D02*
Y361015D01*
X464733Y353515D02*
Y361015D01*
X447983Y352765D02*
X448983D01*
X452233Y353515D02*
Y361015D01*
X465483Y361765D02*
X466483D01*
X452983Y352765D02*
X453983D01*
X467233Y358015D02*
Y361015D01*
X450483Y361765D02*
X451483D01*
X457983Y352765D02*
X458983D01*
X460483Y361765D02*
X461483D01*
X443733Y357265D02*
X443983D01*
X447233Y353515D02*
Y361015D01*
X457233Y353515D02*
Y361015D01*
X462983Y352765D02*
X463983D01*
X431665Y365726D02*
X433579Y367640D01*
X431665Y365172D02*
Y365726D01*
X415584Y363201D02*
X429694D01*
X413699Y361316D02*
X415584Y363201D01*
X429694D02*
X431665Y365172D01*
X541728Y398815D02*
X541749Y398836D01*
X534084Y398815D02*
X541728D01*
X534063Y398794D02*
X534084Y398815D01*
X489964Y380767D02*
X491608Y382411D01*
X489851Y380767D02*
X489964D01*
X491608Y382411D02*
X491722D01*
X537849Y384306D02*
X539212Y385670D01*
X540385D01*
X541749Y384306D01*
X532663Y358780D02*
X537849Y353594D01*
X541749D01*
X532663Y358780D02*
Y360473D01*
X499654Y398690D02*
X499832Y398512D01*
X490029Y398690D02*
X499654D01*
X489851Y398868D02*
X490029Y398690D01*
X498753Y366607D02*
X513963D01*
X497399Y365253D02*
X498753Y366607D01*
X497569Y365253D02*
X502349Y360473D01*
X495880Y363735D02*
X497399Y365253D01*
X497569D01*
X502349Y360473D02*
X502520D01*
X489851Y363735D02*
X495880D01*
X491354Y352686D02*
X496230D01*
X489851Y354188D02*
X491354Y352686D01*
X513898Y354052D02*
Y355417D01*
X513498Y355816D02*
X513898Y355417D01*
X501227Y355816D02*
X513498D01*
X501205Y355838D02*
X501227Y355816D01*
X488933Y355838D02*
X501205D01*
X488805Y355710D02*
X488933Y355838D01*
X471541Y355710D02*
X488805D01*
X469986Y357265D02*
X471541Y355710D01*
X427815Y357265D02*
X443733D01*
X427151Y357928D02*
X427815Y357265D01*
X425373Y357928D02*
X427151D01*
X537849Y350094D02*
X541749D01*
X537858Y395345D02*
X541739D01*
X537849Y395355D02*
X537858Y395345D01*
X541739D02*
X541749Y395336D01*
X537879Y380837D02*
X541718D01*
X541749Y380806D01*
X537849Y380867D02*
X537879Y380837D01*
X489851Y384267D02*
X495560D01*
X496963Y385670D01*
X509675Y377678D02*
Y377826D01*
X488533Y387288D02*
X512673D01*
X517353Y382608D01*
X481330Y393667D02*
X483141Y391855D01*
X517353Y375515D02*
Y382608D01*
X461702Y393667D02*
X481330D01*
X448803Y380767D02*
X461702Y393667D01*
X537849Y371666D02*
X537878Y371637D01*
X541719D01*
X541749Y371607D01*
X501391Y377032D02*
Y380285D01*
X500539Y376180D02*
X501391Y377032D01*
X500539Y374574D02*
Y376180D01*
X500246Y374281D02*
X500539Y374574D01*
X481073Y374281D02*
X500246D01*
X480514Y374840D02*
X481073Y374281D01*
X431160Y374840D02*
X480514D01*
X429447Y373127D02*
X431160Y374840D01*
X531858Y368386D02*
X534098D01*
X530220Y366748D02*
X531858Y368386D01*
X530220Y344052D02*
Y366748D01*
X527348Y341180D02*
X530220Y344052D01*
X414150Y341180D02*
X527348D01*
X439845Y363740D02*
Y365485D01*
X438321Y362216D02*
X439845Y363740D01*
X434676Y362216D02*
X438321D01*
X434026Y362866D02*
X434676Y362216D01*
X432742Y362866D02*
X434026D01*
X429642Y359766D02*
X432742Y362866D01*
X407375Y359766D02*
X429642D01*
X405825Y361316D02*
X407375Y359766D01*
X523888Y363623D02*
X527037Y360473D01*
X511289Y363623D02*
X523888D01*
X506583Y358916D02*
X511289Y363623D01*
X491100Y358916D02*
X506583D01*
X490769Y358585D02*
X491100Y358916D01*
X475046Y358585D02*
X490769D01*
X470067Y363563D02*
X475046Y358585D01*
X441860Y363563D02*
X470067D01*
X439613Y361316D02*
X441860Y363563D01*
X433384Y361316D02*
X439613D01*
X526094Y348319D02*
X526925Y349149D01*
X527037D01*
X509935Y348319D02*
X526094D01*
X507713Y346096D02*
X509935Y348319D01*
X482479Y346096D02*
X507713D01*
X476211Y352363D02*
X482479Y346096D01*
X476211Y352363D02*
Y353193D01*
X475963Y353442D02*
X476211Y353193D01*
X541689Y368167D02*
X541749Y368107D01*
X537908Y368167D02*
X541689D01*
X537849Y368227D02*
X537908Y368167D01*
X336945Y339630D02*
X336974Y339601D01*
Y337472D02*
X337002Y337443D01*
X409703Y383188D02*
Y383202D01*
X411724Y398709D02*
X411748Y398685D01*
X409609Y398734D02*
X409633Y398709D01*
X407811Y371126D02*
X407844Y371093D01*
X409996D02*
X410029Y371059D01*
X411728Y406539D02*
X411748Y406559D01*
X409703Y406518D02*
X409724Y406539D01*
X406085Y398709D02*
X406109Y398734D01*
X415652Y371093D02*
X415685Y371126D01*
X413529Y371059D02*
X413563Y371093D01*
X419622Y339630D02*
X419623Y339629D01*
X403874Y398685D02*
X403898Y398709D01*
X382486Y406615D02*
X382542Y406671D01*
X380252Y406559D02*
X380308Y406615D01*
X388126Y371068D02*
Y371126D01*
X348756Y406559D02*
X348777Y406538D01*
X351003D02*
X351023Y406518D01*
X338896Y379251D02*
X338896Y379251D01*
X338896Y374877D02*
X338896Y374877D01*
X380252Y363252D02*
X380293D01*
X391970Y339537D02*
X392063Y339630D01*
X390077Y339444D02*
X390170Y339537D01*
X389779Y327783D02*
X389790Y327772D01*
X391995D02*
X392006Y327762D01*
X362427Y331847D02*
X362518Y331939D01*
X360567Y331756D02*
X360658Y331847D01*
X336974Y333914D02*
X337002Y333943D01*
X336945Y331756D02*
X336974Y331785D01*
X417846Y315979D02*
X417875Y315951D01*
X415685Y316008D02*
X415714Y315979D01*
X384189Y316008D02*
X384218Y315979D01*
X386367D02*
X386395Y315950D01*
X368441Y316008D02*
X368489Y315959D01*
X370620D02*
X370669Y315911D01*
X352693Y316008D02*
X352722Y315979D01*
X354978D02*
X355007Y315950D01*
X419623Y333942D02*
X419625Y333943D01*
X419622Y331756D02*
X419623Y331757D01*
X403874Y406559D02*
X403894Y406539D01*
X406183D02*
X406204Y406518D01*
X386042Y406671D02*
X386098Y406615D01*
X388070D02*
X388126Y406559D01*
X389951Y335819D02*
X390077Y335944D01*
X388126Y335693D02*
X388252Y335819D01*
X384189Y327819D02*
X384207Y327801D01*
X386261D02*
X386279Y327783D01*
X423530Y315979D02*
X423559Y316008D01*
X421375Y315951D02*
X421403Y315979D01*
X392034Y315979D02*
X392063Y316008D01*
X389895Y315950D02*
X389924Y315979D01*
X356610Y406538D02*
X356630Y406559D01*
X354523Y406518D02*
X354544Y406538D01*
X356395Y377619D02*
X356513Y377501D01*
X338896Y371377D02*
X338896Y371377D01*
X364377Y335566D02*
X364504Y335693D01*
X362518Y335439D02*
X362645Y335566D01*
X360538Y315979D02*
X360567Y316008D01*
X376267Y315959D02*
X376315Y316008D01*
X374169Y315911D02*
X374217Y315959D01*
X358507Y315950D02*
X358536Y315979D01*
X745250Y95138D02*
Y95750D01*
X770000Y95138D02*
Y95750D01*
X744532Y79555D02*
Y80168D01*
X769478Y80097D02*
Y80710D01*
X741032Y79555D02*
X741644D01*
X765978Y80097D02*
X766591D01*
X754750Y35750D02*
X758000Y39000D01*
X754750Y32750D02*
Y35750D01*
X754000Y32000D02*
X754750Y32750D01*
X758000Y45250D02*
X758000Y45250D01*
X758000Y39000D02*
Y45250D01*
X738479Y42521D02*
Y45250D01*
Y42521D02*
X742000Y39000D01*
X742750Y35250D02*
X746000Y32000D01*
X742750Y35250D02*
Y38250D01*
X742000Y39000D02*
X742750Y38250D01*
X407860Y316112D02*
X407860Y316112D01*
X405673Y316112D02*
X405673Y316112D01*
X402173D02*
X402173Y316112D01*
D41*
X376593Y363251D02*
D03*
X387890Y351467D02*
D03*
X372579Y359200D02*
D03*
X409609Y398734D02*
D03*
X410029Y371059D02*
D03*
X409703Y406518D02*
D03*
X406109Y398734D02*
D03*
X413529Y371059D02*
D03*
X382542Y406671D02*
D03*
X351023Y406518D02*
D03*
X380093Y363251D02*
D03*
X403638Y343567D02*
D03*
X384390Y351467D02*
D03*
X389779Y327783D02*
D03*
X376079Y359200D02*
D03*
X360768Y343510D02*
D03*
X773500Y95750D02*
D03*
X748750D02*
D03*
X417875Y315951D02*
D03*
X402173Y316112D02*
D03*
X386395Y315950D02*
D03*
X370669Y315911D02*
D03*
X355007Y315950D02*
D03*
X406204Y406518D02*
D03*
X386042Y406671D02*
D03*
X400138Y343567D02*
D03*
X386279Y327783D02*
D03*
X421375Y315951D02*
D03*
X405673Y316112D02*
D03*
X389895Y315950D02*
D03*
X354523Y406518D02*
D03*
X364268Y343510D02*
D03*
X374169Y315911D02*
D03*
X358507Y315950D02*
D03*
X769478Y80097D02*
D03*
X765978D02*
D03*
X741032Y79555D02*
D03*
X745250Y95750D02*
D03*
X770000D02*
D03*
X744532Y79555D02*
D03*
D42*
X489851Y363735D02*
D03*
Y360235D02*
D03*
Y354188D02*
D03*
Y350688D02*
D03*
Y398868D02*
D03*
Y395368D02*
D03*
X541749Y371607D02*
D03*
Y368107D02*
D03*
Y398836D02*
D03*
Y395336D02*
D03*
Y384306D02*
D03*
Y380806D02*
D03*
Y353594D02*
D03*
Y350094D02*
D03*
X489851Y384267D02*
D03*
Y380767D02*
D03*
Y375931D02*
D03*
Y372431D02*
D03*
X344876Y334069D02*
D03*
X337002Y337443D02*
D03*
X388126Y367374D02*
D03*
X409703Y383188D02*
D03*
Y386688D02*
D03*
X419625Y337443D02*
D03*
X388126Y370874D02*
D03*
X356513Y381001D02*
D03*
X338896Y379251D02*
D03*
Y374877D02*
D03*
X390077Y339444D02*
D03*
X362518Y331939D02*
D03*
X344876Y337569D02*
D03*
X337002Y333943D02*
D03*
X419625D02*
D03*
X390077Y335944D02*
D03*
X356513Y377501D02*
D03*
X338896Y382751D02*
D03*
X362518Y335439D02*
D03*
X338896Y371377D02*
D03*
X738479Y48750D02*
D03*
X758000Y48750D02*
D03*
Y45250D02*
D03*
X738479Y45250D02*
D03*
D45*
X322963Y348276D02*
D03*
X441955Y418276D02*
D03*
Y411576D02*
D03*
X238002Y442512D02*
D03*
X322894Y374662D02*
D03*
X322963Y341576D02*
D03*
X322291Y312025D02*
D03*
X322894Y381362D02*
D03*
X322291Y318725D02*
D03*
X238002Y435812D02*
D03*
D72*
X381245Y301941D02*
D03*
Y292991D02*
D03*
X399635Y421390D02*
D03*
X435845Y288053D02*
D03*
Y297959D02*
D03*
X415983Y297340D02*
D03*
X387946Y292991D02*
D03*
Y301941D02*
D03*
X339114Y299862D02*
D03*
X253378Y418861D02*
D03*
X253861Y409861D02*
D03*
X257478Y391861D02*
D03*
X256952Y400861D02*
D03*
X171788Y424866D02*
D03*
X171551Y415866D02*
D03*
X442545Y288053D02*
D03*
Y297959D02*
D03*
X406335Y421390D02*
D03*
X409283Y297340D02*
D03*
X332414Y299862D02*
D03*
X246678Y418861D02*
D03*
X178488Y424866D02*
D03*
X247161Y409861D02*
D03*
X250252Y400861D02*
D03*
X250778Y391861D02*
D03*
X178251Y415866D02*
D03*
D81*
X656701Y22248D02*
D03*
X669299D02*
D03*
D170*
X46937Y172937D02*
D03*
X43000D02*
D03*
X46937Y169000D02*
D03*
X43000Y165063D02*
D03*
X46937D02*
D03*
X43000Y169000D02*
D03*
X39063D02*
D03*
Y165063D02*
D03*
Y172937D02*
D03*
D171*
X548000Y310740D02*
D03*
X550264Y307000D02*
D03*
X548000Y303260D02*
D03*
X545736Y307000D02*
D03*
X161568Y256006D02*
D03*
Y260337D02*
D03*
Y251675D02*
D03*
X157237Y256006D02*
D03*
Y251675D02*
D03*
Y260337D02*
D03*
X136487Y361604D02*
D03*
X127826D02*
D03*
X145148D02*
D03*
X140818Y357273D02*
D03*
X145148D02*
D03*
X140818Y361604D02*
D03*
X145148Y352942D02*
D03*
X140818Y348612D02*
D03*
X145148D02*
D03*
X140818Y352942D02*
D03*
X136487Y348612D02*
D03*
X132156Y357273D02*
D03*
Y361604D02*
D03*
X136487Y357273D02*
D03*
X127826D02*
D03*
Y352942D02*
D03*
X136487D02*
D03*
X132156Y348612D02*
D03*
Y352942D02*
D03*
X127826Y348612D02*
D03*
X145148Y344281D02*
D03*
X136487D02*
D03*
X140818D02*
D03*
X132156D02*
D03*
X127826D02*
D03*
X152906Y260337D02*
D03*
X148575D02*
D03*
Y256006D02*
D03*
X144245Y260337D02*
D03*
Y256006D02*
D03*
X152906D02*
D03*
X148575Y251675D02*
D03*
X152906D02*
D03*
X144245D02*
D03*
X161568Y247345D02*
D03*
X157237Y243014D02*
D03*
X161568D02*
D03*
X157237Y247345D02*
D03*
X152906Y243014D02*
D03*
Y247345D02*
D03*
X148575Y243014D02*
D03*
Y247345D02*
D03*
X144245D02*
D03*
Y243014D02*
D03*
X121937Y176437D02*
D03*
X118000D02*
D03*
Y172500D02*
D03*
X114063Y176437D02*
D03*
Y172500D02*
D03*
X121937D02*
D03*
Y168563D02*
D03*
X114063D02*
D03*
X118000D02*
D03*
X49354Y106426D02*
D03*
Y102095D02*
D03*
Y84772D02*
D03*
Y89103D02*
D03*
Y80441D02*
D03*
Y97764D02*
D03*
Y93434D02*
D03*
Y76111D02*
D03*
Y71780D02*
D03*
X45024Y106426D02*
D03*
X40693Y102095D02*
D03*
X45024D02*
D03*
X40693Y106426D02*
D03*
X45024Y97764D02*
D03*
X40693Y93434D02*
D03*
X45024D02*
D03*
X40693Y97764D02*
D03*
X45024Y84772D02*
D03*
Y89103D02*
D03*
X40693Y80441D02*
D03*
Y84772D02*
D03*
X45024Y76111D02*
D03*
Y80441D02*
D03*
Y71780D02*
D03*
X40693Y76111D02*
D03*
Y71780D02*
D03*
Y89103D02*
D03*
X62260Y352584D02*
D03*
X66591D02*
D03*
X62260Y348253D02*
D03*
X66591D02*
D03*
X205287Y420491D02*
D03*
X209618D02*
D03*
X213948D02*
D03*
X218279D02*
D03*
X222610D02*
D03*
X205287Y416160D02*
D03*
X209618D02*
D03*
X213948D02*
D03*
X218279D02*
D03*
X222610D02*
D03*
X205287Y411829D02*
D03*
X209618D02*
D03*
X213948D02*
D03*
X218279D02*
D03*
X222610D02*
D03*
X205287Y407499D02*
D03*
X209618D02*
D03*
X213948D02*
D03*
X218279D02*
D03*
X222610D02*
D03*
X205287Y403168D02*
D03*
X209618D02*
D03*
X213948D02*
D03*
X218279D02*
D03*
X222610D02*
D03*
D175*
X449635Y376038D02*
G03*
X450355Y376758I0J720D01*
G01*
X452755D02*
G03*
X453475Y376038I720J0D01*
G01*
X440035Y375842D02*
G03*
X440755Y376562I0J720D01*
G01*
X438355Y376958D02*
G03*
X437635Y377678I-720J0D01*
G01*
X444835Y376038D02*
G03*
X445555Y376758I0J720D01*
G01*
X451075Y377478D02*
G03*
X450355Y376758I0J-720D01*
G01*
X452755D02*
G03*
X452035Y377478I-720J0D01*
G01*
X447955Y376758D02*
G03*
X447235Y377478I-720J0D01*
G01*
X447955Y376758D02*
G03*
X448675Y376038I720J0D01*
G01*
X438355Y376562D02*
G03*
X439075Y375842I720J0D01*
G01*
X455875Y377678D02*
G03*
X455155Y376958I0J-720D01*
G01*
X441475Y377478D02*
G03*
X440755Y376758I0J-720D01*
G01*
X446275Y377478D02*
G03*
X445555Y376758I0J-720D01*
G01*
X443155Y376758D02*
G03*
X443875Y376038I720J0D01*
G01*
X443155Y376758D02*
G03*
X442435Y377478I-720J0D01*
G01*
X454435Y376038D02*
G03*
X455155Y376758I0J720D01*
G01*
X461021Y371790D02*
X462332Y370479D01*
X497735D02*
X499182Y371926D01*
X461877Y369379D02*
X498191D01*
X499182Y371926D02*
X517964D01*
X462332Y370479D02*
X497735D01*
X498191Y369379D02*
X499638Y370826D01*
X460566Y370690D02*
X461877Y369379D01*
X499638Y370826D02*
X517529D01*
X443155Y376758D02*
Y376758D01*
X452755Y376758D02*
Y376758D01*
X453475Y376038D02*
X454435D01*
X443875D02*
X444835D01*
X441475Y377478D02*
X442435D01*
X448675Y376038D02*
X449635D01*
X440755Y376562D02*
Y376758D01*
X455155Y376758D02*
Y376958D01*
X439075Y375842D02*
X440035D01*
X451075Y377478D02*
X452035D01*
X455875Y377678D02*
X459848D01*
X435605D02*
X437635D01*
X435395Y377485D02*
X435412D01*
X438355Y376562D02*
Y376958D01*
X450355Y376758D02*
Y376758D01*
X447955Y376758D02*
Y376758D01*
X435412Y377485D02*
X435605Y377678D01*
X445555Y376758D02*
Y376758D01*
X446275Y377478D02*
X447235D01*
X547388Y375710D02*
X547656Y375442D01*
X548266D01*
X548588Y375120D01*
Y374789D02*
Y375120D01*
X548010Y374210D02*
X548588Y374789D01*
X543199Y374210D02*
X548010D01*
X542561Y374848D02*
X543199Y374210D01*
X533215Y374848D02*
X542561D01*
X530076Y371709D02*
X533215Y374848D01*
X520583Y371709D02*
X530076D01*
X519165Y373127D02*
X520583Y371709D01*
X517964Y371926D02*
X519165Y373127D01*
X431153Y371790D02*
X461021D01*
X427053Y367690D02*
X431153Y371790D01*
X424010Y367690D02*
X427053D01*
X421573Y365253D02*
X424010Y367690D01*
X513025Y380840D02*
X514432Y379434D01*
Y379371D02*
Y379434D01*
X507756Y380840D02*
X513025D01*
X506812Y381785D02*
X507756Y380840D01*
X500292Y381785D02*
X506812D01*
X496774Y378267D02*
X500292Y381785D01*
X487390Y378267D02*
X496774D01*
X486635Y379021D02*
X487390Y378267D01*
X462725Y379021D02*
X486635D01*
X461382Y377678D02*
X462725Y379021D01*
X459848Y377678D02*
X461382D01*
X434184Y377485D02*
X435395D01*
X433763Y377064D02*
X434184Y377485D01*
X433384Y377064D02*
X433763D01*
X514495Y383210D02*
X514558D01*
X513025Y381740D02*
X514495Y383210D01*
X508129Y381740D02*
X513025D01*
X507185Y382685D02*
X508129Y381740D01*
X499919Y382685D02*
X507185D01*
X496401Y379167D02*
X499919Y382685D01*
X487762Y379167D02*
X496401D01*
X487008Y379921D02*
X487762Y379167D01*
X462353Y379921D02*
X487008D01*
X461009Y378578D02*
X462353Y379921D01*
X459848Y378578D02*
X461009D01*
X435030D02*
X459848D01*
X426758Y378564D02*
X435016D01*
X435030Y378578D01*
X426322Y379000D02*
X426758Y378564D01*
X423567Y379000D02*
X426322D01*
X519165Y369190D02*
X520583Y370609D01*
X517529Y370826D02*
X519165Y369190D01*
X520583Y370609D02*
X530531D01*
X533671Y373748D01*
X542105D01*
X542743Y373110D01*
X548465D01*
X431609Y370690D02*
X460566D01*
X548465Y373110D02*
X549688Y374333D01*
X427509Y366590D02*
X431609Y370690D01*
X549688Y374333D02*
Y375120D01*
X425818Y366590D02*
X427509D01*
X549688Y375120D02*
X550010Y375442D01*
X425497Y366269D02*
X425818Y366590D01*
X550010Y375442D02*
X550620D01*
X425497Y365568D02*
Y366269D01*
X550620Y375442D02*
X550888Y375710D01*
X425229Y365300D02*
X425497Y365568D01*
D194*
X602362Y15748D02*
D03*
X738189Y448819D02*
D03*
X62992D02*
D03*
D196*
X344848Y331785D02*
Y333914D01*
X344819Y331756D02*
X344876Y331813D01*
X336974Y337472D02*
Y339601D01*
X409761Y383144D02*
X411328D01*
X407844Y371093D02*
X409996D01*
X409633Y398709D02*
X411724D01*
X409724Y406539D02*
X411728D01*
X403898Y398709D02*
X406085D01*
X409453Y386818D02*
X409552Y386720D01*
Y386688D02*
Y386720D01*
X407829Y386876D02*
X407887Y386818D01*
X409453D01*
X413563Y371093D02*
X415652D01*
X419623Y337444D02*
Y339629D01*
X380308Y406615D02*
X382486D01*
X356573Y382880D02*
X356630Y382937D01*
X348777Y406538D02*
X351003D01*
X356573Y381061D02*
Y382880D01*
X356513Y381001D02*
X356573Y381061D01*
X336945Y379000D02*
X338760D01*
X338783Y378977D01*
Y374990D02*
Y378977D01*
Y374990D02*
X338896Y374877D01*
X390170Y339537D02*
X391970D01*
X389790Y327772D02*
X391995D01*
X360567Y343567D02*
X360624Y343510D01*
X360658Y331847D02*
X362427D01*
X344819Y339630D02*
X344876Y339573D01*
X344848Y337472D02*
Y339601D01*
X336974Y331785D02*
Y333914D01*
X415714Y315979D02*
X417846D01*
X384218Y315979D02*
X386367D01*
X368489Y315959D02*
X370620D01*
X352722Y315979D02*
X354978D01*
X337002Y386817D02*
X338896Y384923D01*
Y382751D02*
Y384923D01*
X419623Y331757D02*
Y333942D01*
X403894Y406539D02*
X406183D01*
X386098Y406615D02*
X388070D01*
X388252Y335819D02*
X389951D01*
X421403Y315979D02*
X423530D01*
X389924Y315979D02*
X392034D01*
X354544Y406538D02*
X356610D01*
X354023Y377751D02*
X356263D01*
X356395Y377619D01*
X352774Y379000D02*
X354023Y377751D01*
X352693Y379000D02*
X352774D01*
X364504Y343567D02*
X364561Y343510D01*
X362645Y335566D02*
X364377D01*
X384207Y327801D02*
X386261D01*
X374217Y315959D02*
X376267D01*
X358536Y315979D02*
X360538D01*
X338702Y371183D02*
X338896Y371377D01*
X337002Y371183D02*
X338702D01*
X336945Y371126D02*
X337002Y371183D01*
X405673Y316112D02*
X407860D01*
X399986D02*
X402173D01*
D206*
X16881Y226296D02*
D03*
X6881Y216296D02*
D03*
Y236296D02*
D03*
X26881Y216296D02*
D03*
Y236296D02*
D03*
X16881Y269296D02*
D03*
X6881Y259296D02*
D03*
Y279296D02*
D03*
X26881Y259296D02*
D03*
Y279296D02*
D03*
X17510Y328684D02*
D03*
X7510Y318684D02*
D03*
Y338684D02*
D03*
X27510Y318684D02*
D03*
Y338684D02*
D03*
X18510Y370684D02*
D03*
X8510Y360684D02*
D03*
Y380684D02*
D03*
X28510Y360684D02*
D03*
Y380684D02*
D03*
D207*
X771654Y448819D02*
D03*
X576772Y17717D02*
D03*
X29528Y448819D02*
D03*
X220472Y17717D02*
D03*
D208*
X515537Y450051D02*
D03*
X495537D02*
D03*
X279002Y275248D02*
D03*
X259002D02*
D03*
D209*
X754713Y154798D02*
D03*
X758925D02*
D03*
X754713Y150585D02*
D03*
X758925D02*
D03*
X750500D02*
D03*
Y154798D02*
D03*
X758925Y146373D02*
D03*
X754713D02*
D03*
X750500D02*
D03*
D210*
X149535Y84695D02*
D03*
X116465D02*
D03*
X133000D02*
D03*
Y63041D02*
D03*
X116465D02*
D03*
X687701Y24232D02*
D03*
X640299D02*
D03*
D211*
X762000Y32000D02*
D03*
X774000Y58000D02*
D03*
X729000D02*
D03*
X738000D02*
D03*
X783000D02*
D03*
X742000Y39000D02*
D03*
X750000D02*
D03*
X758000D02*
D03*
X766000D02*
D03*
X746000Y32000D02*
D03*
X754000D02*
D03*
D212*
X770000D02*
D03*
D213*
X731000Y22000D02*
D03*
X781000D02*
D03*
D214*
X668921Y34862D02*
D03*
X659079D02*
D03*
Y42736D02*
D03*
X668921D02*
D03*
D215*
X149535Y63041D02*
D03*
D216*
X82528Y29500D02*
D03*
X62843D02*
D03*
X43157D02*
D03*
D217*
X23472D02*
D03*
D218*
X542086Y232805D02*
D03*
X479457Y233318D02*
D03*
X314025Y234130D02*
D03*
X562000Y35394D02*
D03*
X307748Y172000D02*
D03*
X199502Y147579D02*
D03*
X485107Y24000D02*
D03*
X410799Y67369D02*
D03*
X346394Y96973D02*
D03*
X307551Y25554D02*
D03*
X237000Y11000D02*
D03*
X586446Y297655D02*
D03*
X542488Y307000D02*
D03*
X553512Y308969D02*
D03*
X586446Y316955D02*
D03*
X537326Y299235D02*
D03*
X550187Y297458D02*
D03*
X562487Y299235D02*
D03*
X558471D02*
D03*
X566371Y312186D02*
D03*
X562471Y312189D02*
D03*
X558471Y312218D02*
D03*
X535984Y310719D02*
D03*
Y307219D02*
D03*
X503087Y335000D02*
D03*
X521317Y354052D02*
D03*
X532663Y377026D02*
D03*
X499832Y343742D02*
D03*
X497863Y349126D02*
D03*
X519877Y382992D02*
D03*
X320781Y222040D02*
D03*
Y226756D02*
D03*
X318254D02*
D03*
X571514Y65100D02*
D03*
X578207D02*
D03*
X575000Y61145D02*
D03*
X578010D02*
D03*
X575000Y65100D02*
D03*
X571613Y61145D02*
D03*
X567003D02*
D03*
Y65100D02*
D03*
X571736Y308079D02*
D03*
X569171Y308649D02*
D03*
X565900Y302826D02*
D03*
X548614Y225969D02*
D03*
Y221251D02*
D03*
X546337Y225967D02*
D03*
X515553Y453534D02*
D03*
X495582Y453450D02*
D03*
X279002Y271630D02*
D03*
X258946D02*
D03*
X565900Y230750D02*
D03*
X561418Y214340D02*
D03*
X554937Y217413D02*
D03*
X542754Y221081D02*
D03*
X541967Y199740D02*
D03*
X571613Y84750D02*
D03*
X519000Y91000D02*
D03*
Y85000D02*
D03*
Y73000D02*
D03*
Y79000D02*
D03*
Y67000D02*
D03*
X516000Y76000D02*
D03*
Y70000D02*
D03*
Y88000D02*
D03*
X513000Y85000D02*
D03*
X516000Y82000D02*
D03*
X513000Y91000D02*
D03*
X510000Y82000D02*
D03*
X513000Y79000D02*
D03*
Y73000D02*
D03*
X510000Y76000D02*
D03*
Y70000D02*
D03*
X542000Y57637D02*
D03*
X519000Y61000D02*
D03*
X516000Y64000D02*
D03*
X534000Y51067D02*
D03*
X520000Y32000D02*
D03*
X513000Y61000D02*
D03*
Y67000D02*
D03*
X510000Y47240D02*
D03*
Y64000D02*
D03*
X513000Y27850D02*
D03*
X513150Y20000D02*
D03*
X503050Y230750D02*
D03*
X490937Y217413D02*
D03*
X477967Y221081D02*
D03*
X403337Y228750D02*
D03*
X339901Y231330D02*
D03*
X507000Y91000D02*
D03*
X501000D02*
D03*
X504000Y88000D02*
D03*
X496677Y215282D02*
D03*
X510000Y88000D02*
D03*
X507000Y85000D02*
D03*
X504000Y82000D02*
D03*
X501000Y85000D02*
D03*
Y79000D02*
D03*
X477967Y199724D02*
D03*
X507000Y73000D02*
D03*
Y79000D02*
D03*
X504000Y70000D02*
D03*
Y76000D02*
D03*
X501000Y73000D02*
D03*
X507000Y67000D02*
D03*
X504000Y64000D02*
D03*
X507000Y61000D02*
D03*
X501000Y67000D02*
D03*
Y61000D02*
D03*
X500000Y47240D02*
D03*
X498749Y36000D02*
D03*
Y28000D02*
D03*
Y32000D02*
D03*
X407780Y213250D02*
D03*
X401937Y216413D02*
D03*
X384800Y216000D02*
D03*
X390250Y199000D02*
D03*
X418703Y33971D02*
D03*
X451958Y32157D02*
D03*
X449392D02*
D03*
X454471D02*
D03*
X418703Y21471D02*
D03*
X407447Y126663D02*
D03*
Y129229D02*
D03*
X413702Y109223D02*
D03*
X407447Y131741D02*
D03*
X406202Y96471D02*
D03*
X352702Y89623D02*
D03*
X336750Y218000D02*
D03*
X326937Y218413D02*
D03*
X314754Y222040D02*
D03*
X315344Y201199D02*
D03*
X315500Y147300D02*
D03*
X265501Y80000D02*
D03*
Y86000D02*
D03*
X259501D02*
D03*
X262501Y83000D02*
D03*
X253501Y86000D02*
D03*
X256501Y83000D02*
D03*
X259501Y80000D02*
D03*
X262501Y77000D02*
D03*
X253501Y80000D02*
D03*
X256501Y77000D02*
D03*
X250501Y83000D02*
D03*
X247501Y80000D02*
D03*
X250501Y77000D02*
D03*
X247501Y86000D02*
D03*
X207000Y184800D02*
D03*
Y180000D02*
D03*
Y174500D02*
D03*
Y129000D02*
D03*
X317468Y74973D02*
D03*
X314901D02*
D03*
X312389D02*
D03*
X289504Y55386D02*
D03*
X286938D02*
D03*
X265501Y68000D02*
D03*
Y74000D02*
D03*
Y62000D02*
D03*
X262501Y71000D02*
D03*
Y65000D02*
D03*
X284426Y55386D02*
D03*
X262501Y59000D02*
D03*
X265501Y56000D02*
D03*
X279850Y43070D02*
D03*
X280000Y26250D02*
D03*
X261346Y15999D02*
D03*
X259501Y68000D02*
D03*
Y74000D02*
D03*
X256501Y65000D02*
D03*
Y71000D02*
D03*
X253501Y68000D02*
D03*
X259501Y62000D02*
D03*
X256501Y59000D02*
D03*
X259501Y56000D02*
D03*
X253501Y62000D02*
D03*
Y56000D02*
D03*
Y74000D02*
D03*
X250501Y71000D02*
D03*
Y65000D02*
D03*
X247501Y74000D02*
D03*
Y68000D02*
D03*
X250501Y59000D02*
D03*
X247501Y56000D02*
D03*
Y62000D02*
D03*
X246501Y42240D02*
D03*
X256501D02*
D03*
X254850Y28000D02*
D03*
X245284Y26347D02*
D03*
X245282Y22347D02*
D03*
Y30347D02*
D03*
X179288Y27746D02*
D03*
Y24598D02*
D03*
X175461Y27723D02*
D03*
Y24574D02*
D03*
X104630Y116077D02*
D03*
Y119226D02*
D03*
Y112929D02*
D03*
X534500Y302827D02*
D03*
X531621Y302805D02*
D03*
X484781Y225800D02*
D03*
X482505Y225798D02*
D03*
X484781Y221081D02*
D03*
X241782Y30347D02*
D03*
Y26347D02*
D03*
Y22347D02*
D03*
X241752Y15998D02*
D03*
X194030Y96461D02*
D03*
X190882D02*
D03*
X187733D02*
D03*
X184546Y96563D02*
D03*
X181397D02*
D03*
X178249D02*
D03*
X174831Y96589D02*
D03*
X171683D02*
D03*
X168534D02*
D03*
X192529Y94100D02*
D03*
X189381D02*
D03*
X186232D02*
D03*
X183080D02*
D03*
X179932D02*
D03*
X176784D02*
D03*
X173335D02*
D03*
X170186D02*
D03*
X167037D02*
D03*
X443202Y77666D02*
D03*
Y73111D02*
D03*
Y68555D02*
D03*
Y64000D02*
D03*
X437887Y77666D02*
D03*
Y73111D02*
D03*
Y68555D02*
D03*
Y64000D02*
D03*
X433000D02*
D03*
Y68555D02*
D03*
Y73111D02*
D03*
Y77666D02*
D03*
X222244Y141417D02*
D03*
X215000D02*
D03*
Y147301D02*
D03*
X222354D02*
D03*
Y152000D02*
D03*
X215000D02*
D03*
X230000Y140000D02*
D03*
Y144075D02*
D03*
X229500Y148000D02*
D03*
Y152420D02*
D03*
X312389Y166873D02*
D03*
X318079Y167000D02*
D03*
X315157D02*
D03*
X545299Y202493D02*
D03*
X548132D02*
D03*
Y199909D02*
D03*
X389068Y221081D02*
D03*
X386650Y223500D02*
D03*
X393750Y202252D02*
D03*
X484300Y199740D02*
D03*
Y202324D02*
D03*
X481467D02*
D03*
X102282Y162393D02*
D03*
X105795Y178987D02*
D03*
X56047Y174709D02*
D03*
X28860Y174118D02*
D03*
X489900Y20000D02*
D03*
X491764Y27850D02*
D03*
Y31813D02*
D03*
Y35972D02*
D03*
X481306Y42285D02*
D03*
Y51731D02*
D03*
Y48583D02*
D03*
Y45434D02*
D03*
X484850Y45571D02*
D03*
Y48719D02*
D03*
Y51868D02*
D03*
Y42422D02*
D03*
X362851Y94506D02*
D03*
Y96973D02*
D03*
X358702Y94506D02*
D03*
Y96973D02*
D03*
X384703Y17625D02*
D03*
X377000D02*
D03*
X384380Y25233D02*
D03*
X380690D02*
D03*
X377000D02*
D03*
X380690Y28913D02*
D03*
X384380D02*
D03*
X377000D02*
D03*
X297050Y39570D02*
D03*
X300050D02*
D03*
X307000Y36969D02*
D03*
Y31768D02*
D03*
Y39570D02*
D03*
Y34369D02*
D03*
X304000D02*
D03*
Y39570D02*
D03*
Y31768D02*
D03*
Y36969D02*
D03*
X233543Y38250D02*
D03*
Y47696D02*
D03*
Y44547D02*
D03*
Y41399D02*
D03*
X230000Y41262D02*
D03*
Y44410D02*
D03*
Y47559D02*
D03*
Y38113D02*
D03*
D219*
X443161Y279743D02*
D03*
X441161D02*
D03*
X441584Y299578D02*
D03*
X443584D02*
D03*
X409781Y341631D02*
D03*
D03*
X400000Y351441D02*
D03*
X402114Y353668D02*
D03*
X409762Y349505D02*
D03*
D03*
X409747Y352675D02*
D03*
D03*
X436884Y299578D02*
D03*
X434884D02*
D03*
X417546Y349595D02*
D03*
D03*
X425510Y349505D02*
D03*
D03*
X411748Y390811D02*
D03*
X407811Y386874D02*
D03*
X396000Y359315D02*
D03*
X411748Y382937D02*
D03*
Y398685D02*
D03*
X403874D02*
D03*
X411748Y375063D02*
D03*
X399937Y379000D02*
D03*
X403874Y367189D02*
D03*
X407811Y371126D02*
D03*
X415668Y371109D02*
D03*
X474888Y367233D02*
D03*
X496837Y371845D02*
D03*
X489647Y366534D02*
D03*
X421632Y344929D02*
D03*
X413699Y353442D02*
D03*
Y357379D02*
D03*
X421632Y345067D02*
D03*
X416264Y353956D02*
D03*
X421637Y349451D02*
D03*
D03*
X490101Y350504D02*
D03*
X489851Y372431D02*
D03*
X419622Y379000D02*
D03*
X430418Y377064D02*
D03*
X427525Y371126D02*
D03*
X423559Y386876D02*
D03*
X427525D02*
D03*
X419622Y382937D02*
D03*
Y386874D02*
D03*
X413699Y361316D02*
D03*
X519165Y365648D02*
D03*
X409762Y361316D02*
D03*
X488051Y349004D02*
D03*
X433384Y365253D02*
D03*
X528670Y355749D02*
D03*
X514558Y375985D02*
D03*
X425475Y369357D02*
D03*
X427496Y394748D02*
D03*
X427392Y364751D02*
D03*
X427403Y345954D02*
D03*
X497863Y354281D02*
D03*
X521317Y375706D02*
D03*
X433384Y373290D02*
D03*
X405825Y353442D02*
D03*
X521377Y360473D02*
D03*
X427496Y402622D02*
D03*
X417654Y366239D02*
D03*
X483141Y348600D02*
D03*
X396000Y363252D02*
D03*
X427496Y339630D02*
D03*
X399937Y363252D02*
D03*
X534063Y398794D02*
D03*
X491722Y382411D02*
D03*
X537849Y384306D02*
D03*
X527037Y357323D02*
D03*
X399937Y359315D02*
D03*
X550888Y347334D02*
D03*
X479636Y362634D02*
D03*
X537849Y353594D02*
D03*
X532663Y360473D02*
D03*
X550888Y371810D02*
D03*
X504990Y398268D02*
D03*
X499832Y398512D02*
D03*
X501510Y395426D02*
D03*
X431433Y406559D02*
D03*
X513963Y366607D02*
D03*
X497399Y365253D02*
D03*
X502520Y360473D02*
D03*
X496230Y352686D02*
D03*
X513898Y354052D02*
D03*
X425373Y357928D02*
D03*
X537849Y350094D02*
D03*
X511245Y334844D02*
D03*
X511289Y398268D02*
D03*
X431386Y394748D02*
D03*
X532428Y396768D02*
D03*
X525772Y400686D02*
D03*
X423559Y394748D02*
D03*
X528572Y387302D02*
D03*
X525501Y384134D02*
D03*
X431433Y386874D02*
D03*
X496963Y382498D02*
D03*
X528601Y380965D02*
D03*
X537849Y395355D02*
D03*
X547388Y375710D02*
D03*
X519165Y373127D02*
D03*
X421573Y365253D02*
D03*
X479636Y366534D02*
D03*
X433384Y369190D02*
D03*
X501391Y365009D02*
D03*
X508140Y363623D02*
D03*
X425510Y361316D02*
D03*
X502214Y357366D02*
D03*
X537849Y380867D02*
D03*
X496963Y385670D02*
D03*
X509675Y377826D02*
D03*
X514554Y358243D02*
D03*
X399937Y367189D02*
D03*
X550888Y351234D02*
D03*
X547387Y367910D02*
D03*
X521785Y368386D02*
D03*
X396000Y355378D02*
D03*
X550888Y360027D02*
D03*
X488533Y387288D02*
D03*
X483141Y391855D02*
D03*
X517353Y375515D02*
D03*
X448803Y380767D02*
D03*
X417636Y361316D02*
D03*
X508140Y395119D02*
D03*
X537849Y371666D02*
D03*
X537849Y363184D02*
D03*
X479549Y352940D02*
D03*
X522945Y334846D02*
D03*
X532428Y393836D02*
D03*
X501351Y392426D02*
D03*
X500016Y384355D02*
D03*
X427525Y382926D02*
D03*
X501391Y380285D02*
D03*
X429447Y373127D02*
D03*
X514432Y379371D02*
D03*
X433384Y377064D02*
D03*
X532713Y379348D02*
D03*
X528660Y374655D02*
D03*
X534098Y368386D02*
D03*
X437974Y359079D02*
D03*
X417850Y357646D02*
D03*
X489866Y395514D02*
D03*
X439845Y365485D02*
D03*
X405825Y361316D02*
D03*
X479910Y373252D02*
D03*
X527037Y360473D02*
D03*
X547388Y355134D02*
D03*
X433384Y361316D02*
D03*
X532428Y355926D02*
D03*
X513963Y360473D02*
D03*
X409777Y357379D02*
D03*
X519045Y334845D02*
D03*
X527037Y349149D02*
D03*
X475963Y353442D02*
D03*
X421591Y357773D02*
D03*
X550887Y367910D02*
D03*
X537849Y368227D02*
D03*
X487301Y376658D02*
D03*
X437321Y363623D02*
D03*
X514558Y373426D02*
D03*
X405825Y357379D02*
D03*
X478790Y386821D02*
D03*
X504990Y391969D02*
D03*
X515017Y391926D02*
D03*
X431433Y390811D02*
D03*
X523888Y388819D02*
D03*
X427525Y390936D02*
D03*
X496963Y375930D02*
D03*
X537849Y359745D02*
D03*
X550889Y363927D02*
D03*
X526845Y334846D02*
D03*
X515145Y334844D02*
D03*
X521963Y399926D02*
D03*
X423559Y402622D02*
D03*
X511289Y395119D02*
D03*
X514558Y383210D02*
D03*
X423567Y379000D02*
D03*
X528549Y384024D02*
D03*
X433384Y381001D02*
D03*
X532735Y382476D02*
D03*
X519165Y369190D02*
D03*
X550888Y375710D02*
D03*
X425229Y365300D02*
D03*
X479451Y382325D02*
D03*
X532739Y363475D02*
D03*
X531863Y351024D02*
D03*
X530745Y334830D02*
D03*
X479841Y376997D02*
D03*
X525963Y390926D02*
D03*
X427496Y406559D02*
D03*
X491651Y349004D02*
D03*
X509640Y358765D02*
D03*
X429573Y365273D02*
D03*
X507345Y334844D02*
D03*
X550888Y355134D02*
D03*
X508140Y398268D02*
D03*
X431433Y402622D02*
D03*
X504990Y395119D02*
D03*
X423559Y382937D02*
D03*
X502541Y375543D02*
D03*
X504990Y351024D02*
D03*
X344819Y331756D02*
D03*
X352693Y343567D02*
D03*
X344819Y347504D02*
D03*
X336945Y339630D02*
D03*
Y323882D02*
D03*
Y355378D02*
D03*
X324582Y349237D02*
D03*
X314219Y351446D02*
D03*
Y353446D02*
D03*
X324582Y347237D02*
D03*
X686000Y279436D02*
D03*
X415685Y335693D02*
D03*
X700161Y246126D02*
D03*
X427496Y316008D02*
D03*
X716044Y284472D02*
D03*
X415685Y339630D02*
D03*
X713453Y278217D02*
D03*
X403874Y339630D02*
D03*
X372378D02*
D03*
X711726Y274046D02*
D03*
X411748Y335693D02*
D03*
X708938Y267317D02*
D03*
X415685Y331756D02*
D03*
X707435Y263688D02*
D03*
X419622Y327819D02*
D03*
X364504Y323882D02*
D03*
X356630Y402622D02*
D03*
X368441Y335693D02*
D03*
X415685Y327819D02*
D03*
X686000Y263402D02*
D03*
Y259465D02*
D03*
X427496Y319945D02*
D03*
X340882Y323882D02*
D03*
X348777Y402622D02*
D03*
X686000Y268842D02*
D03*
X423559Y327819D02*
D03*
X364504Y319945D02*
D03*
X340882Y339630D02*
D03*
X419622Y410496D02*
D03*
Y319945D02*
D03*
X686000Y255528D02*
D03*
X431433Y316008D02*
D03*
X686000Y251591D02*
D03*
Y272805D02*
D03*
X407811Y335693D02*
D03*
X396000Y351441D02*
D03*
Y375063D02*
D03*
X392063Y347504D02*
D03*
X739541Y138489D02*
D03*
X392063Y363252D02*
D03*
Y371126D02*
D03*
X388126Y359315D02*
D03*
X392063Y355378D02*
D03*
X388126Y351441D02*
D03*
X738479Y133284D02*
D03*
X384189Y371126D02*
D03*
X380252Y367189D02*
D03*
X388126D02*
D03*
X384189Y363252D02*
D03*
X376315Y371126D02*
D03*
X372378Y375063D02*
D03*
X368441Y371126D02*
D03*
X376315Y363252D02*
D03*
X372378Y367189D02*
D03*
X384189Y355378D02*
D03*
X380284Y303561D02*
D03*
X380252Y351441D02*
D03*
X382284Y294611D02*
D03*
Y303561D02*
D03*
X380413Y284161D02*
D03*
X380284Y294611D02*
D03*
X380252Y359315D02*
D03*
X376315Y355378D02*
D03*
X372378Y359315D02*
D03*
X378413Y284161D02*
D03*
X372378Y351441D02*
D03*
X368441Y347504D02*
D03*
X762648Y160428D02*
D03*
X441584Y289672D02*
D03*
X431433Y319945D02*
D03*
X423559D02*
D03*
X411748Y339630D02*
D03*
X396000Y343567D02*
D03*
X399937Y347504D02*
D03*
X396000D02*
D03*
X686000Y286000D02*
D03*
Y289937D02*
D03*
Y293874D02*
D03*
X719512Y292844D02*
D03*
X717675Y288409D02*
D03*
X705053Y257937D02*
D03*
X703422Y254000D02*
D03*
X747823Y140940D02*
D03*
X753728Y168333D02*
D03*
X772915D02*
D03*
X766448Y173615D02*
D03*
X772915Y164833D02*
D03*
X766448Y166915D02*
D03*
X792750Y149502D02*
D03*
X727930Y123661D02*
D03*
X735854Y138505D02*
D03*
X732180Y133284D02*
D03*
X740601Y122435D02*
D03*
X746923Y123661D02*
D03*
X791000Y132677D02*
D03*
X787948Y117431D02*
D03*
X794050Y123927D02*
D03*
X451485Y422216D02*
D03*
Y424216D02*
D03*
X440335Y419315D02*
D03*
Y417314D02*
D03*
X451485Y411618D02*
D03*
X440335Y412615D02*
D03*
Y410614D02*
D03*
X451485Y409618D02*
D03*
X431433Y410496D02*
D03*
X411748Y406559D02*
D03*
X427496Y331756D02*
D03*
X419622Y339630D02*
D03*
X403874Y343567D02*
D03*
X407811Y327819D02*
D03*
X400445Y430671D02*
D03*
X398445D02*
D03*
X400597Y419771D02*
D03*
X398596D02*
D03*
X396000Y406559D02*
D03*
X380252D02*
D03*
X392063Y375063D02*
D03*
X388126Y394748D02*
D03*
X392063Y386874D02*
D03*
X392020Y367189D02*
D03*
X388126Y371126D02*
D03*
X380252D02*
D03*
X376315Y382937D02*
D03*
X384189Y367189D02*
D03*
X376315D02*
D03*
X372378Y402622D02*
D03*
X364504Y406559D02*
D03*
X356630Y394748D02*
D03*
X372378D02*
D03*
X348756Y406559D02*
D03*
X344819Y386874D02*
D03*
X356630Y382937D02*
D03*
X372378Y371126D02*
D03*
X352693D02*
D03*
X336945Y379000D02*
D03*
X392063Y359315D02*
D03*
X388126Y363252D02*
D03*
X384189Y359315D02*
D03*
X388126Y355378D02*
D03*
X380252Y363252D02*
D03*
Y355378D02*
D03*
X392063Y351441D02*
D03*
Y339630D02*
D03*
X392006Y327762D02*
D03*
X376315Y351441D02*
D03*
X384189D02*
D03*
X376315Y359315D02*
D03*
X372378Y363252D02*
D03*
Y355378D02*
D03*
Y347504D02*
D03*
X360567Y343567D02*
D03*
Y363252D02*
D03*
X348756Y355378D02*
D03*
X336945Y363252D02*
D03*
X360567Y331756D02*
D03*
X376315Y327819D02*
D03*
X348756D02*
D03*
X344819Y339630D02*
D03*
X336945Y331756D02*
D03*
X748750Y95750D02*
D03*
X787667Y94000D02*
D03*
X773500Y95750D02*
D03*
X436884Y289672D02*
D03*
X428663Y279721D02*
D03*
X430663D02*
D03*
X434884Y289672D02*
D03*
X419622Y323882D02*
D03*
X415685Y316008D02*
D03*
X431433Y312071D02*
D03*
X419627Y288902D02*
D03*
X417021Y298959D02*
D03*
X415021D02*
D03*
X423530Y312071D02*
D03*
X417626Y288902D02*
D03*
X399937Y316008D02*
D03*
X384189D02*
D03*
X368441D02*
D03*
X352693D02*
D03*
X388984Y303561D02*
D03*
X386984D02*
D03*
X393011Y284161D02*
D03*
X391011D02*
D03*
X386984Y294611D02*
D03*
X388984D02*
D03*
X338152Y301482D02*
D03*
X340152D02*
D03*
X340054Y290582D02*
D03*
X338054D02*
D03*
X333008Y410496D02*
D03*
X324513Y373623D02*
D03*
Y375623D02*
D03*
X313413Y375722D02*
D03*
Y373722D02*
D03*
X336945Y347504D02*
D03*
X324582Y340537D02*
D03*
Y342537D02*
D03*
X333008Y312071D02*
D03*
X323910Y310986D02*
D03*
Y312986D02*
D03*
X314219Y338847D02*
D03*
Y340847D02*
D03*
X313682Y313385D02*
D03*
Y311385D02*
D03*
X352693Y367189D02*
D03*
X348756D02*
D03*
X364504Y363252D02*
D03*
X356630Y371126D02*
D03*
X344819Y359315D02*
D03*
X348756D02*
D03*
X333008Y331756D02*
D03*
X360567Y359315D02*
D03*
X333008Y339630D02*
D03*
X344819Y319945D02*
D03*
X364504Y327819D02*
D03*
X427496Y339630D02*
D03*
X396000Y335693D02*
D03*
X411748Y331756D02*
D03*
X413043Y430671D02*
D03*
X443584Y289672D02*
D03*
X419622Y331756D02*
D03*
X427496Y323882D02*
D03*
X411043Y430671D02*
D03*
X407297Y419771D02*
D03*
X405296D02*
D03*
X403874Y406559D02*
D03*
X388126D02*
D03*
X396000Y390811D02*
D03*
Y398685D02*
D03*
X388126Y386874D02*
D03*
X399937Y343567D02*
D03*
X388126Y335693D02*
D03*
X423559Y316008D02*
D03*
X410321Y298959D02*
D03*
X408321D02*
D03*
X399937Y323882D02*
D03*
X407830Y316122D02*
D03*
X392063Y316008D02*
D03*
X407028Y288902D02*
D03*
X405028D02*
D03*
X372378Y406559D02*
D03*
X380252Y394748D02*
D03*
X372378Y390811D02*
D03*
X364504Y398685D02*
D03*
X356630Y406559D02*
D03*
X348756Y410496D02*
D03*
X352693Y390811D02*
D03*
Y398685D02*
D03*
X344819Y394748D02*
D03*
X368441Y386874D02*
D03*
X360567D02*
D03*
X380252Y375063D02*
D03*
X364504D02*
D03*
X344819Y382937D02*
D03*
X336945Y386874D02*
D03*
X352693Y379000D02*
D03*
X313413Y388320D02*
D03*
X324513Y380323D02*
D03*
X313413Y386320D02*
D03*
X324513Y382324D02*
D03*
X384189Y347504D02*
D03*
X368441Y355378D02*
D03*
X380252Y339630D02*
D03*
X376315Y335693D02*
D03*
X356630Y355378D02*
D03*
X364504Y343567D02*
D03*
X348756Y351441D02*
D03*
X344819Y363252D02*
D03*
X364504Y335693D02*
D03*
X352693Y331756D02*
D03*
X384189Y327819D02*
D03*
X368441Y323882D02*
D03*
X376315Y316008D02*
D03*
X348756Y319945D02*
D03*
X360567Y316008D02*
D03*
X336945Y371126D02*
D03*
X333452Y301482D02*
D03*
X331452D02*
D03*
X325455Y290582D02*
D03*
X327455D02*
D03*
X323910Y319686D02*
D03*
Y317686D02*
D03*
X313682Y325984D02*
D03*
Y323984D02*
D03*
X368441Y363252D02*
D03*
X360567Y367189D02*
D03*
X340882Y406559D02*
D03*
X344819Y351441D02*
D03*
X352693Y359315D02*
D03*
X364504Y351441D02*
D03*
Y359315D02*
D03*
X368441D02*
D03*
X356630Y327819D02*
D03*
X368441Y343567D02*
D03*
Y331756D02*
D03*
X423559Y410496D02*
D03*
X419622Y406559D02*
D03*
X380252Y335693D02*
D03*
X356630Y367189D02*
D03*
X364504D02*
D03*
X368441D02*
D03*
X364504Y382937D02*
D03*
X340882Y319945D02*
D03*
X348756Y331756D02*
D03*
X356630Y363252D02*
D03*
X340882Y359315D02*
D03*
X372378Y319945D02*
D03*
X368441D02*
D03*
X372378Y323882D02*
D03*
X380252Y312071D02*
D03*
Y316008D02*
D03*
X344819Y375063D02*
D03*
X348756Y371126D02*
D03*
X360567D02*
D03*
X356630Y339630D02*
D03*
X348756Y323882D02*
D03*
X344819Y355378D02*
D03*
X364504Y347504D02*
D03*
X368441Y351441D02*
D03*
X333008Y363252D02*
D03*
X340882Y331756D02*
D03*
X356630Y323882D02*
D03*
X372378Y327819D02*
D03*
X380252Y343567D02*
D03*
X364504Y371126D02*
D03*
X348756Y375063D02*
D03*
X360567Y379000D02*
D03*
X364504D02*
D03*
X344819Y327819D02*
D03*
X364504Y355378D02*
D03*
X376315Y331756D02*
D03*
X368441Y327819D02*
D03*
X372378Y331756D02*
D03*
X333008Y323882D02*
D03*
X352693Y355378D02*
D03*
Y375063D02*
D03*
X368441Y379000D02*
D03*
X364504Y386874D02*
D03*
X340882Y363252D02*
D03*
X356630Y410496D02*
D03*
Y359315D02*
D03*
X368441Y375063D02*
D03*
X340882Y398685D02*
D03*
X344819D02*
D03*
X360567D02*
D03*
Y390811D02*
D03*
X372378Y379000D02*
D03*
X333008Y367189D02*
D03*
X352693Y327819D02*
D03*
X372378Y335693D02*
D03*
X352693Y339630D02*
D03*
X348756D02*
D03*
Y335693D02*
D03*
X340882Y390811D02*
D03*
X344819D02*
D03*
X356630Y375063D02*
D03*
X360567Y402622D02*
D03*
Y355378D02*
D03*
X336945Y367189D02*
D03*
X356630Y331756D02*
D03*
X340882Y312071D02*
D03*
X745250Y95750D02*
D03*
X770000D02*
D03*
X744532Y79555D02*
D03*
X769478Y80097D02*
D03*
X741032Y79555D02*
D03*
X765978Y80097D02*
D03*
X738479Y48750D02*
D03*
X758000Y48750D02*
D03*
X787667Y81000D02*
D03*
D220*
X554937Y210032D02*
D03*
Y213969D02*
D03*
X551000D02*
D03*
Y210032D02*
D03*
X547063D02*
D03*
Y213969D02*
D03*
X490937D02*
D03*
X487000D02*
D03*
X483063Y210032D02*
D03*
Y213969D02*
D03*
X487000Y210032D02*
D03*
X490937D02*
D03*
X401937Y209032D02*
D03*
X398000Y212969D02*
D03*
X394063D02*
D03*
X401937D02*
D03*
X394063Y209032D02*
D03*
X398000D02*
D03*
X326937Y214969D02*
D03*
X323000Y211032D02*
D03*
X326937D02*
D03*
X323000Y214969D02*
D03*
X319063D02*
D03*
Y211032D02*
D03*
D242*
X310478Y352336D02*
D03*
X455205Y423225D02*
D03*
Y410627D02*
D03*
X309694Y374713D02*
D03*
X310478Y339738D02*
D03*
X309941Y312276D02*
D03*
X309694Y387311D02*
D03*
X309941Y324874D02*
D03*
D243*
X379422Y280441D02*
D03*
X399436Y434390D02*
D03*
X429572Y276024D02*
D03*
X418636Y285183D02*
D03*
X392020Y280441D02*
D03*
X339063Y286862D02*
D03*
X412034Y434390D02*
D03*
X442170Y276024D02*
D03*
X406037Y285183D02*
D03*
X326464Y286862D02*
D03*
X690299Y39248D02*
D03*
X677701D02*
D03*
M02*
