M48
;Layer_Color=9474304
;FILE_FORMAT=2:5
INCH,LZ
;TYPE=PLATED
T01F00S00C0.00787
T02F00S00C0.00800
T03F00S00C0.01000
T04F00S00C0.01181
T05F00S00C0.01200
T06F00S00C0.01378
T07F00S00C0.03500
T08F00S00C0.03543
T09F00S00C0.03819
T10F00S00C0.05118
T11F00S00C0.06496
T12F00S00C0.07100
T13F00S00C0.09055
T14F00S00C0.12800
T15F00S00C0.12992
%
T01
X0040693Y007178
X0045024
X0049354
Y0076111
Y0080441
Y0084772
Y0089103
Y0093434
Y0097764
Y0102095
Y0106426
X0045024
Y0102095
X0040693
Y0106426
Y0097764
X0045024
Y0093434
X0040693
Y0089103
X0045024
Y0084772
X0040693
Y0080441
X0045024
Y0076111
X0040693
X0144245Y0243014
X0148575
X0152906
X0157237
X0161568
Y0247345
Y0251675
Y0256006
Y0260337
X0157237
Y0256006
X0152906
Y0260337
X0148575
Y0256006
X0144245
Y0260337
Y0251675
Y0247345
X0148575
Y0251675
X0152906
X0157237
Y0247345
X0152906
X0319063Y0214969
X0323
X0326937
Y0211032
X0323
X0319063
X0394063Y0212969
X0398
X0401937
Y0209032
X0398
X0394063
X0483063Y0210032
Y0213969
X0487
X0490937
Y0210032
X0487
X0547063
X0551
X0554937
Y0213969
X0551
X0547063
X0548Y030326
X0550264Y0307
X0545736
X0548Y031074
X022261Y0403168
X0218279
Y0407499
Y0411829
X022261
Y0407499
Y041616
Y0420491
X0218279
Y041616
X0213948
Y0420491
X0209618
Y041616
X0205287
Y0420491
Y0411829
Y0407499
X0209618
Y0411829
X0213948
Y0407499
Y0403168
X0209618
X0205287
X0145148Y0361604
X0140818
X0136487
X0132156
X0127826
Y0357273
Y0352942
X0132156
Y0357273
X0136487
Y0352942
X0140818
Y0357273
X0145148
Y0352942
Y0348612
X0140818
Y0344281
X0145148
X0136487
Y0348612
X0132156
Y0344281
X0127826
Y0348612
X0066591Y0348253
Y0352584
X006226
Y0348253
T02
X0738479Y004875
X0758Y004875
X0765978Y0080097
X0769478
X077Y009575
X07735
X0787667Y0094
Y0081
X0787948Y0117431
X079405Y0123927
X0791Y0132677
X079275Y0149502
X0772915Y0164833
Y0168333
X0766448Y0166915
Y0173615
X0762648Y0160428
X0753728Y0168333
X0747823Y014094
X0739541Y0138489
X0735854Y0138505
X0738479Y0133284
X073218
X072793Y0123661
X0740601Y0122435
X0746923Y0123661
X074525Y009575
X074875
X0744532Y0079555
X0741032
X0340054Y0290582
X0338054
X0327455
X0325455
X0331452Y0301482
X0333452
X0338152
X0340152
X0340882Y0312071
X0333008
X032391Y0312986
Y0310986
Y0317686
Y0319686
X0333008Y0323882
X0336945
X0340882
Y0319945
Y0331756
X0336945
X0333008
Y033963
X0336945
X0340882
X0324582Y0340537
Y0342537
X0314219Y0340847
Y0338847
X0313682Y0325984
Y0323984
Y0313385
Y0311385
X0344819Y0319945
X0348756
Y0323882
Y0327819
Y0331756
X0344819
Y0327819
X0352693
Y0331756
X035663
X0360567
X0364504Y0327819
Y0323882
Y0319945
X0368441
Y0323882
X0372378
Y0319945
Y0327819
X0376315
Y0331756
Y0335693
X0380252
Y033963
Y0343567
X0372378Y033963
Y0335693
X0368441
X0364504
Y0343567
X0360567
X0352693
Y033963
X035663
X0348756
X0344819
X0348756Y0335693
X035663Y0327819
Y0323882
X0352693Y0316008
X0360567
X0368441
X0376315
X0380252
X0384189
X0392063
X0399937
Y0323882
X0407811Y0327819
X0415685
Y0331756
Y0335693
Y033963
X0411748
Y0335693
X0407811
X0403874Y033963
Y0343567
X0399937
X0396
X0392063Y033963
X0396Y0335693
X0388126
X0392006Y0327762
X0384189Y0327819
X0368441
Y0331756
X0372378
X0368441Y0343567
X0409781Y0341631
X0419622Y033963
X0427496
Y0331756
X0423559Y0327819
X0419622
Y0323882
Y0319945
X0423559
X0427496
X0431433
Y0316008
X0427496
X0423559
X042353Y0312071
X0431433
X0427496Y0323882
X0419622Y0331756
X0411748
X040783Y0316122
X0415685Y0316008
X0415021Y0298959
X0417021
X0410321
X0408321
X0407028Y0288902
X0405028
X0417626
X0419627
X0434884Y0289672
X0436884
X0441584
X0443584
Y0299578
X0441584
X0436884
X0434884
X0430663Y0279721
X0428663
X0441161Y0279743
X0443161
X0393011Y0284161
X0391011
X0380413
X0378413
X0380284Y0294611
X0382284
X0386984
X0388984
Y0303561
X0386984
X0382284
X0380284
X0380252Y0312071
X0507345Y0334844
X0511245
X0515145
X0519045Y0334845
X0522945Y0334846
X0526845Y0334846
X0530745Y033483
X0686Y0293874
Y0289937
Y0286
Y0279436
Y0272805
Y0268842
Y0263402
Y0259465
Y0255528
Y0251591
X0700161Y0246126
X0703422Y0254
X0705053Y0257937
X0707435Y0263688
X0708938Y0267317
X0711726Y0274046
X0713453Y0278217
X0716044Y0284472
X0717675Y0288409
X0719512Y0292844
X0550888Y0347334
Y0351234
Y0355134
X0547388
X0550888Y0360027
X0550889Y0363927
X0550887Y036791
X0547387
X0550888Y037181
Y037571
X0547388
X0537849Y0371666
Y0368227
X0534098Y0368386
X0532739Y0363475
X0532663Y0360473
X0532428Y0355926
X052867Y0355749
X0527037Y0357323
X0527037Y0360473
X0521377
X0519165Y0365648
Y036919
X0521785Y0368386
X0519165Y0373127
X0517353Y0375515
X0514558Y0375985
Y0373426
X0514432Y0379371
X0514558Y038321
X0515017Y0391926
X0511289Y0395119
Y0398268
X050814
X050499
Y0395119
X050814
X050499Y0391969
X0501351Y0392426
X050151Y0395426
X0500016Y0384355
X0501391Y0380285
X0502541Y0375543
X0509675Y0377826
X0521317Y0375706
X052866Y0374655
X0528601Y0380965
X0528549Y0384024
X0525501Y0384134
X0528572Y0387302
X0523888Y0388819
X0525963Y0390926
X0532428Y0393836
Y0396768
X0534063Y0398794
X0537849Y0395355
Y0384306
Y0380867
X0532713Y0379348
X0532735Y0382476
X0537849Y0363184
Y0359745
X0537849Y0353594
Y0350094
X0531863Y0351024
X0527037Y0349149
X0513898Y0354052
X0514554Y0358243
X0513963Y0360473
X050964Y0358765
X050814Y0363623
X0501391Y0365009
X050252Y0360473
X0502214Y0357366
X050499Y0351024
X0513963Y0366607
X0521963Y0399926
X0525772Y0400686
X0499832Y0398512
X0489866Y0395514
X0488533Y0387288
X0491722Y0382411
X0496963Y0382498
Y038567
Y037593
X0496837Y0371845
X0497399Y0365253
X0489647Y0366534
X0489851Y0372431
X0487301Y0376658
X0479841Y0376997
X047991Y0373252
X0479636Y0366534
X0479636Y0362634
X0474888Y0367233
X0475963Y0353442
X0479549Y035294
X0483141Y03486
X0488051Y0349004
X0490101Y0350504
X0491651Y0349004
X049623Y0352686
X0497863Y0354281
X0479451Y0382325
X047879Y0386821
X0483141Y0391855
X0448803Y0380767
X0433384Y0381001
Y0377064
X0430418
X0429447Y0373127
X0427525Y0371126
X0425475Y0369357
X0425229Y03653
X0427392Y0364751
X0429573Y0365273
X0433384Y0365253
Y036919
Y037329
Y0361316
X0437321Y0363623
X0439845Y0365485
X0437974Y0359079
X0425373Y0357928
X042551Y0361316
X0421591Y0357773
X041785Y0357646
X0417636Y0361316
X0413699
Y0357379
X0409777
X0409762Y0361316
X0405825
Y0357379
Y0353442
X0402114Y0353668
X04Y0351441
X0396
Y0355378
Y0359315
Y0363252
X0399937
Y0359315
Y0367189
X0403874
X0407811Y0371126
X0411748Y0375063
Y0382937
Y0390811
X0407811Y0386874
X0419622
Y0382937
X0423559
Y0386876
X0427525
X0431433Y0386874
X0431433Y0390811
X0431386Y0394748
X0427496
X0427525Y0390936
X0423559Y0394748
Y0402622
X0427496
Y0406559
X0431433
Y0402622
Y0410496
X0423559
X0419622
Y0406559
X0411748
Y0398685
X0403874
Y0406559
X0396
X0388126
X0380252
X0372378
Y0402622
Y0394748
Y0390811
X0368441Y0386874
X0364504
X0360567
Y0390811
X035663Y0394748
Y0402622
Y0406559
Y0410496
X0348756
Y0406559
X0348777Y0402622
X0352693Y0398685
Y0390811
X0344819
Y0386874
Y0382937
Y0375063
X0348756
Y0371126
X0352693
Y0367189
X0348756
Y0359315
Y0355378
Y0351441
X0344819
Y0347504
Y0355378
Y0359315
Y0363252
X0352693Y0359315
Y0355378
X035663
Y0359315
X0360567
Y0363252
X0364504
X0368441
X0372378
X0376315
Y0367189
X0380252
Y0371126
X0384189
X0388126
X0392063
Y0375063
X0396
X0399937Y0379
X0392063Y0386874
X0388126
Y0394748
X0380252
X0376315Y0382937
X0372378Y0379
Y0375063
Y0371126
X0376315
X0368441
Y0367189
X0372378
Y0359315
X0376315
X0380252
X0384189
X0388126
X0392063
Y0363252
X0388126
Y0367189
X039202
X0384189
Y0363252
X0380252
Y0355378
X0384189
X0388126
X0392063
Y0351441
Y0347504
X0396
X0399937
X0409762Y0349505
X0409747Y0352675
X0413699Y0353442
X0416264Y0353956
X0417546Y0349595
X0421637Y0349451
X042551Y0349505
X0427403Y0345954
X0421632Y0345067
Y0344929
X0421573Y0365253
X0417654Y0366239
X0415668Y0371109
X0419622Y0379
X0423567
X0427525Y0382926
X0396Y0390811
Y0398685
X0398596Y0419771
X0400597
X0405296
X0407297
X0411043Y0430671
X0413043
X0400445
X0398445
X0440335Y0419315
Y0417314
Y0412615
Y0410614
X0451485Y0409618
Y0411618
Y0422216
Y0424216
X0364504Y0406559
Y0398685
X0360567
Y0402622
X0344819Y0398685
Y0394748
X035663Y0382937
X0352693Y0379
Y0375063
X035663
Y0371126
Y0367189
X0360567
X0364504
Y0371126
Y0375063
Y0379
Y0382937
X0360567Y0379
Y0371126
X035663Y0363252
X0364504Y0359315
X0368441
Y0355378
X0372378
X0376315
Y0351441
X0380252
X0384189
X0388126
X0384189Y0347504
X0372378
Y0351441
X0368441
Y0347504
X0364504
Y0351441
Y0355378
X0360567
X0368441Y0375063
Y0379
X0380252Y0375063
X0336945Y0379
Y0386874
X0340882Y0390811
Y0398685
Y0406559
X0333008Y0410496
X0324513Y0382324
Y0380323
Y0375623
Y0373623
X0313413Y0373722
Y0375722
Y038632
Y038832
X0314219Y0353446
Y0351446
X0324582Y0349237
Y0347237
X0336945Y0347504
Y0355378
Y0363252
X0333008
Y0367189
X0336945
Y0371126
X0340882Y0363252
Y0359315
T03
X0501Y0061
X0504Y0064
X051
Y007
X0516
X0519Y0073
Y0079
Y0085
Y0091
X0516Y0088
X0513Y0085
X0516Y0082
Y0076
X0513Y0079
X051Y0082
Y0076
X0513Y0073
Y0067
X0519
Y0061
X0516Y0064
X0513Y0061
X0507
Y0067
Y0073
Y0079
Y0085
Y0091
X0513
X051Y0088
X0504
X0501Y0091
Y0085
X0504Y0082
X0501Y0079
X0504Y0076
Y007
X0501Y0073
Y0067
X0265501Y0068
Y0074
Y008
Y0086
X0259501
X0262501Y0083
X0256501
X0253501Y0086
Y008
X0259501
X0262501Y0077
X0256501
X0250501
Y0083
X0247501Y008
Y0086
Y0074
X0253501
X0259501
X0262501Y0071
Y0065
X0265501Y0062
X0262501Y0059
X0265501Y0056
X0259501
Y0062
Y0068
X0256501Y0065
Y0071
X0253501Y0068
Y0062
X0256501Y0059
X0253501Y0056
X0250501Y0059
Y0065
Y0071
X0247501Y0068
Y0062
Y0056
X0503087Y0335
X0521317Y0354052
X0519877Y0382992
X0532663Y0377026
X0497863Y0349126
X0499832Y0343742
T04
X0114063Y0168563
Y01725
X0118
Y0176437
X0121937
Y01725
Y0168563
X0118
X0114063Y0176437
T05
X0175461Y0024574
Y0027723
X0179288Y0027746
Y0024598
X0241782Y0026347
X0245284
X0245282Y0022347
X0241782
X0241752Y0015998
X0237Y0011
X0241782Y0030347
X0245282
X025485Y0028
X0261346Y0015999
X028Y002625
X0307551Y0025554
X0377Y0025233
Y0028913
X038069
Y0025233
X038438
Y0028913
X0384703Y0017625
X0377
X0418703Y0021471
X0485107Y0024
X04899Y002
X0491764Y002785
X0498749Y0028
X0513Y002785
X051315Y002
X052Y0032
X051Y004724
X05
X0534Y0051067
X0542Y0057637
X0567003Y0061145
Y00651
X0571514
X0575
X0578207
X057801Y0061145
X0575
X0571613
Y008475
X0562Y0035394
X0498749Y0036
Y0032
X0491764Y0031813
Y0035972
X048485Y0042422
Y0045571
Y0048719
Y0051868
X0481306Y0051731
Y0048583
Y0045434
Y0042285
X0454471Y0032157
X0451958
X0449392
X0418703Y0033971
X0410799Y0067369
X0433Y0068555
Y0064
X0437887
Y0068555
Y0073111
Y0077666
X0433
Y0073111
X0443202
Y0077666
Y0068555
Y0064
X0406202Y0096471
X0413702Y0109223
X0407447Y0126663
Y0129229
Y0131741
X0362851Y0096973
Y0094506
X0358702
Y0096973
X0346394
X0352702Y0089623
X0317468Y0074973
X0314901
X0312389
X0307Y003957
Y0036969
Y0034369
Y0031768
X0304
Y0034369
Y0036969
Y003957
X030005
X029705
X027985Y004307
X0284426Y0055386
X0286938
X0289504
X0256501Y004224
X0246501
X0233543Y0041399
Y003825
X023Y0038113
Y0041262
Y004441
Y0047559
X0233543Y0047696
Y0044547
X0192529Y00941
X0189381
X0190882Y0096461
X019403
X0187733
X0207Y0129
X0215Y0141417
Y0147301
Y0152
X0222354
Y0147301
X0222244Y0141417
X023Y014
Y0144075
X02295Y0148
Y015242
X0199502Y0147579
X0207Y01745
Y018
Y01848
X0307748Y0172
X0312389Y0166873
X0315157Y0167
X0318079
X03155Y01473
X0184546Y0096563
X0181397
X0178249
X0174831Y0096589
X0171683
X0168534
X0167037Y00941
X0170186
X0173335
X0176784
X0179932
X018308
X0186232
X010463Y0112929
Y0116077
Y0119226
X0102282Y0162393
X0105795Y0178987
X0056047Y0174709
X0046937Y0172937
X0043
Y0169
X0046937
Y0165063
X0043
X0039063
Y0169
Y0172937
X002886Y0174118
X0315344Y0201199
X0314754Y022204
X0320781
Y0226756
X0318254
X0314025Y023413
X0326937Y0218413
X033675Y0218
X0339901Y023133
X0279002Y027163
X0258946
X038665Y02235
X0389068Y0221081
X03848Y0216
X0401937Y0216413
X040778Y021325
X0403337Y022875
X039375Y0202252
X039025Y0199
X0477967Y0199724
X0481467Y0202324
X04843
Y019974
X0484781Y0221081
Y02258
X0482505Y0225798
X0477967Y0221081
X0479457Y0233318
X0490937Y0217413
X0496677Y0215282
X050305Y023075
X0542086Y0232805
X0546337Y0225967
X0548614Y0225969
Y0221251
X0542754Y0221081
X0554937Y0217413
X0561418Y021434
X05659Y023075
X0548132Y0202493
Y0199909
X0545299Y0202493
X0541967Y019974
X0537326Y0299235
X05345Y0302827
X0531621Y0302805
X0535984Y0307219
Y0310719
X0542488Y0307
X0553512Y0308969
X0558471Y0312218
X0562471Y0312189
X0566371Y0312186
X0569171Y0308649
X0571736Y0308079
X05659Y0302826
X0562487Y0299235
X0558471
X0550187Y0297458
X0586446Y0297655
Y0316955
X0515553Y0453534
X0495582Y045345
T06
X07505Y0146373
Y0150585
X0754713
Y0154798
X0758925
Y0150585
Y0146373
X0754713
X07505Y0154798
T07
X0746Y0032
X0754
X0762
X077
X0766Y0039
X0758
X075
X0742
X0738Y0058
X0729
X0774
X0783
T08
X0659079Y0034862
Y0042736
X0668921
Y0034862
T09
X0259002Y0275248
X0279002
X0515537Y0450051
X0495537
T10
X0023472Y00295
X0043157
X0062843
X0082528
T11
X0006881Y0216296
X0016881Y0226296
X0006881Y0236296
X0026881
Y0216296
Y0259296
X0016881Y0269296
X0006881Y0259296
Y0279296
X0026881
X002751Y0318684
X001751Y0328684
X000751Y0318684
Y0338684
X002751
X002851Y0360684
X001851Y0370684
X000851Y0360684
Y0380684
X002851
T12
X0116465Y0063041
X0133
X0149535
Y0084695
X0133
X0116465
T13
X0640299Y0024232
X0687701
T14
X0731Y0022
X0781
T15
X0220472Y0017717
X0576772
X0771654Y0448819
X0029528
M30
