G04*
G04 #@! TF.GenerationSoftware,Altium Limited,Altium Designer,26.2.0 (7)*
G04*
G04 Layer_Physical_Order=3*
G04 Layer_Color=16440176*
%FSLAX25Y25*%
%MOIN*%
G70*
G04*
G04 #@! TF.SameCoordinates,B4A42267-10C6-43D6-8E6F-C0A9A178EC5E*
G04*
G04*
G04 #@! TF.FilePolarity,Positive*
G04*
G01*
G75*
%ADD170C,0.02200*%
%ADD171C,0.01968*%
%ADD175C,0.00400*%
%ADD206C,0.08661*%
%ADD207C,0.24410*%
%ADD208C,0.05819*%
%ADD209C,0.02362*%
%ADD210C,0.11811*%
%ADD211C,0.06000*%
G04:AMPARAMS|DCode=212|XSize=60mil|YSize=60mil|CornerRadius=0mil|HoleSize=0mil|Usage=FLASHONLY|Rotation=0.000|XOffset=0mil|YOffset=0mil|HoleType=Round|Shape=Octagon|*
%AMOCTAGOND212*
4,1,8,0.03000,-0.01500,0.03000,0.01500,0.01500,0.03000,-0.01500,0.03000,-0.03000,0.01500,-0.03000,-0.01500,-0.01500,-0.03000,0.01500,-0.03000,0.03000,-0.01500,0.0*
%
%ADD212OCTAGOND212*%

%ADD213C,0.15000*%
%ADD214C,0.06299*%
%ADD215R,0.11811X0.11811*%
%ADD216C,0.07500*%
%ADD217R,0.07500X0.07500*%
%ADD218C,0.02000*%
%ADD219C,0.01800*%
%ADD220C,0.01575*%
%ADD237C,0.00400*%
D170*
X46937Y172937D02*
D03*
X43000D02*
D03*
X46937Y169000D02*
D03*
X43000Y165063D02*
D03*
X46937D02*
D03*
X43000Y169000D02*
D03*
X39063D02*
D03*
Y165063D02*
D03*
Y172937D02*
D03*
D171*
X548000Y310740D02*
D03*
X550264Y307000D02*
D03*
X548000Y303260D02*
D03*
X545736Y307000D02*
D03*
X161568Y256006D02*
D03*
Y260337D02*
D03*
Y251675D02*
D03*
X157237Y256006D02*
D03*
Y251675D02*
D03*
Y260337D02*
D03*
X136487Y361604D02*
D03*
X127826D02*
D03*
X145148D02*
D03*
X140818Y357273D02*
D03*
X145148D02*
D03*
X140818Y361604D02*
D03*
X145148Y352942D02*
D03*
X140818Y348612D02*
D03*
X145148D02*
D03*
X140818Y352942D02*
D03*
X136487Y348612D02*
D03*
X132156Y357273D02*
D03*
Y361604D02*
D03*
X136487Y357273D02*
D03*
X127826D02*
D03*
Y352942D02*
D03*
X136487D02*
D03*
X132156Y348612D02*
D03*
Y352942D02*
D03*
X127826Y348612D02*
D03*
X145148Y344281D02*
D03*
X136487D02*
D03*
X140818D02*
D03*
X132156D02*
D03*
X127826D02*
D03*
X152906Y260337D02*
D03*
X148575D02*
D03*
Y256006D02*
D03*
X144245Y260337D02*
D03*
Y256006D02*
D03*
X152906D02*
D03*
X148575Y251675D02*
D03*
X152906D02*
D03*
X144245D02*
D03*
X161568Y247345D02*
D03*
X157237Y243014D02*
D03*
X161568D02*
D03*
X157237Y247345D02*
D03*
X152906Y243014D02*
D03*
Y247345D02*
D03*
X148575Y243014D02*
D03*
Y247345D02*
D03*
X144245D02*
D03*
Y243014D02*
D03*
X121937Y176437D02*
D03*
X118000D02*
D03*
Y172500D02*
D03*
X114063Y176437D02*
D03*
Y172500D02*
D03*
X121937D02*
D03*
Y168563D02*
D03*
X114063D02*
D03*
X118000D02*
D03*
X49354Y106426D02*
D03*
Y102095D02*
D03*
Y84772D02*
D03*
Y89103D02*
D03*
Y80441D02*
D03*
Y97764D02*
D03*
Y93434D02*
D03*
Y76111D02*
D03*
Y71780D02*
D03*
X45024Y106426D02*
D03*
X40693Y102095D02*
D03*
X45024D02*
D03*
X40693Y106426D02*
D03*
X45024Y97764D02*
D03*
X40693Y93434D02*
D03*
X45024D02*
D03*
X40693Y97764D02*
D03*
X45024Y84772D02*
D03*
Y89103D02*
D03*
X40693Y80441D02*
D03*
Y84772D02*
D03*
X45024Y76111D02*
D03*
Y80441D02*
D03*
Y71780D02*
D03*
X40693Y76111D02*
D03*
Y71780D02*
D03*
Y89103D02*
D03*
X62260Y352584D02*
D03*
X66591D02*
D03*
X62260Y348253D02*
D03*
X66591D02*
D03*
X205287Y420491D02*
D03*
X209618D02*
D03*
X213948D02*
D03*
X218279D02*
D03*
X222610D02*
D03*
X205287Y416160D02*
D03*
X209618D02*
D03*
X213948D02*
D03*
X218279D02*
D03*
X222610D02*
D03*
X205287Y411829D02*
D03*
X209618D02*
D03*
X213948D02*
D03*
X218279D02*
D03*
X222610D02*
D03*
X205287Y407499D02*
D03*
X209618D02*
D03*
X213948D02*
D03*
X218279D02*
D03*
X222610D02*
D03*
X205287Y403168D02*
D03*
X209618D02*
D03*
X213948D02*
D03*
X218279D02*
D03*
X222610D02*
D03*
D175*
X458644Y382992D02*
G03*
X459364Y383712I0J720D01*
G01*
X469684Y384826D02*
G03*
X468964Y384106I0J-720D01*
G01*
X453844Y384826D02*
G03*
X454564Y385546I0J720D01*
G01*
X461764Y383358D02*
G03*
X462484Y382638I720J0D01*
G01*
X456964Y383712D02*
G03*
X457684Y382992I720J0D01*
G01*
X468244Y382638D02*
G03*
X468964Y383358I0J720D01*
G01*
X464884Y387926D02*
G03*
X464164Y387206I0J-720D01*
G01*
X466564D02*
G03*
X465844Y387926I-720J0D01*
G01*
X460084D02*
G03*
X459364Y387206I0J-720D01*
G01*
X466564Y383358D02*
G03*
X467284Y382638I720J0D01*
G01*
X455284Y387926D02*
G03*
X454564Y387206I0J-720D01*
G01*
X463444Y382638D02*
G03*
X464164Y383358I0J720D01*
G01*
X461764Y387206D02*
G03*
X461044Y387926I-720J0D01*
G01*
X456964Y387206D02*
G03*
X456244Y387926I-720J0D01*
G01*
X466770Y381118D02*
G03*
X466050Y381838I-720J0D01*
G01*
X469890Y382134D02*
G03*
X469170Y381414I0J-720D01*
G01*
X473250Y379573D02*
G03*
X473970Y380293I0J720D01*
G01*
X468450Y379573D02*
G03*
X469170Y380293I0J720D01*
G01*
X474690Y381838D02*
G03*
X473970Y381118I0J-720D01*
G01*
X471570Y380293D02*
G03*
X472290Y379573I720J0D01*
G01*
X466770Y380293D02*
G03*
X467490Y379573I720J0D01*
G01*
X471570Y381414D02*
G03*
X470850Y382134I-720J0D01*
G01*
X465086Y334907D02*
G03*
X465806Y335627I0J720D01*
G01*
X469886Y334907D02*
G03*
X470606Y335627I0J720D01*
G01*
X453806D02*
G03*
X454526Y334907I720J0D01*
G01*
X477806Y336909D02*
G03*
X478526Y336189I720J0D01*
G01*
X456926Y343907D02*
G03*
X456206Y343187I0J-720D01*
G01*
X482606Y343154D02*
G03*
X481886Y343874I-720J0D01*
G01*
X466526Y343907D02*
G03*
X465806Y343187I0J-720D01*
G01*
X474686Y334907D02*
G03*
X475406Y335627I0J720D01*
G01*
X479486Y336189D02*
G03*
X480206Y336909I0J720D01*
G01*
X460286Y334907D02*
G03*
X461006Y335627I0J720D01*
G01*
X452126Y343549D02*
G03*
X451406Y342829I0J-720D01*
G01*
X458606Y343187D02*
G03*
X457886Y343907I-720J0D01*
G01*
X471326D02*
G03*
X470606Y343187I0J-720D01*
G01*
X468206Y335627D02*
G03*
X468926Y334907I720J0D01*
G01*
X463406Y343187D02*
G03*
X462686Y343907I-720J0D01*
G01*
X477806Y343187D02*
G03*
X477086Y343907I-720J0D01*
G01*
X450686Y340926D02*
G03*
X451406Y341646I0J720D01*
G01*
X482606D02*
G03*
X483326Y340926I720J0D01*
G01*
X453806Y342829D02*
G03*
X453086Y343549I-720J0D01*
G01*
X476126Y343907D02*
G03*
X475406Y343187I0J-720D01*
G01*
X458606Y335627D02*
G03*
X459326Y334907I720J0D01*
G01*
X461726Y343907D02*
G03*
X461006Y343187I0J-720D01*
G01*
X463406Y335627D02*
G03*
X464126Y334907I720J0D01*
G01*
X455486D02*
G03*
X456206Y335627I0J720D01*
G01*
X473006Y343187D02*
G03*
X472286Y343907I-720J0D01*
G01*
X480926Y343874D02*
G03*
X480206Y343154I0J-720D01*
G01*
X473006Y335627D02*
G03*
X473726Y334907I720J0D01*
G01*
X468206Y343187D02*
G03*
X467486Y343907I-720J0D01*
G01*
X435885Y352800D02*
G03*
X436605Y352080I720J0D01*
G01*
X435885Y355003D02*
G03*
X435165Y355723I-720J0D01*
G01*
X464685Y355003D02*
G03*
X463965Y355723I-720J0D01*
G01*
X455085Y350332D02*
G03*
X455805Y349612I720J0D01*
G01*
X442365Y349997D02*
G03*
X443085Y350717I0J720D01*
G01*
X467805Y355723D02*
G03*
X467085Y355003I0J-720D01*
G01*
X443805Y355723D02*
G03*
X443085Y355003I0J-720D01*
G01*
X463005Y355723D02*
G03*
X462285Y355003I0J-720D01*
G01*
X440685D02*
G03*
X439965Y355723I-720J0D01*
G01*
X456765Y349612D02*
G03*
X457485Y350332I0J720D01*
G01*
X445485Y355003D02*
G03*
X444765Y355723I-720J0D01*
G01*
X429405D02*
G03*
X428685Y355003I0J-720D01*
G01*
X459885D02*
G03*
X459165Y355723I-720J0D01*
G01*
X431085Y352800D02*
G03*
X431805Y352080I720J0D01*
G01*
X437565D02*
G03*
X438285Y352800I0J720D01*
G01*
X451965Y349435D02*
G03*
X452685Y350155I0J720D01*
G01*
X445485Y349371D02*
G03*
X446205Y348651I720J0D01*
G01*
X461565Y349612D02*
G03*
X462285Y350332I0J720D01*
G01*
X469485Y355003D02*
G03*
X468765Y355723I-720J0D01*
G01*
X469485Y350332D02*
G03*
X470205Y349612I720J0D01*
G01*
X431085Y355003D02*
G03*
X430365Y355723I-720J0D01*
G01*
X427965Y352080D02*
G03*
X428685Y352800I0J720D01*
G01*
X440685Y350717D02*
G03*
X441405Y349997I720J0D01*
G01*
X464685Y350332D02*
G03*
X465405Y349612I720J0D01*
G01*
X450285Y355003D02*
G03*
X449565Y355723I-720J0D01*
G01*
X453405D02*
G03*
X452685Y355003I0J-720D01*
G01*
X432765Y352080D02*
G03*
X433485Y352800I0J720D01*
G01*
X439005Y355723D02*
G03*
X438285Y355003I0J-720D01*
G01*
X455085D02*
G03*
X454365Y355723I-720J0D01*
G01*
X447165Y348651D02*
G03*
X447885Y349371I0J720D01*
G01*
X459885Y350332D02*
G03*
X460605Y349612I720J0D01*
G01*
X450285Y350155D02*
G03*
X451005Y349435I720J0D01*
G01*
X434205Y355723D02*
G03*
X433485Y355003I0J-720D01*
G01*
X466365Y349612D02*
G03*
X467085Y350332I0J720D01*
G01*
X458205Y355723D02*
G03*
X457485Y355003I0J-720D01*
G01*
X448605Y355723D02*
G03*
X447885Y355003I0J-720D01*
G01*
X503213Y338646D02*
G03*
X503933Y337926I720J0D01*
G01*
X488813Y339406D02*
G03*
X488093Y340126I-720J0D01*
G01*
X482333Y340126D02*
G03*
X481613Y339406I0J-720D01*
G01*
X490493Y332426D02*
G03*
X491213Y333146I0J720D01*
G01*
X484013D02*
G03*
X484733Y332426I720J0D01*
G01*
X500093D02*
G03*
X500813Y333146I0J720D01*
G01*
X495293Y332426D02*
G03*
X496013Y333146I0J720D01*
G01*
X503213Y340706D02*
G03*
X502493Y341426I-720J0D01*
G01*
X484013Y339406D02*
G03*
X483293Y340126I-720J0D01*
G01*
X496733Y341426D02*
G03*
X496013Y340706I0J-720D01*
G01*
X488813Y333146D02*
G03*
X489533Y332426I720J0D01*
G01*
X498413Y340706D02*
G03*
X497693Y341426I-720J0D01*
G01*
X501533D02*
G03*
X500813Y340706I0J-720D01*
G01*
X481255Y336107D02*
G03*
X481613Y336974I-871J867D01*
G01*
X485693Y332426D02*
G03*
X486413Y333146I0J720D01*
G01*
X487133Y340126D02*
G03*
X486413Y339406I0J-720D01*
G01*
X498413Y333146D02*
G03*
X499133Y332426I720J0D01*
G01*
X491933Y341360D02*
G03*
X491213Y340640I0J-720D01*
G01*
X493613Y333146D02*
G03*
X494333Y332426I720J0D01*
G01*
X493613Y340640D02*
G03*
X492893Y341360I-720J0D01*
G01*
X496113Y361055D02*
G03*
X495393Y361775I-720J0D01*
G01*
X478593Y356523D02*
G03*
X479313Y357243I0J720D01*
G01*
X480033Y361134D02*
G03*
X479313Y360414I0J-720D01*
G01*
X489633Y361775D02*
G03*
X488913Y361055I0J-720D01*
G01*
X486513D02*
G03*
X485793Y361775I-720J0D01*
G01*
X488193Y351437D02*
G03*
X488913Y352157I0J720D01*
G01*
X492993Y351414D02*
G03*
X493713Y352134I0J720D01*
G01*
X481713Y360414D02*
G03*
X480993Y361134I-720J0D01*
G01*
X491313Y361055D02*
G03*
X490593Y361775I-720J0D01*
G01*
X496113Y357243D02*
G03*
X496833Y356523I720J0D01*
G01*
X484833Y361775D02*
G03*
X484113Y361055I0J-720D01*
G01*
X481713Y350820D02*
G03*
X482433Y350100I720J0D01*
G01*
X486513Y352157D02*
G03*
X487233Y351437I720J0D01*
G01*
X483393Y350100D02*
G03*
X484113Y350820I0J720D01*
G01*
X491313Y352134D02*
G03*
X492033Y351414I720J0D01*
G01*
X494433Y361775D02*
G03*
X493713Y361055I0J-720D01*
G01*
X466403Y367707D02*
G03*
X467123Y368427I0J720D01*
G01*
X456803Y367426D02*
G03*
X457523Y368146I0J720D01*
G01*
X471203Y370486D02*
G03*
X471923Y371206I0J720D01*
G01*
X461603Y367426D02*
G03*
X462323Y368146I0J720D01*
G01*
X459923Y375706D02*
G03*
X459203Y376426I-720J0D01*
G01*
X450323Y368146D02*
G03*
X451043Y367426I720J0D01*
G01*
X459923Y368146D02*
G03*
X460643Y367426I720J0D01*
G01*
X464723Y374726D02*
G03*
X464003Y375446I-720J0D01*
G01*
X469523Y372531D02*
G03*
X468803Y373251I-720J0D01*
G01*
X447203Y367426D02*
G03*
X447923Y368146I0J720D01*
G01*
X443843Y376426D02*
G03*
X443123Y375706I0J-720D01*
G01*
X458243Y376426D02*
G03*
X457523Y375706I0J-720D01*
G01*
X450323D02*
G03*
X449603Y376426I-720J0D01*
G01*
X463043Y375446D02*
G03*
X462323Y374726I0J-720D01*
G01*
X445523Y368146D02*
G03*
X446243Y367426I720J0D01*
G01*
X464723Y368427D02*
G03*
X465443Y367707I720J0D01*
G01*
X455123Y368146D02*
G03*
X455843Y367426I720J0D01*
G01*
X455123Y375706D02*
G03*
X454403Y376426I-720J0D01*
G01*
X442403Y371926D02*
G03*
X443123Y372646I0J720D01*
G01*
X445523Y375706D02*
G03*
X444803Y376426I-720J0D01*
G01*
X469523Y371206D02*
G03*
X470243Y370486I720J0D01*
G01*
X453443Y376426D02*
G03*
X452723Y375706I0J-720D01*
G01*
X452003Y367426D02*
G03*
X452723Y368146I0J720D01*
G01*
X472643Y371926D02*
G03*
X471923Y371206I0J-720D01*
G01*
X448643Y376426D02*
G03*
X447923Y375706I0J-720D01*
G01*
X467843Y373251D02*
G03*
X467123Y372531I0J-720D01*
G01*
X471075Y346230D02*
G03*
X471795Y345510I720J0D01*
G01*
X429046Y348091D02*
G03*
X430275Y348600I509J509D01*
G01*
X442275Y341911D02*
G03*
X442995Y341191I720J0D01*
G01*
X435795Y351280D02*
G03*
X435075Y350560I0J-720D01*
G01*
X458355Y345510D02*
G03*
X459075Y346230I0J720D01*
G01*
X471075Y348093D02*
G03*
X470355Y348813I-720J0D01*
G01*
X437475Y341911D02*
G03*
X438195Y341191I720J0D01*
G01*
X478995Y347504D02*
G03*
X478275Y346784I0J-720D01*
G01*
X432675Y341911D02*
G03*
X433395Y341191I720J0D01*
G01*
X461475Y346230D02*
G03*
X462195Y345510I720J0D01*
G01*
X474195Y349927D02*
G03*
X473475Y349207I0J-720D01*
G01*
X477555Y345510D02*
G03*
X478275Y346230I0J720D01*
G01*
X451875D02*
G03*
X452595Y345510I720J0D01*
G01*
X453555D02*
G03*
X454275Y346230I0J720D01*
G01*
X469395Y348813D02*
G03*
X468675Y348093I0J-720D01*
G01*
X432675Y350560D02*
G03*
X431955Y351280I-720J0D01*
G01*
X459795Y348813D02*
G03*
X459075Y348093I0J-720D01*
G01*
X437475Y350560D02*
G03*
X436755Y351280I-720J0D01*
G01*
X464595Y348813D02*
G03*
X463875Y348093I0J-720D01*
G01*
X456675D02*
G03*
X455955Y348813I-720J0D01*
G01*
X430995Y351280D02*
G03*
X430275Y350560I0J-720D01*
G01*
X439155Y341191D02*
G03*
X439875Y341911I0J720D01*
G01*
X475875Y349207D02*
G03*
X475155Y349927I-720J0D01*
G01*
X463155Y345510D02*
G03*
X463875Y346230I0J720D01*
G01*
X466275Y348093D02*
G03*
X465555Y348813I-720J0D01*
G01*
X450195Y348635D02*
G03*
X449475Y347915I0J-720D01*
G01*
X434355Y341191D02*
G03*
X435075Y341911I0J720D01*
G01*
X466275Y346230D02*
G03*
X466995Y345510I720J0D01*
G01*
X467955D02*
G03*
X468675Y346230I0J720D01*
G01*
X442275Y348477D02*
G03*
X441555Y349197I-720J0D01*
G01*
X461475Y348093D02*
G03*
X460755Y348813I-720J0D01*
G01*
X445395Y347850D02*
G03*
X444675Y347130I0J-720D01*
G01*
X448755Y343881D02*
G03*
X449475Y344601I0J720D01*
G01*
X451875Y347915D02*
G03*
X451155Y348635I-720J0D01*
G01*
X475875Y346230D02*
G03*
X476595Y345510I720J0D01*
G01*
X472755D02*
G03*
X473475Y346230I0J720D01*
G01*
X447075Y347130D02*
G03*
X446355Y347850I-720J0D01*
G01*
X443955Y341191D02*
G03*
X444675Y341911I0J720D01*
G01*
X447075Y344601D02*
G03*
X447795Y343881I720J0D01*
G01*
X456675Y346230D02*
G03*
X457395Y345510I720J0D01*
G01*
X454995Y348813D02*
G03*
X454275Y348093I0J-720D01*
G01*
X440595Y349197D02*
G03*
X439875Y348477I0J-720D01*
G01*
X474774Y357323D02*
G03*
X475493Y358043I0J720D01*
G01*
X468294D02*
G03*
X469014Y357323I720J0D01*
G01*
X473094Y368966D02*
G03*
X472373Y369686I-720J0D01*
G01*
X466613Y366907D02*
G03*
X465894Y366187I0J-720D01*
G01*
X455574Y357323D02*
G03*
X456293Y358043I0J720D01*
G01*
X449093Y363006D02*
G03*
X448374Y363726I-720J0D01*
G01*
X471414Y369686D02*
G03*
X470693Y368966I0J-720D01*
G01*
X468294Y366187D02*
G03*
X467573Y366907I-720J0D01*
G01*
X458694Y365906D02*
G03*
X457973Y366626I-720J0D01*
G01*
X476214Y364678D02*
G03*
X475493Y363958I0J-720D01*
G01*
X458694Y358043D02*
G03*
X459413Y357323I720J0D01*
G01*
X452213Y366626D02*
G03*
X451494Y365906I0J-720D01*
G01*
X453894Y358043D02*
G03*
X454613Y357323I720J0D01*
G01*
X449093Y360504D02*
G03*
X449814Y359784I720J0D01*
G01*
X469974Y357323D02*
G03*
X470693Y358043I0J720D01*
G01*
X457014Y366626D02*
G03*
X456293Y365906I0J-720D01*
G01*
X473094Y358043D02*
G03*
X473813Y357323I720J0D01*
G01*
X453894Y365906D02*
G03*
X453173Y366626I-720J0D01*
G01*
X465173Y357323D02*
G03*
X465894Y358043I0J720D01*
G01*
X460373Y357323D02*
G03*
X461094Y358043I0J720D01*
G01*
X450773Y359784D02*
G03*
X451494Y360504I0J720D01*
G01*
X463493Y358043D02*
G03*
X464214Y357323I720J0D01*
G01*
X461813Y366626D02*
G03*
X461094Y365906I0J-720D01*
G01*
X463493D02*
G03*
X462774Y366626I-720J0D01*
G01*
X472084Y378053D02*
G03*
X471364Y378773I-720J0D01*
G01*
X473764Y372726D02*
G03*
X474484Y373446I0J720D01*
G01*
X476884Y378658D02*
G03*
X476164Y379378I-720J0D01*
G01*
X468964Y374795D02*
G03*
X469684Y375515I0J720D01*
G01*
X475204Y379378D02*
G03*
X474484Y378658I0J-720D01*
G01*
X476884Y375515D02*
G03*
X477604Y374795I720J0D01*
G01*
X472084Y373446D02*
G03*
X472804Y372726I720J0D01*
G01*
X470404Y378773D02*
G03*
X469684Y378053I0J-720D01*
G01*
X445768Y406706D02*
G03*
X445048Y407426I-720J0D01*
G01*
X447448Y398426D02*
G03*
X448168Y399146I0J720D01*
G01*
X445768D02*
G03*
X446488Y398426I720J0D01*
G01*
X444088Y407426D02*
G03*
X443368Y406706I0J-720D01*
G01*
X448888Y402926D02*
G03*
X448168Y402206I0J-720D01*
G01*
X442648Y402926D02*
G03*
X443368Y403646I0J720D01*
G01*
X493513Y393920D02*
G03*
X492793Y394640I-720J0D01*
G01*
X485593Y390355D02*
G03*
X486313Y391075I0J720D01*
G01*
X496633Y395294D02*
G03*
X495913Y394574I0J-720D01*
G01*
X487033Y394546D02*
G03*
X486313Y393826I0J-720D01*
G01*
X498313Y394574D02*
G03*
X497593Y395294I-720J0D01*
G01*
X498313Y391075D02*
G03*
X499033Y390355I720J0D01*
G01*
X488713Y393826D02*
G03*
X487993Y394546I-720J0D01*
G01*
X488713Y391019D02*
G03*
X489433Y390299I720J0D01*
G01*
X493513Y391019D02*
G03*
X494233Y390299I720J0D01*
G01*
X490393D02*
G03*
X491113Y391019I0J720D01*
G01*
X491833Y394640D02*
G03*
X491113Y393920I0J-720D01*
G01*
X495193Y390299D02*
G03*
X495913Y391019I0J720D01*
G01*
X437930Y401182D02*
G03*
X437210Y400462I0J-720D01*
G01*
X470090Y391691D02*
G03*
X470810Y392411I0J720D01*
G01*
X454010Y400462D02*
G03*
X453290Y401182I-720J0D01*
G01*
X441290Y391691D02*
G03*
X442010Y392411I0J720D01*
G01*
X460490Y391691D02*
G03*
X461210Y392411I0J720D01*
G01*
X447530Y397626D02*
G03*
X446810Y396906I0J-720D01*
G01*
X471530Y401182D02*
G03*
X470810Y400462I0J-720D01*
G01*
X454010Y392411D02*
G03*
X454730Y391691I720J0D01*
G01*
X463610Y392411D02*
G03*
X464330Y391691I720J0D01*
G01*
X442730Y401182D02*
G03*
X442010Y400462I0J-720D01*
G01*
X474890Y391691D02*
G03*
X475610Y392411I0J720D01*
G01*
X482810Y394075D02*
G03*
X483530Y393355I720J0D01*
G01*
X458810Y400462D02*
G03*
X458090Y401182I-720J0D01*
G01*
X468410Y392411D02*
G03*
X469130Y391691I720J0D01*
G01*
X468410Y400462D02*
G03*
X467690Y401182I-720J0D01*
G01*
X487610Y397402D02*
G03*
X488330Y396682I720J0D01*
G01*
X466730Y401182D02*
G03*
X466010Y400462I0J-720D01*
G01*
X473210Y392411D02*
G03*
X473930Y391691I720J0D01*
G01*
X473210Y400462D02*
G03*
X472490Y401182I-720J0D01*
G01*
X484490Y393355D02*
G03*
X485210Y394075I0J720D01*
G01*
X487610Y400462D02*
G03*
X486890Y401182I-720J0D01*
G01*
X479690Y391691D02*
G03*
X480410Y392411I0J720D01*
G01*
X452330Y401182D02*
G03*
X451610Y400462I0J-720D01*
G01*
X478010Y392411D02*
G03*
X478730Y391691I720J0D01*
G01*
X444410Y392411D02*
G03*
X445130Y391691I720J0D01*
G01*
X482810Y400462D02*
G03*
X482090Y401182I-720J0D01*
G01*
X450890Y391691D02*
G03*
X451610Y392411I0J720D01*
G01*
X457130Y401182D02*
G03*
X456410Y400462I0J-720D01*
G01*
X449210Y392411D02*
G03*
X449930Y391691I720J0D01*
G01*
X455690D02*
G03*
X456410Y392411I0J720D01*
G01*
X481130Y401182D02*
G03*
X480410Y400462I0J-720D01*
G01*
X485930Y401182D02*
G03*
X485210Y400462I0J-720D01*
G01*
X439610Y392411D02*
G03*
X440330Y391691I720J0D01*
G01*
X436490Y396682D02*
G03*
X437210Y397402I0J720D01*
G01*
X446090Y391691D02*
G03*
X446810Y392411I0J720D01*
G01*
X458810D02*
G03*
X459530Y391691I720J0D01*
G01*
X463610Y400462D02*
G03*
X462890Y401182I-720J0D01*
G01*
X461930D02*
G03*
X461210Y400462I0J-720D01*
G01*
X478010D02*
G03*
X477290Y401182I-720J0D01*
G01*
X444410Y400462D02*
G03*
X443690Y401182I-720J0D01*
G01*
X439610Y400462D02*
G03*
X438890Y401182I-720J0D01*
G01*
X449210Y396906D02*
G03*
X448490Y397626I-720J0D01*
G01*
X465290Y391691D02*
G03*
X466010Y392411I0J720D01*
G01*
X476330Y401182D02*
G03*
X475610Y400462I0J-720D01*
G01*
X408664Y355879D02*
X420132Y344411D01*
X435897Y316008D02*
X500314Y251591D01*
X421567Y318000D02*
X438000D01*
X500472Y255528D01*
X429551Y322000D02*
X435663D01*
X498198Y259465D01*
X497663Y348926D02*
X497863Y349126D01*
X446651Y339926D02*
X451435Y344710D01*
X431152Y339926D02*
X446651D01*
X686000Y259465D02*
X686000Y259465D01*
X498198Y259465D02*
X686000D01*
X496563Y263402D02*
X686000D01*
X437563Y324562D02*
X493284Y268842D01*
X441584Y331756D02*
X479466Y293874D01*
X438433Y327762D02*
X486759Y279436D01*
X434765Y327762D02*
X438433D01*
X439730Y329000D02*
X482730Y286000D01*
X436203Y323762D02*
X496563Y263402D01*
X438433Y326000D02*
X491629Y272805D01*
X441207Y330000D02*
X481270Y289937D01*
X493284Y268842D02*
X498473D01*
X434658Y329000D02*
X439730D01*
X498473Y268842D02*
X686000Y268842D01*
X431441Y331756D02*
X441584D01*
X431762Y330000D02*
X441207D01*
X435395Y326000D02*
X438433D01*
X435701Y324562D02*
X437563D01*
X435370Y323762D02*
X436203D01*
X433132Y326000D02*
X435370Y323762D01*
X686000Y263402D02*
X686000Y263402D01*
X417504Y326000D02*
X433132D01*
X423616Y327762D02*
X426295D01*
X427256Y326800D02*
X433464D01*
X426295Y327762D02*
X427256Y326800D01*
X421188Y334000D02*
X427588Y327600D01*
X428018Y328400D02*
X434127D01*
X420725Y335693D02*
X428018Y328400D01*
X434458Y329200D02*
X434658Y329000D01*
X433464Y326800D02*
X435701Y324562D01*
X433795Y327600D02*
X435395Y326000D01*
X434127Y328400D02*
X434765Y327762D01*
X427588Y327600D02*
X433795D01*
X428349Y329200D02*
X434458D01*
X415943Y341606D02*
X428349Y329200D01*
X409504Y334000D02*
X421188D01*
X416833Y344929D02*
X431762Y330000D01*
X500472Y255528D02*
X686000Y255528D01*
X423559Y327819D02*
X423616Y327762D01*
X491629Y272805D02*
X686000D01*
X686000Y272805D01*
X415685Y335693D02*
X420725D01*
X411748Y339630D02*
X413724Y341606D01*
X418113Y351150D02*
X420006Y349257D01*
X397362Y344929D02*
X416833D01*
X399937Y347504D02*
X415693D01*
X415991Y351150D02*
X418113D01*
X413724Y341606D02*
X415943D01*
X415693Y347504D02*
X431441Y331756D01*
X413699Y353442D02*
X413699D01*
X396000Y343567D02*
X397362Y344929D01*
X430573Y333866D02*
X479014D01*
X420132Y344307D02*
X430573Y333866D01*
X493895Y349126D02*
X497663D01*
X489479Y344710D02*
X493895Y349126D01*
X421637Y349441D02*
X431152Y339926D01*
X451435Y344710D02*
X489479D01*
X421637Y349441D02*
Y349451D01*
X479466Y293874D02*
X686000D01*
X427963Y358926D02*
X430365Y356523D01*
X479014Y333866D02*
X481053Y335905D01*
X506768Y369833D02*
X517675Y358926D01*
X477733Y369833D02*
X506768D01*
X475640Y371926D02*
X477733Y369833D01*
X489647Y366534D02*
X489866Y366753D01*
X495853Y364678D02*
X496777Y363753D01*
X489866Y366753D02*
X501673D01*
X476413Y364678D02*
X495853D01*
X420132Y344307D02*
Y344411D01*
X420907Y351465D02*
X425672D01*
X403373Y355879D02*
X408664D01*
X411277Y356799D02*
Y359801D01*
Y356799D02*
X412197Y355879D01*
X416492D02*
X420907Y351465D01*
X432453Y336810D02*
X446370D01*
X422194Y347068D02*
X432453Y336810D01*
X446370D02*
X450486Y340926D01*
X413699Y353442D02*
X415991Y351150D01*
X412197Y355879D02*
X416492D01*
X421899Y347068D02*
X422194D01*
X420006Y348961D02*
X421899Y347068D01*
X420006Y348961D02*
Y349257D01*
X454564Y385546D02*
Y387206D01*
X464884Y387926D02*
X465844D01*
X459364Y383712D02*
Y387206D01*
X462484Y382638D02*
X463444D01*
X457684Y382992D02*
X458644D01*
X456964Y383712D02*
Y387206D01*
X469684Y384826D02*
X472517D01*
X466564Y383358D02*
Y387206D01*
X464164Y383358D02*
Y387206D01*
X461764Y383358D02*
Y387206D01*
X468964Y383358D02*
Y384106D01*
X467284Y382638D02*
X468244D01*
X453644Y384826D02*
X453844D01*
X455284Y387926D02*
X456244D01*
X460084D02*
X461044D01*
X467490Y379573D02*
X468450D01*
X473970Y380293D02*
Y381118D01*
X472290Y379573D02*
X473250D01*
X471570Y380293D02*
Y381414D01*
X469890Y382134D02*
X470850D01*
X463450Y381838D02*
X466050D01*
X469170Y380293D02*
Y381414D01*
X474690Y381838D02*
X476811D01*
X466770Y380293D02*
Y381118D01*
X463406Y335627D02*
Y343187D01*
X478526Y336189D02*
X479486D01*
X476126Y343907D02*
X477086D01*
X458606Y335627D02*
Y343187D01*
X452126Y343549D02*
X453086D01*
X475406Y335627D02*
Y343187D01*
X466526Y343907D02*
X467486D01*
X470606Y335627D02*
Y343187D01*
X451406Y341646D02*
Y342829D01*
X468206Y335627D02*
Y343187D01*
X456206Y335627D02*
Y343187D01*
X468926Y334907D02*
X469886D01*
X454526D02*
X455486D01*
X464126D02*
X465086D01*
X473726D02*
X474686D01*
X482606Y341646D02*
Y343154D01*
X471326Y343907D02*
X472286D01*
X453806Y335627D02*
Y342829D01*
X483326Y340926D02*
X488179D01*
X473006Y335627D02*
Y343187D01*
X456926Y343907D02*
X457886D01*
X480206Y336909D02*
Y343154D01*
X461726Y343907D02*
X462686D01*
X477806Y336909D02*
Y343187D01*
X480926Y343874D02*
X481886D01*
X461006Y335627D02*
Y343187D01*
X465806Y335627D02*
Y343187D01*
X459326Y334907D02*
X460286D01*
X450486Y340926D02*
X450686D01*
X462285Y350332D02*
Y355003D01*
X455085Y350332D02*
Y355003D01*
X443805Y355723D02*
X444765D01*
X455805Y349612D02*
X456765D01*
X446205Y348651D02*
X447165D01*
X465405Y349612D02*
X466365D01*
X445485Y349371D02*
Y355003D01*
X451005Y349435D02*
X451965D01*
X457485Y350332D02*
Y355003D01*
X460605Y349612D02*
X461565D01*
X429405Y355723D02*
X430365D01*
X436605Y352080D02*
X437565D01*
X439005Y355723D02*
X439965D01*
X469485Y350332D02*
Y355003D01*
X467085Y350332D02*
Y355003D01*
X435885Y352800D02*
Y355003D01*
X443085Y350717D02*
Y355003D01*
X447885Y349371D02*
Y355003D01*
X459885Y350332D02*
Y355003D01*
X463005Y355723D02*
X463965D01*
X433485Y352800D02*
Y355003D01*
X467805Y355723D02*
X468765D01*
X472029Y349612D02*
X473920Y351504D01*
X464685Y350332D02*
Y355003D01*
X441405Y349997D02*
X442365D01*
X427765Y352080D02*
X427965D01*
X450285Y350155D02*
Y355003D01*
X452685Y350155D02*
Y355003D01*
X431085Y352800D02*
Y355003D01*
X448605Y355723D02*
X449565D01*
X440685Y350717D02*
Y355003D01*
X453405Y355723D02*
X454365D01*
X434205D02*
X435165D01*
X438285Y352800D02*
Y355003D01*
X470205Y349612D02*
X472029D01*
X458205Y355723D02*
X459165D01*
X431805Y352080D02*
X432765D01*
X428685Y352800D02*
Y355003D01*
X500813Y333146D02*
Y340706D01*
X496733Y341426D02*
X497693D01*
X498413Y333146D02*
Y340706D01*
X493613Y333146D02*
Y340640D01*
X487133Y340126D02*
X488093D01*
X496013Y333146D02*
Y340706D01*
X503213Y338646D02*
Y340706D01*
X491933Y341360D02*
X492893D01*
X484013Y333146D02*
Y339406D01*
X494333Y332426D02*
X495293D01*
X481053Y335905D02*
X481255Y336107D01*
X491213Y333146D02*
Y340640D01*
X501533Y341426D02*
X502493D01*
X484733Y332426D02*
X485693D01*
X486413Y333146D02*
Y339406D01*
X481613Y336974D02*
Y339406D01*
X503933Y337926D02*
X507238D01*
X488813Y333146D02*
Y339406D01*
X482333Y340126D02*
X483293D01*
X489533Y332426D02*
X490493D01*
X499133D02*
X500093D01*
X489633Y361775D02*
X490593D01*
X488913Y352157D02*
Y361055D01*
X479313Y357243D02*
Y360414D01*
X482433Y350100D02*
X483393D01*
X496113Y357243D02*
Y361055D01*
X487233Y351437D02*
X488193D01*
X491313Y352134D02*
Y361055D01*
X496833Y356523D02*
X499079D01*
X481713Y350820D02*
Y360414D01*
X484833Y361775D02*
X485793D01*
X493713Y352134D02*
Y361055D01*
X499079Y356523D02*
X499893Y355710D01*
X486513Y352157D02*
Y361055D01*
X494433Y361775D02*
X495393D01*
X492033Y351414D02*
X492993D01*
X484113Y350820D02*
Y361055D01*
X478393Y356523D02*
X478593D01*
X480033Y361134D02*
X480993D01*
X499893Y355710D02*
X505947D01*
X458243Y376426D02*
X459203D01*
X460643Y367426D02*
X461603D01*
X465443Y367707D02*
X466403D01*
X472643Y371926D02*
X475640D01*
X450323Y368146D02*
Y375706D01*
X443123Y372646D02*
Y375706D01*
X455843Y367426D02*
X456803D01*
X446243D02*
X447203D01*
X455123Y368146D02*
Y375706D01*
X451043Y367426D02*
X452003D01*
X445523Y368146D02*
Y375706D01*
X463043Y375446D02*
X464003D01*
X452723Y368146D02*
Y375706D01*
X447923Y368146D02*
Y375706D01*
X443843Y376426D02*
X444803D01*
X471923Y371206D02*
Y371206D01*
X462323Y368146D02*
Y374726D01*
X457523Y368146D02*
Y375706D01*
X453443Y376426D02*
X454403D01*
X469523Y371206D02*
Y372531D01*
X442203Y371926D02*
X442403D01*
X467123Y368427D02*
Y372531D01*
X467843Y373251D02*
X468803D01*
X464723Y368427D02*
Y374726D01*
X470243Y370486D02*
X471203D01*
X459923Y368146D02*
Y375706D01*
X448643Y376426D02*
X449603D01*
X473475Y346230D02*
Y349207D01*
X468675Y346230D02*
Y348093D01*
X471075Y346230D02*
Y348093D01*
X456675Y346230D02*
Y348093D01*
X464595Y348813D02*
X465555D01*
X435795Y351280D02*
X436755D01*
X463875Y346230D02*
Y348093D01*
X442995Y341191D02*
X443955D01*
X457395Y345510D02*
X458355D01*
X471795D02*
X472755D01*
X430995Y351280D02*
X431955D01*
X447075Y344601D02*
Y347130D01*
X429046Y348091D02*
X429046Y348091D01*
X459075Y346230D02*
Y348093D01*
X433395Y341191D02*
X434355D01*
X454995Y348813D02*
X455955D01*
X438195Y341191D02*
X439155D01*
X447795Y343881D02*
X448755D01*
X437475Y341911D02*
Y350560D01*
X452595Y345510D02*
X453555D01*
X466995D02*
X467955D01*
X454275Y346230D02*
Y348093D01*
X445395Y347850D02*
X446355D01*
X444675Y341911D02*
Y347130D01*
X451875Y346230D02*
Y347915D01*
X459795Y348813D02*
X460755D01*
X476595Y345510D02*
X477555D01*
X475875Y346230D02*
Y349207D01*
X440595Y349197D02*
X441555D01*
X428635Y348502D02*
X429046Y348091D01*
X439875Y341911D02*
Y348477D01*
X449475Y344601D02*
Y347915D01*
X478275Y346230D02*
Y346784D01*
X442275Y341911D02*
Y348477D01*
X466275Y346230D02*
Y348093D01*
X430275Y348600D02*
Y350560D01*
X432675Y341911D02*
Y350560D01*
X474195Y349927D02*
X475155D01*
X435075Y341911D02*
Y350560D01*
X461475Y346230D02*
Y348093D01*
X478995Y347504D02*
X486551D01*
X469395Y348813D02*
X470355D01*
X450195Y348635D02*
X451155D01*
X462195Y345510D02*
X463155D01*
X486551Y347504D02*
X487008Y347961D01*
X454613Y357323D02*
X455574D01*
X463493Y358043D02*
Y365906D01*
X471414Y369686D02*
X472373D01*
X468294Y358043D02*
Y366187D01*
X449814Y359784D02*
X450773D01*
X437259Y361022D02*
X439963Y363726D01*
X461094Y358043D02*
Y365906D01*
X451494Y360504D02*
Y365906D01*
X459413Y357323D02*
X460373D01*
X475493Y358043D02*
Y363958D01*
X453894Y358043D02*
Y365906D01*
X458694Y358043D02*
Y365906D01*
X456293Y358043D02*
Y365906D01*
X452213Y366626D02*
X453173D01*
X473813Y357323D02*
X474774D01*
X465894Y358043D02*
Y366187D01*
X473094Y358043D02*
Y368966D01*
X476214Y364678D02*
X476413D01*
X464214Y357323D02*
X465173D01*
X449093Y360504D02*
Y363006D01*
X466613Y366907D02*
X467573D01*
X461813Y366626D02*
X462774D01*
X469014Y357323D02*
X469974D01*
X470693Y358043D02*
Y368966D01*
X457014Y366626D02*
X457973D01*
X439963Y363726D02*
X448374D01*
X470404Y378773D02*
X471364D01*
X461586Y378526D02*
X465317Y374795D01*
X474484Y373446D02*
Y378658D01*
X465317Y374795D02*
X468964D01*
X477604D02*
X483413D01*
X476884Y375515D02*
Y378658D01*
X472804Y372726D02*
X473764D01*
X472084Y373446D02*
Y378053D01*
X469684Y375515D02*
Y378053D01*
X475204Y379378D02*
X476164D01*
X459164Y378526D02*
X461586D01*
X442448Y402926D02*
X442648D01*
X448168Y399146D02*
Y402206D01*
X443368Y403646D02*
Y406706D01*
X446488Y398426D02*
X447448D01*
X444088Y407426D02*
X445048D01*
X448888Y402926D02*
X452086D01*
X445768Y399146D02*
Y406706D01*
X489433Y390299D02*
X490393D01*
X493513Y391019D02*
Y393920D01*
X494233Y390299D02*
X495193D01*
X491833Y394640D02*
X492793D01*
X498313Y391075D02*
Y394574D01*
X488713Y391019D02*
Y393826D01*
X485393Y390355D02*
X485593D01*
X499033D02*
X500073D01*
X495913Y391019D02*
Y394574D01*
X486313Y391075D02*
Y393826D01*
X487033Y394546D02*
X487993D01*
X491113Y391019D02*
Y393920D01*
X496633Y395294D02*
X497593D01*
X439610Y392411D02*
Y400462D01*
X466010Y392411D02*
Y400462D01*
X458810Y392411D02*
Y400462D01*
X437930Y401182D02*
X438890D01*
X437210Y397402D02*
Y400462D01*
X463610Y392411D02*
Y400462D01*
X476330Y401182D02*
X477290D01*
X478730Y391691D02*
X479690D01*
X487610Y397402D02*
Y400462D01*
X436290Y396682D02*
X436490D01*
X468410Y392411D02*
Y400462D01*
X449930Y391691D02*
X450890D01*
X473210Y392411D02*
Y400462D01*
X444410Y392411D02*
Y400462D01*
X456410Y392411D02*
Y400462D01*
X461930Y401182D02*
X462890D01*
X475610Y392411D02*
Y400462D01*
X464330Y391691D02*
X465290D01*
X440330D02*
X441290D01*
X445130D02*
X446090D01*
X473930D02*
X474890D01*
X485930Y401182D02*
X486890D01*
X483530Y393355D02*
X484490D01*
X451610Y392411D02*
Y400462D01*
X480410Y392411D02*
Y400462D01*
X449210Y392411D02*
Y396906D01*
X485210Y394075D02*
Y400462D01*
X447530Y397626D02*
X448490D01*
X469130Y391691D02*
X470090D01*
X478010Y392411D02*
Y400462D01*
X466730Y401182D02*
X467690D01*
X481130D02*
X482090D01*
X446810Y392411D02*
Y396906D01*
X454010Y392411D02*
Y400462D01*
X459530Y391691D02*
X460490D01*
X470810Y392411D02*
Y400462D01*
X488330Y396682D02*
X489800D01*
X482810Y394075D02*
Y400462D01*
X442010Y392411D02*
Y400462D01*
X471530Y401182D02*
X472490D01*
X442730D02*
X443690D01*
X461210Y392411D02*
Y400462D01*
X452330Y401182D02*
X453290D01*
X454730Y391691D02*
X455690D01*
X457130Y401182D02*
X458090D01*
X421122Y388041D02*
X421807Y388726D01*
X419622Y379000D02*
Y380816D01*
X421122Y382316D02*
Y388041D01*
X419622Y380816D02*
X421122Y382316D01*
X429053Y384934D02*
X431349Y382638D01*
X425500Y384934D02*
X429053D01*
X423559Y386876D02*
X425500Y384934D01*
X431349Y382638D02*
X437713D01*
X429379Y386741D02*
X431266Y384854D01*
X436213D02*
X440086Y388726D01*
X437713Y382638D02*
X439901Y384826D01*
X431266Y384854D02*
X436213D01*
X439901Y384826D02*
X453644D01*
X421807Y388726D02*
X428718D01*
X429379Y388065D01*
Y386741D02*
Y388065D01*
X505561Y345296D02*
X511289Y351024D01*
X499124Y345296D02*
X499170Y345342D01*
X500495D01*
X500541Y345296D01*
X505561D01*
X494017D02*
X499124D01*
X489647Y340926D02*
X494017Y345296D01*
X488179Y340926D02*
X489647D01*
X503963Y384134D02*
X509753D01*
X511289Y385670D01*
X472517Y384826D02*
X488263D01*
X491363Y387926D01*
X500170D01*
X503963Y384134D01*
Y387283D02*
X509753D01*
X511289Y388819D01*
X502520Y388726D02*
X503963Y387283D01*
X440086Y388726D02*
X502520D01*
X409762Y361316D02*
X411277Y359801D01*
X487008Y347961D02*
X488051Y349004D01*
X425672Y351465D02*
X428635Y348502D01*
X528688Y358926D02*
X529963Y357652D01*
X433384Y365253D02*
X440057Y371926D01*
X442203D01*
X529963Y357040D02*
Y357652D01*
X528671Y355749D02*
X529963Y357040D01*
X528670Y355749D02*
X528671D01*
X517675Y358926D02*
X528688D01*
X440057Y378526D02*
X459164D01*
X518755Y378267D02*
X521317Y375706D01*
X509054Y379326D02*
X511326D01*
X512781Y377871D01*
X483413Y374795D02*
X486885Y378267D01*
X515450D02*
X518755D01*
X515053Y377871D02*
X515450Y378267D01*
X486885D02*
X507995D01*
X509054Y379326D01*
X512781Y377871D02*
X515053D01*
X433647Y373553D02*
X435084D01*
X440057Y378526D01*
X433384Y373290D02*
X433647Y373553D01*
X507640Y337926D02*
X527037Y357323D01*
X507238Y337926D02*
X507640D01*
X399937Y359315D02*
X403373Y355879D01*
X521854Y396768D02*
X525772Y400686D01*
X504369Y396768D02*
X521854D01*
X496087Y396926D02*
X504211D01*
X504369Y396768D01*
X495844Y396682D02*
X496087Y396926D01*
X489800Y396682D02*
X495844D01*
X430365D02*
X436290D01*
X429197Y395514D02*
X430365Y396682D01*
X429197Y393181D02*
Y395514D01*
X425360Y392947D02*
X428963D01*
X429197Y393181D01*
X423559Y394748D02*
X425360Y392947D01*
X522274Y384134D02*
X525501D01*
X517353Y389055D02*
X522274Y384134D01*
X517353Y389055D02*
X517353D01*
X516053Y390355D02*
X517353Y389055D01*
X500073Y390355D02*
X516053D01*
X434914D02*
X485393D01*
X431433Y386874D02*
X434914Y390355D01*
X505856Y365906D02*
X508140Y363623D01*
X502520Y365906D02*
X505856D01*
X501673Y366753D02*
X502520Y365906D01*
X512021Y355710D02*
X514554Y358243D01*
X505947Y355710D02*
X512021D01*
X430365Y356523D02*
X478393D01*
X426496Y358926D02*
X427963D01*
X425994Y359428D02*
X426496Y358926D01*
X424752Y359428D02*
X425994D01*
X424250Y358926D02*
X424752Y359428D01*
X423963Y358926D02*
X424250D01*
X419963Y362926D02*
X423963Y358926D01*
X415999Y362926D02*
X419963D01*
X413699Y365226D02*
X415999Y362926D01*
X401900Y365226D02*
X413699D01*
X399937Y367189D02*
X401900Y365226D01*
X544713Y365236D02*
X547387Y367910D01*
X524935Y365236D02*
X544713D01*
X521785Y368386D02*
X524935Y365236D01*
X527037Y360473D02*
X530541D01*
X535880Y355134D01*
X547388D01*
X475859Y353442D02*
X475963D01*
X473920Y351504D02*
X475859Y353442D01*
X426188Y352080D02*
X427765D01*
X421848Y356274D02*
X425857Y352264D01*
X426003D02*
X426188Y352080D01*
X425857Y352264D02*
X426003D01*
X421848Y356274D02*
Y357516D01*
X421591Y357773D02*
X421848Y357516D01*
X487301Y376658D02*
X494113D01*
X496513Y374258D01*
X513347D01*
X514179Y373426D01*
X514558D01*
X518963Y402926D02*
X521963Y399926D01*
X455465Y402926D02*
X518963D01*
X452086D02*
X455465D01*
X436566D02*
X442448D01*
X434492Y405000D02*
X436566Y402926D01*
X426567Y405000D02*
X434492D01*
X424457Y402890D02*
X426567Y405000D01*
X423827Y402890D02*
X424457D01*
X423559Y402622D02*
X423827Y402890D01*
X526359Y381838D02*
X528545Y384024D01*
X524337Y381838D02*
X526359D01*
X523170Y380671D02*
X524337Y381838D01*
X515252Y380671D02*
X523170D01*
X514320Y381603D02*
X515252Y380671D01*
X507636Y381603D02*
X514320D01*
X500770Y381785D02*
X507454D01*
X507636Y381603D01*
X499656Y380671D02*
X500770Y381785D01*
X477978Y380671D02*
X499656D01*
X476811Y381838D02*
X477978Y380671D01*
X457054Y381838D02*
X463450D01*
X456625Y382267D02*
X457054Y381838D01*
X445686Y382267D02*
X456625D01*
X445257Y381838D02*
X445686Y382267D01*
X434318Y381838D02*
X445257D01*
X433481Y381001D02*
X434318Y381838D01*
X433384Y381001D02*
X433481D01*
X506617Y359003D02*
X509402D01*
X509640Y358765D01*
X501867Y363753D02*
X506617Y359003D01*
X496777Y363753D02*
X501867D01*
X435163Y358926D02*
X437259Y361022D01*
X431386Y358926D02*
X435163D01*
X429447Y360864D02*
X431386Y358926D01*
X429447Y360864D02*
Y365146D01*
X429573Y365273D01*
X486759Y279436D02*
X686000D01*
X686000Y279436D01*
X415685Y327819D02*
X417504Y326000D01*
X427496Y319945D02*
X429551Y322000D01*
X419622Y319945D02*
X421567Y318000D01*
X431433Y316008D02*
X435897D01*
X500314Y251591D02*
X686000Y251591D01*
X407811Y335693D02*
X409504Y334000D01*
X686000Y286000D02*
X686000Y286000D01*
X482730Y286000D02*
X686000Y286000D01*
X481270Y289937D02*
X519022D01*
X686000Y289937D01*
D206*
X16881Y226296D02*
D03*
X6881Y216296D02*
D03*
Y236296D02*
D03*
X26881Y216296D02*
D03*
Y236296D02*
D03*
X16881Y269296D02*
D03*
X6881Y259296D02*
D03*
Y279296D02*
D03*
X26881Y259296D02*
D03*
Y279296D02*
D03*
X17510Y328684D02*
D03*
X7510Y318684D02*
D03*
Y338684D02*
D03*
X27510Y318684D02*
D03*
Y338684D02*
D03*
X18510Y370684D02*
D03*
X8510Y360684D02*
D03*
Y380684D02*
D03*
X28510Y360684D02*
D03*
Y380684D02*
D03*
D207*
X771654Y448819D02*
D03*
X576772Y17717D02*
D03*
X29528Y448819D02*
D03*
X220472Y17717D02*
D03*
D208*
X515537Y450051D02*
D03*
X495537D02*
D03*
X279002Y275248D02*
D03*
X259002D02*
D03*
D209*
X754713Y154798D02*
D03*
X758925D02*
D03*
X754713Y150585D02*
D03*
X758925D02*
D03*
X750500D02*
D03*
Y154798D02*
D03*
X758925Y146373D02*
D03*
X754713D02*
D03*
X750500D02*
D03*
D210*
X149535Y84695D02*
D03*
X116465D02*
D03*
X133000D02*
D03*
Y63041D02*
D03*
X116465D02*
D03*
X687701Y24232D02*
D03*
X640299D02*
D03*
D211*
X762000Y32000D02*
D03*
X774000Y58000D02*
D03*
X729000D02*
D03*
X738000D02*
D03*
X783000D02*
D03*
X742000Y39000D02*
D03*
X750000D02*
D03*
X758000D02*
D03*
X766000D02*
D03*
X746000Y32000D02*
D03*
X754000D02*
D03*
D212*
X770000D02*
D03*
D213*
X731000Y22000D02*
D03*
X781000D02*
D03*
D214*
X668921Y34862D02*
D03*
X659079D02*
D03*
Y42736D02*
D03*
X668921D02*
D03*
D215*
X149535Y63041D02*
D03*
D216*
X82528Y29500D02*
D03*
X62843D02*
D03*
X43157D02*
D03*
D217*
X23472D02*
D03*
D218*
X542086Y232805D02*
D03*
X479457Y233318D02*
D03*
X314025Y234130D02*
D03*
X562000Y35394D02*
D03*
X307748Y172000D02*
D03*
X199502Y147579D02*
D03*
X485107Y24000D02*
D03*
X410799Y67369D02*
D03*
X346394Y96973D02*
D03*
X307551Y25554D02*
D03*
X237000Y11000D02*
D03*
X586446Y297655D02*
D03*
X542488Y307000D02*
D03*
X553512Y308969D02*
D03*
X586446Y316955D02*
D03*
X537326Y299235D02*
D03*
X550187Y297458D02*
D03*
X562487Y299235D02*
D03*
X558471D02*
D03*
X566371Y312186D02*
D03*
X562471Y312189D02*
D03*
X558471Y312218D02*
D03*
X535984Y310719D02*
D03*
Y307219D02*
D03*
X503087Y335000D02*
D03*
X521317Y354052D02*
D03*
X532663Y377026D02*
D03*
X499832Y343742D02*
D03*
X497863Y349126D02*
D03*
X519877Y382992D02*
D03*
X320781Y222040D02*
D03*
Y226756D02*
D03*
X318254D02*
D03*
X571514Y65100D02*
D03*
X578207D02*
D03*
X575000Y61145D02*
D03*
X578010D02*
D03*
X575000Y65100D02*
D03*
X571613Y61145D02*
D03*
X567003D02*
D03*
Y65100D02*
D03*
X571736Y308079D02*
D03*
X569171Y308649D02*
D03*
X565900Y302826D02*
D03*
X548614Y225969D02*
D03*
Y221251D02*
D03*
X546337Y225967D02*
D03*
X515553Y453534D02*
D03*
X495582Y453450D02*
D03*
X279002Y271630D02*
D03*
X258946D02*
D03*
X565900Y230750D02*
D03*
X561418Y214340D02*
D03*
X554937Y217413D02*
D03*
X542754Y221081D02*
D03*
X541967Y199740D02*
D03*
X571613Y84750D02*
D03*
X519000Y91000D02*
D03*
Y85000D02*
D03*
Y73000D02*
D03*
Y79000D02*
D03*
Y67000D02*
D03*
X516000Y76000D02*
D03*
Y70000D02*
D03*
Y88000D02*
D03*
X513000Y85000D02*
D03*
X516000Y82000D02*
D03*
X513000Y91000D02*
D03*
X510000Y82000D02*
D03*
X513000Y79000D02*
D03*
Y73000D02*
D03*
X510000Y76000D02*
D03*
Y70000D02*
D03*
X542000Y57637D02*
D03*
X519000Y61000D02*
D03*
X516000Y64000D02*
D03*
X534000Y51067D02*
D03*
X520000Y32000D02*
D03*
X513000Y61000D02*
D03*
Y67000D02*
D03*
X510000Y47240D02*
D03*
Y64000D02*
D03*
X513000Y27850D02*
D03*
X513150Y20000D02*
D03*
X503050Y230750D02*
D03*
X490937Y217413D02*
D03*
X477967Y221081D02*
D03*
X403337Y228750D02*
D03*
X339901Y231330D02*
D03*
X507000Y91000D02*
D03*
X501000D02*
D03*
X504000Y88000D02*
D03*
X496677Y215282D02*
D03*
X510000Y88000D02*
D03*
X507000Y85000D02*
D03*
X504000Y82000D02*
D03*
X501000Y85000D02*
D03*
Y79000D02*
D03*
X477967Y199724D02*
D03*
X507000Y73000D02*
D03*
Y79000D02*
D03*
X504000Y70000D02*
D03*
Y76000D02*
D03*
X501000Y73000D02*
D03*
X507000Y67000D02*
D03*
X504000Y64000D02*
D03*
X507000Y61000D02*
D03*
X501000Y67000D02*
D03*
Y61000D02*
D03*
X500000Y47240D02*
D03*
X498749Y36000D02*
D03*
Y28000D02*
D03*
Y32000D02*
D03*
X407780Y213250D02*
D03*
X401937Y216413D02*
D03*
X384800Y216000D02*
D03*
X390250Y199000D02*
D03*
X418703Y33971D02*
D03*
X451958Y32157D02*
D03*
X449392D02*
D03*
X454471D02*
D03*
X418703Y21471D02*
D03*
X407447Y126663D02*
D03*
Y129229D02*
D03*
X413702Y109223D02*
D03*
X407447Y131741D02*
D03*
X406202Y96471D02*
D03*
X352702Y89623D02*
D03*
X336750Y218000D02*
D03*
X326937Y218413D02*
D03*
X314754Y222040D02*
D03*
X315344Y201199D02*
D03*
X315500Y147300D02*
D03*
X265501Y80000D02*
D03*
Y86000D02*
D03*
X259501D02*
D03*
X262501Y83000D02*
D03*
X253501Y86000D02*
D03*
X256501Y83000D02*
D03*
X259501Y80000D02*
D03*
X262501Y77000D02*
D03*
X253501Y80000D02*
D03*
X256501Y77000D02*
D03*
X250501Y83000D02*
D03*
X247501Y80000D02*
D03*
X250501Y77000D02*
D03*
X247501Y86000D02*
D03*
X207000Y184800D02*
D03*
Y180000D02*
D03*
Y174500D02*
D03*
Y129000D02*
D03*
X317468Y74973D02*
D03*
X314901D02*
D03*
X312389D02*
D03*
X289504Y55386D02*
D03*
X286938D02*
D03*
X265501Y68000D02*
D03*
Y74000D02*
D03*
Y62000D02*
D03*
X262501Y71000D02*
D03*
Y65000D02*
D03*
X284426Y55386D02*
D03*
X262501Y59000D02*
D03*
X265501Y56000D02*
D03*
X279850Y43070D02*
D03*
X280000Y26250D02*
D03*
X261346Y15999D02*
D03*
X259501Y68000D02*
D03*
Y74000D02*
D03*
X256501Y65000D02*
D03*
Y71000D02*
D03*
X253501Y68000D02*
D03*
X259501Y62000D02*
D03*
X256501Y59000D02*
D03*
X259501Y56000D02*
D03*
X253501Y62000D02*
D03*
Y56000D02*
D03*
Y74000D02*
D03*
X250501Y71000D02*
D03*
Y65000D02*
D03*
X247501Y74000D02*
D03*
Y68000D02*
D03*
X250501Y59000D02*
D03*
X247501Y56000D02*
D03*
Y62000D02*
D03*
X246501Y42240D02*
D03*
X256501D02*
D03*
X254850Y28000D02*
D03*
X245284Y26347D02*
D03*
X245282Y22347D02*
D03*
Y30347D02*
D03*
X179288Y27746D02*
D03*
Y24598D02*
D03*
X175461Y27723D02*
D03*
Y24574D02*
D03*
X104630Y116077D02*
D03*
Y119226D02*
D03*
Y112929D02*
D03*
X534500Y302827D02*
D03*
X531621Y302805D02*
D03*
X484781Y225800D02*
D03*
X482505Y225798D02*
D03*
X484781Y221081D02*
D03*
X241782Y30347D02*
D03*
Y26347D02*
D03*
Y22347D02*
D03*
X241752Y15998D02*
D03*
X194030Y96461D02*
D03*
X190882D02*
D03*
X187733D02*
D03*
X184546Y96563D02*
D03*
X181397D02*
D03*
X178249D02*
D03*
X174831Y96589D02*
D03*
X171683D02*
D03*
X168534D02*
D03*
X192529Y94100D02*
D03*
X189381D02*
D03*
X186232D02*
D03*
X183080D02*
D03*
X179932D02*
D03*
X176784D02*
D03*
X173335D02*
D03*
X170186D02*
D03*
X167037D02*
D03*
X443202Y77666D02*
D03*
Y73111D02*
D03*
Y68555D02*
D03*
Y64000D02*
D03*
X437887Y77666D02*
D03*
Y73111D02*
D03*
Y68555D02*
D03*
Y64000D02*
D03*
X433000D02*
D03*
Y68555D02*
D03*
Y73111D02*
D03*
Y77666D02*
D03*
X222244Y141417D02*
D03*
X215000D02*
D03*
Y147301D02*
D03*
X222354D02*
D03*
Y152000D02*
D03*
X215000D02*
D03*
X230000Y140000D02*
D03*
Y144075D02*
D03*
X229500Y148000D02*
D03*
Y152420D02*
D03*
X312389Y166873D02*
D03*
X318079Y167000D02*
D03*
X315157D02*
D03*
X545299Y202493D02*
D03*
X548132D02*
D03*
Y199909D02*
D03*
X389068Y221081D02*
D03*
X386650Y223500D02*
D03*
X393750Y202252D02*
D03*
X484300Y199740D02*
D03*
Y202324D02*
D03*
X481467D02*
D03*
X102282Y162393D02*
D03*
X105795Y178987D02*
D03*
X56047Y174709D02*
D03*
X28860Y174118D02*
D03*
X489900Y20000D02*
D03*
X491764Y27850D02*
D03*
Y31813D02*
D03*
Y35972D02*
D03*
X481306Y42285D02*
D03*
Y51731D02*
D03*
Y48583D02*
D03*
Y45434D02*
D03*
X484850Y45571D02*
D03*
Y48719D02*
D03*
Y51868D02*
D03*
Y42422D02*
D03*
X362851Y94506D02*
D03*
Y96973D02*
D03*
X358702Y94506D02*
D03*
Y96973D02*
D03*
X384703Y17625D02*
D03*
X377000D02*
D03*
X384380Y25233D02*
D03*
X380690D02*
D03*
X377000D02*
D03*
X380690Y28913D02*
D03*
X384380D02*
D03*
X377000D02*
D03*
X297050Y39570D02*
D03*
X300050D02*
D03*
X307000Y36969D02*
D03*
Y31768D02*
D03*
Y39570D02*
D03*
Y34369D02*
D03*
X304000D02*
D03*
Y39570D02*
D03*
Y31768D02*
D03*
Y36969D02*
D03*
X233543Y38250D02*
D03*
Y47696D02*
D03*
Y44547D02*
D03*
Y41399D02*
D03*
X230000Y41262D02*
D03*
Y44410D02*
D03*
Y47559D02*
D03*
Y38113D02*
D03*
D219*
X443161Y279743D02*
D03*
X441161D02*
D03*
X441584Y299578D02*
D03*
X443584D02*
D03*
X409781Y341631D02*
D03*
D03*
X400000Y351441D02*
D03*
X402114Y353668D02*
D03*
X409762Y349505D02*
D03*
D03*
X409747Y352675D02*
D03*
D03*
X436884Y299578D02*
D03*
X434884D02*
D03*
X417546Y349595D02*
D03*
D03*
X425510Y349505D02*
D03*
D03*
X411748Y390811D02*
D03*
X407811Y386874D02*
D03*
X396000Y359315D02*
D03*
X411748Y382937D02*
D03*
Y398685D02*
D03*
X403874D02*
D03*
X411748Y375063D02*
D03*
X399937Y379000D02*
D03*
X403874Y367189D02*
D03*
X407811Y371126D02*
D03*
X415668Y371109D02*
D03*
X474888Y367233D02*
D03*
X496837Y371845D02*
D03*
X489647Y366534D02*
D03*
X421632Y344929D02*
D03*
X413699Y353442D02*
D03*
Y357379D02*
D03*
X421632Y345067D02*
D03*
X416264Y353956D02*
D03*
X421637Y349451D02*
D03*
D03*
X490101Y350504D02*
D03*
X489851Y372431D02*
D03*
X419622Y379000D02*
D03*
X430418Y377064D02*
D03*
X427525Y371126D02*
D03*
X423559Y386876D02*
D03*
X427525D02*
D03*
X419622Y382937D02*
D03*
Y386874D02*
D03*
X413699Y361316D02*
D03*
X519165Y365648D02*
D03*
X409762Y361316D02*
D03*
X488051Y349004D02*
D03*
X433384Y365253D02*
D03*
X528670Y355749D02*
D03*
X514558Y375985D02*
D03*
X425475Y369357D02*
D03*
X427496Y394748D02*
D03*
X427392Y364751D02*
D03*
X427403Y345954D02*
D03*
X497863Y354281D02*
D03*
X521317Y375706D02*
D03*
X433384Y373290D02*
D03*
X405825Y353442D02*
D03*
X521377Y360473D02*
D03*
X427496Y402622D02*
D03*
X417654Y366239D02*
D03*
X483141Y348600D02*
D03*
X396000Y363252D02*
D03*
X427496Y339630D02*
D03*
X399937Y363252D02*
D03*
X534063Y398794D02*
D03*
X491722Y382411D02*
D03*
X537849Y384306D02*
D03*
X527037Y357323D02*
D03*
X399937Y359315D02*
D03*
X550888Y347334D02*
D03*
X479636Y362634D02*
D03*
X537849Y353594D02*
D03*
X532663Y360473D02*
D03*
X550888Y371810D02*
D03*
X504990Y398268D02*
D03*
X499832Y398512D02*
D03*
X501510Y395426D02*
D03*
X431433Y406559D02*
D03*
X513963Y366607D02*
D03*
X497399Y365253D02*
D03*
X502520Y360473D02*
D03*
X496230Y352686D02*
D03*
X513898Y354052D02*
D03*
X425373Y357928D02*
D03*
X537849Y350094D02*
D03*
X511245Y334844D02*
D03*
X511289Y398268D02*
D03*
X431386Y394748D02*
D03*
X532428Y396768D02*
D03*
X525772Y400686D02*
D03*
X423559Y394748D02*
D03*
X528572Y387302D02*
D03*
X525501Y384134D02*
D03*
X431433Y386874D02*
D03*
X496963Y382498D02*
D03*
X528601Y380965D02*
D03*
X537849Y395355D02*
D03*
X547388Y375710D02*
D03*
X519165Y373127D02*
D03*
X421573Y365253D02*
D03*
X479636Y366534D02*
D03*
X433384Y369190D02*
D03*
X501391Y365009D02*
D03*
X508140Y363623D02*
D03*
X425510Y361316D02*
D03*
X502214Y357366D02*
D03*
X537849Y380867D02*
D03*
X496963Y385670D02*
D03*
X509675Y377826D02*
D03*
X514554Y358243D02*
D03*
X399937Y367189D02*
D03*
X550888Y351234D02*
D03*
X547387Y367910D02*
D03*
X521785Y368386D02*
D03*
X396000Y355378D02*
D03*
X550888Y360027D02*
D03*
X488533Y387288D02*
D03*
X483141Y391855D02*
D03*
X517353Y375515D02*
D03*
X448803Y380767D02*
D03*
X417636Y361316D02*
D03*
X508140Y395119D02*
D03*
X537849Y371666D02*
D03*
X537849Y363184D02*
D03*
X479549Y352940D02*
D03*
X522945Y334846D02*
D03*
X532428Y393836D02*
D03*
X501351Y392426D02*
D03*
X500016Y384355D02*
D03*
X427525Y382926D02*
D03*
X501391Y380285D02*
D03*
X429447Y373127D02*
D03*
X514432Y379371D02*
D03*
X433384Y377064D02*
D03*
X532713Y379348D02*
D03*
X528660Y374655D02*
D03*
X534098Y368386D02*
D03*
X437974Y359079D02*
D03*
X417850Y357646D02*
D03*
X489866Y395514D02*
D03*
X439845Y365485D02*
D03*
X405825Y361316D02*
D03*
X479910Y373252D02*
D03*
X527037Y360473D02*
D03*
X547388Y355134D02*
D03*
X433384Y361316D02*
D03*
X532428Y355926D02*
D03*
X513963Y360473D02*
D03*
X409777Y357379D02*
D03*
X519045Y334845D02*
D03*
X527037Y349149D02*
D03*
X475963Y353442D02*
D03*
X421591Y357773D02*
D03*
X550887Y367910D02*
D03*
X537849Y368227D02*
D03*
X487301Y376658D02*
D03*
X437321Y363623D02*
D03*
X514558Y373426D02*
D03*
X405825Y357379D02*
D03*
X478790Y386821D02*
D03*
X504990Y391969D02*
D03*
X515017Y391926D02*
D03*
X431433Y390811D02*
D03*
X523888Y388819D02*
D03*
X427525Y390936D02*
D03*
X496963Y375930D02*
D03*
X537849Y359745D02*
D03*
X550889Y363927D02*
D03*
X526845Y334846D02*
D03*
X515145Y334844D02*
D03*
X521963Y399926D02*
D03*
X423559Y402622D02*
D03*
X511289Y395119D02*
D03*
X514558Y383210D02*
D03*
X423567Y379000D02*
D03*
X528549Y384024D02*
D03*
X433384Y381001D02*
D03*
X532735Y382476D02*
D03*
X519165Y369190D02*
D03*
X550888Y375710D02*
D03*
X425229Y365300D02*
D03*
X479451Y382325D02*
D03*
X532739Y363475D02*
D03*
X531863Y351024D02*
D03*
X530745Y334830D02*
D03*
X479841Y376997D02*
D03*
X525963Y390926D02*
D03*
X427496Y406559D02*
D03*
X491651Y349004D02*
D03*
X509640Y358765D02*
D03*
X429573Y365273D02*
D03*
X507345Y334844D02*
D03*
X550888Y355134D02*
D03*
X508140Y398268D02*
D03*
X431433Y402622D02*
D03*
X504990Y395119D02*
D03*
X423559Y382937D02*
D03*
X502541Y375543D02*
D03*
X504990Y351024D02*
D03*
X344819Y331756D02*
D03*
X352693Y343567D02*
D03*
X344819Y347504D02*
D03*
X336945Y339630D02*
D03*
Y323882D02*
D03*
Y355378D02*
D03*
X324582Y349237D02*
D03*
X314219Y351446D02*
D03*
Y353446D02*
D03*
X324582Y347237D02*
D03*
X686000Y279436D02*
D03*
X415685Y335693D02*
D03*
X700161Y246126D02*
D03*
X427496Y316008D02*
D03*
X716044Y284472D02*
D03*
X415685Y339630D02*
D03*
X713453Y278217D02*
D03*
X403874Y339630D02*
D03*
X372378D02*
D03*
X711726Y274046D02*
D03*
X411748Y335693D02*
D03*
X708938Y267317D02*
D03*
X415685Y331756D02*
D03*
X707435Y263688D02*
D03*
X419622Y327819D02*
D03*
X364504Y323882D02*
D03*
X356630Y402622D02*
D03*
X368441Y335693D02*
D03*
X415685Y327819D02*
D03*
X686000Y263402D02*
D03*
Y259465D02*
D03*
X427496Y319945D02*
D03*
X340882Y323882D02*
D03*
X348777Y402622D02*
D03*
X686000Y268842D02*
D03*
X423559Y327819D02*
D03*
X364504Y319945D02*
D03*
X340882Y339630D02*
D03*
X419622Y410496D02*
D03*
Y319945D02*
D03*
X686000Y255528D02*
D03*
X431433Y316008D02*
D03*
X686000Y251591D02*
D03*
Y272805D02*
D03*
X407811Y335693D02*
D03*
X396000Y351441D02*
D03*
Y375063D02*
D03*
X392063Y347504D02*
D03*
X739541Y138489D02*
D03*
X392063Y363252D02*
D03*
Y371126D02*
D03*
X388126Y359315D02*
D03*
X392063Y355378D02*
D03*
X388126Y351441D02*
D03*
X738479Y133284D02*
D03*
X384189Y371126D02*
D03*
X380252Y367189D02*
D03*
X388126D02*
D03*
X384189Y363252D02*
D03*
X376315Y371126D02*
D03*
X372378Y375063D02*
D03*
X368441Y371126D02*
D03*
X376315Y363252D02*
D03*
X372378Y367189D02*
D03*
X384189Y355378D02*
D03*
X380284Y303561D02*
D03*
X380252Y351441D02*
D03*
X382284Y294611D02*
D03*
Y303561D02*
D03*
X380413Y284161D02*
D03*
X380284Y294611D02*
D03*
X380252Y359315D02*
D03*
X376315Y355378D02*
D03*
X372378Y359315D02*
D03*
X378413Y284161D02*
D03*
X372378Y351441D02*
D03*
X368441Y347504D02*
D03*
X762648Y160428D02*
D03*
X441584Y289672D02*
D03*
X431433Y319945D02*
D03*
X423559D02*
D03*
X411748Y339630D02*
D03*
X396000Y343567D02*
D03*
X399937Y347504D02*
D03*
X396000D02*
D03*
X686000Y286000D02*
D03*
Y289937D02*
D03*
Y293874D02*
D03*
X719512Y292844D02*
D03*
X717675Y288409D02*
D03*
X705053Y257937D02*
D03*
X703422Y254000D02*
D03*
X747823Y140940D02*
D03*
X753728Y168333D02*
D03*
X772915D02*
D03*
X766448Y173615D02*
D03*
X772915Y164833D02*
D03*
X766448Y166915D02*
D03*
X792750Y149502D02*
D03*
X727930Y123661D02*
D03*
X735854Y138505D02*
D03*
X732180Y133284D02*
D03*
X740601Y122435D02*
D03*
X746923Y123661D02*
D03*
X791000Y132677D02*
D03*
X787948Y117431D02*
D03*
X794050Y123927D02*
D03*
X451485Y422216D02*
D03*
Y424216D02*
D03*
X440335Y419315D02*
D03*
Y417314D02*
D03*
X451485Y411618D02*
D03*
X440335Y412615D02*
D03*
Y410614D02*
D03*
X451485Y409618D02*
D03*
X431433Y410496D02*
D03*
X411748Y406559D02*
D03*
X427496Y331756D02*
D03*
X419622Y339630D02*
D03*
X403874Y343567D02*
D03*
X407811Y327819D02*
D03*
X400445Y430671D02*
D03*
X398445D02*
D03*
X400597Y419771D02*
D03*
X398596D02*
D03*
X396000Y406559D02*
D03*
X380252D02*
D03*
X392063Y375063D02*
D03*
X388126Y394748D02*
D03*
X392063Y386874D02*
D03*
X392020Y367189D02*
D03*
X388126Y371126D02*
D03*
X380252D02*
D03*
X376315Y382937D02*
D03*
X384189Y367189D02*
D03*
X376315D02*
D03*
X372378Y402622D02*
D03*
X364504Y406559D02*
D03*
X356630Y394748D02*
D03*
X372378D02*
D03*
X348756Y406559D02*
D03*
X344819Y386874D02*
D03*
X356630Y382937D02*
D03*
X372378Y371126D02*
D03*
X352693D02*
D03*
X336945Y379000D02*
D03*
X392063Y359315D02*
D03*
X388126Y363252D02*
D03*
X384189Y359315D02*
D03*
X388126Y355378D02*
D03*
X380252Y363252D02*
D03*
Y355378D02*
D03*
X392063Y351441D02*
D03*
Y339630D02*
D03*
X392006Y327762D02*
D03*
X376315Y351441D02*
D03*
X384189D02*
D03*
X376315Y359315D02*
D03*
X372378Y363252D02*
D03*
Y355378D02*
D03*
Y347504D02*
D03*
X360567Y343567D02*
D03*
Y363252D02*
D03*
X348756Y355378D02*
D03*
X336945Y363252D02*
D03*
X360567Y331756D02*
D03*
X376315Y327819D02*
D03*
X348756D02*
D03*
X344819Y339630D02*
D03*
X336945Y331756D02*
D03*
X748750Y95750D02*
D03*
X787667Y94000D02*
D03*
X773500Y95750D02*
D03*
X436884Y289672D02*
D03*
X428663Y279721D02*
D03*
X430663D02*
D03*
X434884Y289672D02*
D03*
X419622Y323882D02*
D03*
X415685Y316008D02*
D03*
X431433Y312071D02*
D03*
X419627Y288902D02*
D03*
X417021Y298959D02*
D03*
X415021D02*
D03*
X423530Y312071D02*
D03*
X417626Y288902D02*
D03*
X399937Y316008D02*
D03*
X384189D02*
D03*
X368441D02*
D03*
X352693D02*
D03*
X388984Y303561D02*
D03*
X386984D02*
D03*
X393011Y284161D02*
D03*
X391011D02*
D03*
X386984Y294611D02*
D03*
X388984D02*
D03*
X338152Y301482D02*
D03*
X340152D02*
D03*
X340054Y290582D02*
D03*
X338054D02*
D03*
X333008Y410496D02*
D03*
X324513Y373623D02*
D03*
Y375623D02*
D03*
X313413Y375722D02*
D03*
Y373722D02*
D03*
X336945Y347504D02*
D03*
X324582Y340537D02*
D03*
Y342537D02*
D03*
X333008Y312071D02*
D03*
X323910Y310986D02*
D03*
Y312986D02*
D03*
X314219Y338847D02*
D03*
Y340847D02*
D03*
X313682Y313385D02*
D03*
Y311385D02*
D03*
X352693Y367189D02*
D03*
X348756D02*
D03*
X364504Y363252D02*
D03*
X356630Y371126D02*
D03*
X344819Y359315D02*
D03*
X348756D02*
D03*
X333008Y331756D02*
D03*
X360567Y359315D02*
D03*
X333008Y339630D02*
D03*
X344819Y319945D02*
D03*
X364504Y327819D02*
D03*
X427496Y339630D02*
D03*
X396000Y335693D02*
D03*
X411748Y331756D02*
D03*
X413043Y430671D02*
D03*
X443584Y289672D02*
D03*
X419622Y331756D02*
D03*
X427496Y323882D02*
D03*
X411043Y430671D02*
D03*
X407297Y419771D02*
D03*
X405296D02*
D03*
X403874Y406559D02*
D03*
X388126D02*
D03*
X396000Y390811D02*
D03*
Y398685D02*
D03*
X388126Y386874D02*
D03*
X399937Y343567D02*
D03*
X388126Y335693D02*
D03*
X423559Y316008D02*
D03*
X410321Y298959D02*
D03*
X408321D02*
D03*
X399937Y323882D02*
D03*
X407830Y316122D02*
D03*
X392063Y316008D02*
D03*
X407028Y288902D02*
D03*
X405028D02*
D03*
X372378Y406559D02*
D03*
X380252Y394748D02*
D03*
X372378Y390811D02*
D03*
X364504Y398685D02*
D03*
X356630Y406559D02*
D03*
X348756Y410496D02*
D03*
X352693Y390811D02*
D03*
Y398685D02*
D03*
X344819Y394748D02*
D03*
X368441Y386874D02*
D03*
X360567D02*
D03*
X380252Y375063D02*
D03*
X364504D02*
D03*
X344819Y382937D02*
D03*
X336945Y386874D02*
D03*
X352693Y379000D02*
D03*
X313413Y388320D02*
D03*
X324513Y380323D02*
D03*
X313413Y386320D02*
D03*
X324513Y382324D02*
D03*
X384189Y347504D02*
D03*
X368441Y355378D02*
D03*
X380252Y339630D02*
D03*
X376315Y335693D02*
D03*
X356630Y355378D02*
D03*
X364504Y343567D02*
D03*
X348756Y351441D02*
D03*
X344819Y363252D02*
D03*
X364504Y335693D02*
D03*
X352693Y331756D02*
D03*
X384189Y327819D02*
D03*
X368441Y323882D02*
D03*
X376315Y316008D02*
D03*
X348756Y319945D02*
D03*
X360567Y316008D02*
D03*
X336945Y371126D02*
D03*
X333452Y301482D02*
D03*
X331452D02*
D03*
X325455Y290582D02*
D03*
X327455D02*
D03*
X323910Y319686D02*
D03*
Y317686D02*
D03*
X313682Y325984D02*
D03*
Y323984D02*
D03*
X368441Y363252D02*
D03*
X360567Y367189D02*
D03*
X340882Y406559D02*
D03*
X344819Y351441D02*
D03*
X352693Y359315D02*
D03*
X364504Y351441D02*
D03*
Y359315D02*
D03*
X368441D02*
D03*
X356630Y327819D02*
D03*
X368441Y343567D02*
D03*
Y331756D02*
D03*
X423559Y410496D02*
D03*
X419622Y406559D02*
D03*
X380252Y335693D02*
D03*
X356630Y367189D02*
D03*
X364504D02*
D03*
X368441D02*
D03*
X364504Y382937D02*
D03*
X340882Y319945D02*
D03*
X348756Y331756D02*
D03*
X356630Y363252D02*
D03*
X340882Y359315D02*
D03*
X372378Y319945D02*
D03*
X368441D02*
D03*
X372378Y323882D02*
D03*
X380252Y312071D02*
D03*
Y316008D02*
D03*
X344819Y375063D02*
D03*
X348756Y371126D02*
D03*
X360567D02*
D03*
X356630Y339630D02*
D03*
X348756Y323882D02*
D03*
X344819Y355378D02*
D03*
X364504Y347504D02*
D03*
X368441Y351441D02*
D03*
X333008Y363252D02*
D03*
X340882Y331756D02*
D03*
X356630Y323882D02*
D03*
X372378Y327819D02*
D03*
X380252Y343567D02*
D03*
X364504Y371126D02*
D03*
X348756Y375063D02*
D03*
X360567Y379000D02*
D03*
X364504D02*
D03*
X344819Y327819D02*
D03*
X364504Y355378D02*
D03*
X376315Y331756D02*
D03*
X368441Y327819D02*
D03*
X372378Y331756D02*
D03*
X333008Y323882D02*
D03*
X352693Y355378D02*
D03*
Y375063D02*
D03*
X368441Y379000D02*
D03*
X364504Y386874D02*
D03*
X340882Y363252D02*
D03*
X356630Y410496D02*
D03*
Y359315D02*
D03*
X368441Y375063D02*
D03*
X340882Y398685D02*
D03*
X344819D02*
D03*
X360567D02*
D03*
Y390811D02*
D03*
X372378Y379000D02*
D03*
X333008Y367189D02*
D03*
X352693Y327819D02*
D03*
X372378Y335693D02*
D03*
X352693Y339630D02*
D03*
X348756D02*
D03*
Y335693D02*
D03*
X340882Y390811D02*
D03*
X344819D02*
D03*
X356630Y375063D02*
D03*
X360567Y402622D02*
D03*
Y355378D02*
D03*
X336945Y367189D02*
D03*
X356630Y331756D02*
D03*
X340882Y312071D02*
D03*
X745250Y95750D02*
D03*
X770000D02*
D03*
X744532Y79555D02*
D03*
X769478Y80097D02*
D03*
X741032Y79555D02*
D03*
X765978Y80097D02*
D03*
X738479Y48750D02*
D03*
X758000Y48750D02*
D03*
X787667Y81000D02*
D03*
D220*
X554937Y210032D02*
D03*
Y213969D02*
D03*
X551000D02*
D03*
Y210032D02*
D03*
X547063D02*
D03*
Y213969D02*
D03*
X490937D02*
D03*
X487000D02*
D03*
X483063Y210032D02*
D03*
Y213969D02*
D03*
X487000Y210032D02*
D03*
X490937D02*
D03*
X401937Y209032D02*
D03*
X398000Y212969D02*
D03*
X394063D02*
D03*
X401937D02*
D03*
X394063Y209032D02*
D03*
X398000D02*
D03*
X326937Y214969D02*
D03*
X323000Y211032D02*
D03*
X326937D02*
D03*
X323000Y214969D02*
D03*
X319063D02*
D03*
Y211032D02*
D03*
D237*
X481255Y336107D02*
D03*
M02*
